SplineFontDB: 3.0
FontName: WP34SRasterFontSmall
FullName: WP 34S Raster Font Small
FamilyName: WP 34S Raster Font
Weight: Normal
Copyright: (c) 2012 The WP 34S Team. Covered by the GPL V3.
UComments: "2012-2-21: Created." 
Version: 001.000
ItalicAngle: 0
UnderlinePosition: -200
UnderlineWidth: 95
Ascent: 800
Descent: 224
LayerCount: 2
Layer: 0 1 "Back"  1
Layer: 1 1 "Fore"  0
NeedsXUIDChange: 1
XUID: [1021 211 1576984752 1627448]
OS2Version: 0
OS2_WeightWidthSlopeOnly: 0
OS2_UseTypoMetrics: 1
CreationTime: 1329819110
ModificationTime: 1329819881
PfmFamily: 32
TTFWeight: 400
TTFWidth: 5
LineGap: 166
VLineGap: 0
OS2TypoAscent: 0
OS2TypoAOffset: 1
OS2TypoDescent: 0
OS2TypoDOffset: 1
OS2TypoLinegap: 0
OS2WinAscent: 0
OS2WinAOffset: 1
OS2WinDescent: 0
OS2WinDOffset: 1
HheadAscent: 0
HheadAOffset: 1
HheadDescent: 0
HheadDOffset: 1
OS2Vendor: 'PfEd'
MarkAttachClasses: 1
DEI: 91125
Encoding: UnicodeBmp
UnicodeInterp: none
NameList: Adobe Glyph List
DisplaySize: -36
AntiAlias: 0
FitToEm: 1
WinInfo: 0 16 16
BeginPrivate: 0
EndPrivate
BeginChars: 65537 256

StartChar: .nochar
Encoding: 65536 -1 0
Width: 300
VWidth: 0
LayerCount: 2
Fore
SplineSet
100 200 m 1,0,-1
 100 295 l 1,1,-1
 195 295 l 1,2,-1
 195 200 l 1,3,-1
 100 200 l 1,0,-1
EndSplineSet
Validated: 1
EndChar

StartChar: xbar
Encoding: 57345 57345 1
Width: 400
VWidth: 0
LayerCount: 2
Fore
SplineSet
0 500 m 1,0,-1
 0 580 l 1,1,-1
 80 580 l 1,2,-1
 80 500 l 1,3,-1
 0 500 l 1,0,-1
100 500 m 1,4,-1
 100 580 l 1,5,-1
 180 580 l 1,6,-1
 180 500 l 1,7,-1
 100 500 l 1,4,-1
200 500 m 1,8,-1
 200 580 l 1,9,-1
 280 580 l 1,10,-1
 280 500 l 1,11,-1
 200 500 l 1,8,-1
0 300 m 1,12,-1
 0 380 l 1,13,-1
 80 380 l 1,14,-1
 80 300 l 1,15,-1
 0 300 l 1,12,-1
200 300 m 1,16,-1
 200 380 l 1,17,-1
 280 380 l 1,18,-1
 280 300 l 1,19,-1
 200 300 l 1,16,-1
100 200 m 1,20,-1
 100 280 l 1,21,-1
 180 280 l 1,22,-1
 180 200 l 1,23,-1
 100 200 l 1,20,-1
0 100 m 1,24,-1
 0 180 l 1,25,-1
 80 180 l 1,26,-1
 80 100 l 1,27,-1
 0 100 l 1,24,-1
200 100 m 1,28,-1
 200 180 l 1,29,-1
 280 180 l 1,30,-1
 280 100 l 1,31,-1
 200 100 l 1,28,-1
EndSplineSet
EndChar

StartChar: ybar
Encoding: 563 563 2
Width: 400
VWidth: 0
LayerCount: 2
Fore
SplineSet
0 500 m 1,0,-1
 0 580 l 1,1,-1
 80 580 l 1,2,-1
 80 500 l 1,3,-1
 0 500 l 1,0,-1
100 500 m 1,4,-1
 100 580 l 1,5,-1
 180 580 l 1,6,-1
 180 500 l 1,7,-1
 100 500 l 1,4,-1
200 500 m 1,8,-1
 200 580 l 1,9,-1
 280 580 l 1,10,-1
 280 500 l 1,11,-1
 200 500 l 1,8,-1
0 300 m 1,12,-1
 0 380 l 1,13,-1
 80 380 l 1,14,-1
 80 300 l 1,15,-1
 0 300 l 1,12,-1
200 300 m 1,16,-1
 200 380 l 1,17,-1
 280 380 l 1,18,-1
 280 300 l 1,19,-1
 200 300 l 1,16,-1
0 200 m 1,20,-1
 0 280 l 1,21,-1
 80 280 l 1,22,-1
 80 200 l 1,23,-1
 0 200 l 1,20,-1
100 200 m 1,24,-1
 100 280 l 1,25,-1
 180 280 l 1,26,-1
 180 200 l 1,27,-1
 100 200 l 1,24,-1
200 200 m 1,28,-1
 200 280 l 1,29,-1
 280 280 l 1,30,-1
 280 200 l 1,31,-1
 200 200 l 1,28,-1
200 100 m 1,32,-1
 200 180 l 1,33,-1
 280 180 l 1,34,-1
 280 100 l 1,35,-1
 200 100 l 1,32,-1
0 0 m 1,36,-1
 0 80 l 1,37,-1
 80 80 l 1,38,-1
 80 0 l 1,39,-1
 0 0 l 1,36,-1
100 0 m 1,40,-1
 100 80 l 1,41,-1
 180 80 l 1,42,-1
 180 0 l 1,43,-1
 100 0 l 1,40,-1
EndSplineSet
EndChar

StartChar: sqrt
Encoding: 8730 8730 3
Width: 500
VWidth: 0
LayerCount: 2
Fore
SplineSet
100 500 m 1,0,-1
 100 580 l 1,1,-1
 180 580 l 1,2,-1
 180 500 l 1,3,-1
 100 500 l 1,0,-1
200 500 m 1,4,-1
 200 580 l 1,5,-1
 280 580 l 1,6,-1
 280 500 l 1,7,-1
 200 500 l 1,4,-1
300 500 m 1,8,-1
 300 580 l 1,9,-1
 380 580 l 1,10,-1
 380 500 l 1,11,-1
 300 500 l 1,8,-1
100 400 m 1,12,-1
 100 480 l 1,13,-1
 180 480 l 1,14,-1
 180 400 l 1,15,-1
 100 400 l 1,12,-1
100 300 m 1,16,-1
 100 380 l 1,17,-1
 180 380 l 1,18,-1
 180 300 l 1,19,-1
 100 300 l 1,16,-1
0 200 m 1,20,-1
 0 280 l 1,21,-1
 80 280 l 1,22,-1
 80 200 l 1,23,-1
 0 200 l 1,20,-1
100 200 m 1,24,-1
 100 280 l 1,25,-1
 180 280 l 1,26,-1
 180 200 l 1,27,-1
 100 200 l 1,24,-1
100 100 m 1,28,-1
 100 180 l 1,29,-1
 180 180 l 1,30,-1
 180 100 l 1,31,-1
 100 100 l 1,28,-1
EndSplineSet
EndChar

StartChar: integral
Encoding: 8747 8747 4
Width: 400
VWidth: 0
LayerCount: 2
Fore
SplineSet
100 500 m 1,0,-1
 100 580 l 1,1,-1
 180 580 l 1,2,-1
 180 500 l 1,3,-1
 100 500 l 1,0,-1
200 500 m 1,4,-1
 200 580 l 1,5,-1
 280 580 l 1,6,-1
 280 500 l 1,7,-1
 200 500 l 1,4,-1
100 400 m 1,8,-1
 100 480 l 1,9,-1
 180 480 l 1,10,-1
 180 400 l 1,11,-1
 100 400 l 1,8,-1
100 300 m 1,12,-1
 100 380 l 1,13,-1
 180 380 l 1,14,-1
 180 300 l 1,15,-1
 100 300 l 1,12,-1
100 200 m 1,16,-1
 100 280 l 1,17,-1
 180 280 l 1,18,-1
 180 200 l 1,19,-1
 100 200 l 1,16,-1
100 100 m 1,20,-1
 100 180 l 1,21,-1
 180 180 l 1,22,-1
 180 100 l 1,23,-1
 100 100 l 1,20,-1
0 0 m 1,24,-1
 0 80 l 1,25,-1
 80 80 l 1,26,-1
 80 0 l 1,27,-1
 0 0 l 1,24,-1
100 0 m 1,28,-1
 100 80 l 1,29,-1
 180 80 l 1,30,-1
 180 0 l 1,31,-1
 100 0 l 1,28,-1
EndSplineSet
EndChar

StartChar: degree
Encoding: 176 176 5
Width: 400
VWidth: 0
LayerCount: 2
Fore
SplineSet
0 500 m 1,0,-1
 0 580 l 1,1,-1
 80 580 l 1,2,-1
 80 500 l 1,3,-1
 0 500 l 1,0,-1
100 500 m 1,4,-1
 100 580 l 1,5,-1
 180 580 l 1,6,-1
 180 500 l 1,7,-1
 100 500 l 1,4,-1
200 500 m 1,8,-1
 200 580 l 1,9,-1
 280 580 l 1,10,-1
 280 500 l 1,11,-1
 200 500 l 1,8,-1
0 400 m 1,12,-1
 0 480 l 1,13,-1
 80 480 l 1,14,-1
 80 400 l 1,15,-1
 0 400 l 1,12,-1
200 400 m 1,16,-1
 200 480 l 1,17,-1
 280 480 l 1,18,-1
 280 400 l 1,19,-1
 200 400 l 1,16,-1
0 300 m 1,20,-1
 0 380 l 1,21,-1
 80 380 l 1,22,-1
 80 300 l 1,23,-1
 0 300 l 1,20,-1
100 300 m 1,24,-1
 100 380 l 1,25,-1
 180 380 l 1,26,-1
 180 300 l 1,27,-1
 100 300 l 1,24,-1
200 300 m 1,28,-1
 200 380 l 1,29,-1
 280 380 l 1,30,-1
 280 300 l 1,31,-1
 200 300 l 1,28,-1
EndSplineSet
EndChar

StartChar: narrowspace
Encoding: 57344 57344 6
Width: 100
VWidth: 0
LayerCount: 2
Fore
SplineSet
-1 801 m 1,0,-1
 -1 801 l 1,0,-1
EndSplineSet
EndChar

StartChar: grad
Encoding: 57346 57346 7
Width: 500
VWidth: 0
LayerCount: 2
Fore
SplineSet
100 500 m 1,0,-1
 100 580 l 1,1,-1
 180 580 l 1,2,-1
 180 500 l 1,3,-1
 100 500 l 1,0,-1
200 500 m 1,4,-1
 200 580 l 1,5,-1
 280 580 l 1,6,-1
 280 500 l 1,7,-1
 200 500 l 1,4,-1
300 500 m 1,8,-1
 300 580 l 1,9,-1
 380 580 l 1,10,-1
 380 500 l 1,11,-1
 300 500 l 1,8,-1
0 400 m 1,12,-1
 0 480 l 1,13,-1
 80 480 l 1,14,-1
 80 400 l 1,15,-1
 0 400 l 1,12,-1
0 300 m 1,16,-1
 0 380 l 1,17,-1
 80 380 l 1,18,-1
 80 300 l 1,19,-1
 0 300 l 1,16,-1
200 300 m 1,20,-1
 200 380 l 1,21,-1
 280 380 l 1,22,-1
 280 300 l 1,23,-1
 200 300 l 1,20,-1
300 300 m 1,24,-1
 300 380 l 1,25,-1
 380 380 l 1,26,-1
 380 300 l 1,27,-1
 300 300 l 1,24,-1
0 200 m 1,28,-1
 0 280 l 1,29,-1
 80 280 l 1,30,-1
 80 200 l 1,31,-1
 0 200 l 1,28,-1
300 200 m 1,32,-1
 300 280 l 1,33,-1
 380 280 l 1,34,-1
 380 200 l 1,35,-1
 300 200 l 1,32,-1
100 100 m 1,36,-1
 100 180 l 1,37,-1
 180 180 l 1,38,-1
 180 100 l 1,39,-1
 100 100 l 1,36,-1
200 100 m 1,40,-1
 200 180 l 1,41,-1
 280 180 l 1,42,-1
 280 100 l 1,43,-1
 200 100 l 1,40,-1
300 100 m 1,44,-1
 300 180 l 1,45,-1
 380 180 l 1,46,-1
 380 100 l 1,47,-1
 300 100 l 1,44,-1
EndSplineSet
EndChar

StartChar: plusminus
Encoding: 177 177 8
Width: 400
VWidth: 0
LayerCount: 2
Fore
SplineSet
100 500 m 1,0,-1
 100 580 l 1,1,-1
 180 580 l 1,2,-1
 180 500 l 1,3,-1
 100 500 l 1,0,-1
0 400 m 1,4,-1
 0 480 l 1,5,-1
 80 480 l 1,6,-1
 80 400 l 1,7,-1
 0 400 l 1,4,-1
100 400 m 1,8,-1
 100 480 l 1,9,-1
 180 480 l 1,10,-1
 180 400 l 1,11,-1
 100 400 l 1,8,-1
200 400 m 1,12,-1
 200 480 l 1,13,-1
 280 480 l 1,14,-1
 280 400 l 1,15,-1
 200 400 l 1,12,-1
100 300 m 1,16,-1
 100 380 l 1,17,-1
 180 380 l 1,18,-1
 180 300 l 1,19,-1
 100 300 l 1,16,-1
0 100 m 1,20,-1
 0 180 l 1,21,-1
 80 180 l 1,22,-1
 80 100 l 1,23,-1
 0 100 l 1,20,-1
100 100 m 1,24,-1
 100 180 l 1,25,-1
 180 180 l 1,26,-1
 180 100 l 1,27,-1
 100 100 l 1,24,-1
200 100 m 1,28,-1
 200 180 l 1,29,-1
 280 180 l 1,30,-1
 280 100 l 1,31,-1
 200 100 l 1,28,-1
EndSplineSet
EndChar

StartChar: le
Encoding: 8804 8804 9
Width: 400
VWidth: 0
LayerCount: 2
Fore
SplineSet
200 500 m 1,0,-1
 200 580 l 1,1,-1
 280 580 l 1,2,-1
 280 500 l 1,3,-1
 200 500 l 1,0,-1
100 400 m 1,4,-1
 100 480 l 1,5,-1
 180 480 l 1,6,-1
 180 400 l 1,7,-1
 100 400 l 1,4,-1
0 300 m 1,8,-1
 0 380 l 1,9,-1
 80 380 l 1,10,-1
 80 300 l 1,11,-1
 0 300 l 1,8,-1
100 300 m 1,12,-1
 100 380 l 1,13,-1
 180 380 l 1,14,-1
 180 300 l 1,15,-1
 100 300 l 1,12,-1
200 300 m 1,16,-1
 200 380 l 1,17,-1
 280 380 l 1,18,-1
 280 300 l 1,19,-1
 200 300 l 1,16,-1
0 100 m 1,20,-1
 0 180 l 1,21,-1
 80 180 l 1,22,-1
 80 100 l 1,23,-1
 0 100 l 1,20,-1
100 100 m 1,24,-1
 100 180 l 1,25,-1
 180 180 l 1,26,-1
 180 100 l 1,27,-1
 100 100 l 1,24,-1
200 100 m 1,28,-1
 200 180 l 1,29,-1
 280 180 l 1,30,-1
 280 100 l 1,31,-1
 200 100 l 1,28,-1
EndSplineSet
EndChar

StartChar: ge
Encoding: 8805 8805 10
Width: 400
VWidth: 0
LayerCount: 2
Fore
SplineSet
0 500 m 1,0,-1
 0 580 l 1,1,-1
 80 580 l 1,2,-1
 80 500 l 1,3,-1
 0 500 l 1,0,-1
100 400 m 1,4,-1
 100 480 l 1,5,-1
 180 480 l 1,6,-1
 180 400 l 1,7,-1
 100 400 l 1,4,-1
0 300 m 1,8,-1
 0 380 l 1,9,-1
 80 380 l 1,10,-1
 80 300 l 1,11,-1
 0 300 l 1,8,-1
100 300 m 1,12,-1
 100 380 l 1,13,-1
 180 380 l 1,14,-1
 180 300 l 1,15,-1
 100 300 l 1,12,-1
200 300 m 1,16,-1
 200 380 l 1,17,-1
 280 380 l 1,18,-1
 280 300 l 1,19,-1
 200 300 l 1,16,-1
0 100 m 1,20,-1
 0 180 l 1,21,-1
 80 180 l 1,22,-1
 80 100 l 1,23,-1
 0 100 l 1,20,-1
100 100 m 1,24,-1
 100 180 l 1,25,-1
 180 180 l 1,26,-1
 180 100 l 1,27,-1
 100 100 l 1,24,-1
200 100 m 1,28,-1
 200 180 l 1,29,-1
 280 180 l 1,30,-1
 280 100 l 1,31,-1
 200 100 l 1,28,-1
EndSplineSet
EndChar

StartChar: ne
Encoding: 8800 8800 11
Width: 400
VWidth: 0
LayerCount: 2
Fore
SplineSet
100 500 m 1,0,-1
 100 580 l 1,1,-1
 180 580 l 1,2,-1
 180 500 l 1,3,-1
 100 500 l 1,0,-1
0 400 m 1,4,-1
 0 480 l 1,5,-1
 80 480 l 1,6,-1
 80 400 l 1,7,-1
 0 400 l 1,4,-1
100 400 m 1,8,-1
 100 480 l 1,9,-1
 180 480 l 1,10,-1
 180 400 l 1,11,-1
 100 400 l 1,8,-1
200 400 m 1,12,-1
 200 480 l 1,13,-1
 280 480 l 1,14,-1
 280 400 l 1,15,-1
 200 400 l 1,12,-1
100 300 m 1,16,-1
 100 380 l 1,17,-1
 180 380 l 1,18,-1
 180 300 l 1,19,-1
 100 300 l 1,16,-1
0 200 m 1,20,-1
 0 280 l 1,21,-1
 80 280 l 1,22,-1
 80 200 l 1,23,-1
 0 200 l 1,20,-1
100 200 m 1,24,-1
 100 280 l 1,25,-1
 180 280 l 1,26,-1
 180 200 l 1,27,-1
 100 200 l 1,24,-1
200 200 m 1,28,-1
 200 280 l 1,29,-1
 280 280 l 1,30,-1
 280 200 l 1,31,-1
 200 200 l 1,28,-1
100 100 m 1,32,-1
 100 180 l 1,33,-1
 180 180 l 1,34,-1
 180 100 l 1,35,-1
 100 100 l 1,32,-1
EndSplineSet
EndChar

StartChar: euro
Encoding: 8364 8364 12
Width: 500
VWidth: 0
LayerCount: 2
Fore
SplineSet
100 500 m 1,0,-1
 100 580 l 1,1,-1
 180 580 l 1,2,-1
 180 500 l 1,3,-1
 100 500 l 1,0,-1
200 500 m 1,4,-1
 200 580 l 1,5,-1
 280 580 l 1,6,-1
 280 500 l 1,7,-1
 200 500 l 1,4,-1
300 500 m 1,8,-1
 300 580 l 1,9,-1
 380 580 l 1,10,-1
 380 500 l 1,11,-1
 300 500 l 1,8,-1
0 400 m 1,12,-1
 0 480 l 1,13,-1
 80 480 l 1,14,-1
 80 400 l 1,15,-1
 0 400 l 1,12,-1
0 300 m 1,16,-1
 0 380 l 1,17,-1
 80 380 l 1,18,-1
 80 300 l 1,19,-1
 0 300 l 1,16,-1
100 300 m 1,20,-1
 100 380 l 1,21,-1
 180 380 l 1,22,-1
 180 300 l 1,23,-1
 100 300 l 1,20,-1
200 300 m 1,24,-1
 200 380 l 1,25,-1
 280 380 l 1,26,-1
 280 300 l 1,27,-1
 200 300 l 1,24,-1
0 200 m 1,28,-1
 0 280 l 1,29,-1
 80 280 l 1,30,-1
 80 200 l 1,31,-1
 0 200 l 1,28,-1
100 100 m 1,32,-1
 100 180 l 1,33,-1
 180 180 l 1,34,-1
 180 100 l 1,35,-1
 100 100 l 1,32,-1
200 100 m 1,36,-1
 200 180 l 1,37,-1
 280 180 l 1,38,-1
 280 100 l 1,39,-1
 200 100 l 1,36,-1
300 100 m 1,40,-1
 300 180 l 1,41,-1
 380 180 l 1,42,-1
 380 100 l 1,43,-1
 300 100 l 1,40,-1
EndSplineSet
EndChar

StartChar: right
Encoding: 8594 8594 13
Width: 500
VWidth: 0
LayerCount: 2
Fore
SplineSet
100 500 m 1,0,-1
 100 580 l 1,1,-1
 180 580 l 1,2,-1
 180 500 l 1,3,-1
 100 500 l 1,0,-1
200 400 m 1,4,-1
 200 480 l 1,5,-1
 280 480 l 1,6,-1
 280 400 l 1,7,-1
 200 400 l 1,4,-1
0 300 m 1,8,-1
 0 380 l 1,9,-1
 80 380 l 1,10,-1
 80 300 l 1,11,-1
 0 300 l 1,8,-1
100 300 m 1,12,-1
 100 380 l 1,13,-1
 180 380 l 1,14,-1
 180 300 l 1,15,-1
 100 300 l 1,12,-1
200 300 m 1,16,-1
 200 380 l 1,17,-1
 280 380 l 1,18,-1
 280 300 l 1,19,-1
 200 300 l 1,16,-1
300 300 m 1,20,-1
 300 380 l 1,21,-1
 380 380 l 1,22,-1
 380 300 l 1,23,-1
 300 300 l 1,20,-1
200 200 m 1,24,-1
 200 280 l 1,25,-1
 280 280 l 1,26,-1
 280 200 l 1,27,-1
 200 200 l 1,24,-1
100 100 m 1,28,-1
 100 180 l 1,29,-1
 180 180 l 1,30,-1
 180 100 l 1,31,-1
 100 100 l 1,28,-1
EndSplineSet
EndChar

StartChar: left
Encoding: 8592 8592 14
Width: 500
VWidth: 0
LayerCount: 2
Fore
SplineSet
200 500 m 1,0,-1
 200 580 l 1,1,-1
 280 580 l 1,2,-1
 280 500 l 1,3,-1
 200 500 l 1,0,-1
100 400 m 1,4,-1
 100 480 l 1,5,-1
 180 480 l 1,6,-1
 180 400 l 1,7,-1
 100 400 l 1,4,-1
0 300 m 1,8,-1
 0 380 l 1,9,-1
 80 380 l 1,10,-1
 80 300 l 1,11,-1
 0 300 l 1,8,-1
100 300 m 1,12,-1
 100 380 l 1,13,-1
 180 380 l 1,14,-1
 180 300 l 1,15,-1
 100 300 l 1,12,-1
200 300 m 1,16,-1
 200 380 l 1,17,-1
 280 380 l 1,18,-1
 280 300 l 1,19,-1
 200 300 l 1,16,-1
300 300 m 1,20,-1
 300 380 l 1,21,-1
 380 380 l 1,22,-1
 380 300 l 1,23,-1
 300 300 l 1,20,-1
100 200 m 1,24,-1
 100 280 l 1,25,-1
 180 280 l 1,26,-1
 180 200 l 1,27,-1
 100 200 l 1,24,-1
200 100 m 1,28,-1
 200 180 l 1,29,-1
 280 180 l 1,30,-1
 280 100 l 1,31,-1
 200 100 l 1,28,-1
EndSplineSet
EndChar

StartChar: down
Encoding: 8595 8595 15
Width: 400
VWidth: 0
LayerCount: 2
Fore
SplineSet
100 500 m 1,0,-1
 100 580 l 1,1,-1
 180 580 l 1,2,-1
 180 500 l 1,3,-1
 100 500 l 1,0,-1
100 400 m 1,4,-1
 100 480 l 1,5,-1
 180 480 l 1,6,-1
 180 400 l 1,7,-1
 100 400 l 1,4,-1
100 300 m 1,8,-1
 100 380 l 1,9,-1
 180 380 l 1,10,-1
 180 300 l 1,11,-1
 100 300 l 1,8,-1
0 200 m 1,12,-1
 0 280 l 1,13,-1
 80 280 l 1,14,-1
 80 200 l 1,15,-1
 0 200 l 1,12,-1
100 200 m 1,16,-1
 100 280 l 1,17,-1
 180 280 l 1,18,-1
 180 200 l 1,19,-1
 100 200 l 1,16,-1
200 200 m 1,20,-1
 200 280 l 1,21,-1
 280 280 l 1,22,-1
 280 200 l 1,23,-1
 200 200 l 1,20,-1
100 100 m 1,24,-1
 100 180 l 1,25,-1
 180 180 l 1,26,-1
 180 100 l 1,27,-1
 100 100 l 1,24,-1
EndSplineSet
EndChar

StartChar: up
Encoding: 8593 8593 16
Width: 400
VWidth: 0
LayerCount: 2
Fore
SplineSet
100 500 m 1,0,-1
 100 580 l 1,1,-1
 180 580 l 1,2,-1
 180 500 l 1,3,-1
 100 500 l 1,0,-1
0 400 m 1,4,-1
 0 480 l 1,5,-1
 80 480 l 1,6,-1
 80 400 l 1,7,-1
 0 400 l 1,4,-1
100 400 m 1,8,-1
 100 480 l 1,9,-1
 180 480 l 1,10,-1
 180 400 l 1,11,-1
 100 400 l 1,8,-1
200 400 m 1,12,-1
 200 480 l 1,13,-1
 280 480 l 1,14,-1
 280 400 l 1,15,-1
 200 400 l 1,12,-1
100 300 m 1,16,-1
 100 380 l 1,17,-1
 180 380 l 1,18,-1
 180 300 l 1,19,-1
 100 300 l 1,16,-1
100 200 m 1,20,-1
 100 280 l 1,21,-1
 180 280 l 1,22,-1
 180 200 l 1,23,-1
 100 200 l 1,20,-1
100 100 m 1,24,-1
 100 180 l 1,25,-1
 180 180 l 1,26,-1
 180 100 l 1,27,-1
 100 100 l 1,24,-1
EndSplineSet
EndChar

StartChar: fshift
Encoding: 57347 57347 17
Width: 400
VWidth: 0
LayerCount: 2
Fore
SplineSet
100 500 m 1,0,-1
 100 580 l 1,1,-1
 180 580 l 1,2,-1
 180 500 l 1,3,-1
 100 500 l 1,0,-1
200 500 m 1,4,-1
 200 580 l 1,5,-1
 280 580 l 1,6,-1
 280 500 l 1,7,-1
 200 500 l 1,4,-1
100 400 m 1,8,-1
 100 480 l 1,9,-1
 180 480 l 1,10,-1
 180 400 l 1,11,-1
 100 400 l 1,8,-1
0 300 m 1,12,-1
 0 380 l 1,13,-1
 80 380 l 1,14,-1
 80 300 l 1,15,-1
 0 300 l 1,12,-1
100 300 m 1,16,-1
 100 380 l 1,17,-1
 180 380 l 1,18,-1
 180 300 l 1,19,-1
 100 300 l 1,16,-1
200 300 m 1,20,-1
 200 380 l 1,21,-1
 280 380 l 1,22,-1
 280 300 l 1,23,-1
 200 300 l 1,20,-1
100 200 m 1,24,-1
 100 280 l 1,25,-1
 180 280 l 1,26,-1
 180 200 l 1,27,-1
 100 200 l 1,24,-1
EndSplineSet
EndChar

StartChar: gshift
Encoding: 57348 57348 18
Width: 400
VWidth: 0
LayerCount: 2
Fore
SplineSet
0 500 m 1,0,-1
 0 580 l 1,1,-1
 80 580 l 1,2,-1
 80 500 l 1,3,-1
 0 500 l 1,0,-1
100 500 m 1,4,-1
 100 580 l 1,5,-1
 180 580 l 1,6,-1
 180 500 l 1,7,-1
 100 500 l 1,4,-1
200 500 m 1,8,-1
 200 580 l 1,9,-1
 280 580 l 1,10,-1
 280 500 l 1,11,-1
 200 500 l 1,8,-1
0 400 m 1,12,-1
 0 480 l 1,13,-1
 80 480 l 1,14,-1
 80 400 l 1,15,-1
 0 400 l 1,12,-1
100 400 m 1,16,-1
 100 480 l 1,17,-1
 180 480 l 1,18,-1
 180 400 l 1,19,-1
 100 400 l 1,16,-1
200 400 m 1,20,-1
 200 480 l 1,21,-1
 280 480 l 1,22,-1
 280 400 l 1,23,-1
 200 400 l 1,20,-1
200 300 m 1,24,-1
 200 380 l 1,25,-1
 280 380 l 1,26,-1
 280 300 l 1,27,-1
 200 300 l 1,24,-1
0 200 m 1,28,-1
 0 280 l 1,29,-1
 80 280 l 1,30,-1
 80 200 l 1,31,-1
 0 200 l 1,28,-1
100 200 m 1,32,-1
 100 280 l 1,33,-1
 180 280 l 1,34,-1
 180 200 l 1,35,-1
 100 200 l 1,32,-1
EndSplineSet
EndChar

StartChar: hshift
Encoding: 57349 57349 19
Width: 400
VWidth: 0
LayerCount: 2
Fore
SplineSet
0 500 m 1,0,-1
 0 580 l 1,1,-1
 80 580 l 1,2,-1
 80 500 l 1,3,-1
 0 500 l 1,0,-1
0 400 m 1,4,-1
 0 480 l 1,5,-1
 80 480 l 1,6,-1
 80 400 l 1,7,-1
 0 400 l 1,4,-1
100 400 m 1,8,-1
 100 480 l 1,9,-1
 180 480 l 1,10,-1
 180 400 l 1,11,-1
 100 400 l 1,8,-1
200 400 m 1,12,-1
 200 480 l 1,13,-1
 280 480 l 1,14,-1
 280 400 l 1,15,-1
 200 400 l 1,12,-1
0 300 m 1,16,-1
 0 380 l 1,17,-1
 80 380 l 1,18,-1
 80 300 l 1,19,-1
 0 300 l 1,16,-1
200 300 m 1,20,-1
 200 380 l 1,21,-1
 280 380 l 1,22,-1
 280 300 l 1,23,-1
 200 300 l 1,20,-1
EndSplineSet
EndChar

StartChar: cmplx
Encoding: 57350 57350 20
Width: 300
VWidth: 0
LayerCount: 2
Fore
SplineSet
0 500 m 1,0,-1
 0 580 l 1,1,-1
 80 580 l 1,2,-1
 80 500 l 1,3,-1
 0 500 l 1,0,-1
100 500 m 1,4,-1
 100 580 l 1,5,-1
 180 580 l 1,6,-1
 180 500 l 1,7,-1
 100 500 l 1,4,-1
0 400 m 1,8,-1
 0 480 l 1,9,-1
 80 480 l 1,10,-1
 80 400 l 1,11,-1
 0 400 l 1,8,-1
0 300 m 1,12,-1
 0 380 l 1,13,-1
 80 380 l 1,14,-1
 80 300 l 1,15,-1
 0 300 l 1,12,-1
100 300 m 1,16,-1
 100 380 l 1,17,-1
 180 380 l 1,18,-1
 180 300 l 1,19,-1
 100 300 l 1,16,-1
EndSplineSet
EndChar

StartChar: Oslash
Encoding: 216 216 21
Width: 600
VWidth: 0
LayerCount: 2
Fore
SplineSet
300 200 m 1,0,-1
 300 280 l 1,1,-1
 380 280 l 1,2,-1
 380 200 l 1,3,-1
 300 200 l 1,0,-1
0 100 m 1,4,-1
 0 180 l 1,5,-1
 80 180 l 1,6,-1
 80 100 l 1,7,-1
 0 100 l 1,4,-1
100 100 m 1,8,-1
 100 180 l 1,9,-1
 180 180 l 1,10,-1
 180 100 l 1,11,-1
 100 100 l 1,8,-1
200 100 m 1,12,-1
 200 180 l 1,13,-1
 280 180 l 1,14,-1
 280 100 l 1,15,-1
 200 100 l 1,12,-1
300 100 m 1,16,-1
 300 180 l 1,17,-1
 380 180 l 1,18,-1
 380 100 l 1,19,-1
 300 100 l 1,16,-1
400 100 m 1,20,-1
 400 180 l 1,21,-1
 480 180 l 1,22,-1
 480 100 l 1,23,-1
 400 100 l 1,20,-1
300 0 m 1,24,-1
 300 80 l 1,25,-1
 380 80 l 1,26,-1
 380 0 l 1,27,-1
 300 0 l 1,24,-1
EndSplineSet
EndChar

StartChar: oslash
Encoding: 248 248 22
Width: 600
VWidth: 0
LayerCount: 2
Fore
SplineSet
100 500 m 1,0,-1
 100 580 l 1,1,-1
 180 580 l 1,2,-1
 180 500 l 1,3,-1
 100 500 l 1,0,-1
0 400 m 1,4,-1
 0 480 l 1,5,-1
 80 480 l 1,6,-1
 80 400 l 1,7,-1
 0 400 l 1,4,-1
100 400 m 1,8,-1
 100 480 l 1,9,-1
 180 480 l 1,10,-1
 180 400 l 1,11,-1
 100 400 l 1,8,-1
200 400 m 1,12,-1
 200 480 l 1,13,-1
 280 480 l 1,14,-1
 280 400 l 1,15,-1
 200 400 l 1,12,-1
300 400 m 1,16,-1
 300 480 l 1,17,-1
 380 480 l 1,18,-1
 380 400 l 1,19,-1
 300 400 l 1,16,-1
400 400 m 1,20,-1
 400 480 l 1,21,-1
 480 480 l 1,22,-1
 480 400 l 1,23,-1
 400 400 l 1,20,-1
100 300 m 1,24,-1
 100 380 l 1,25,-1
 180 380 l 1,26,-1
 180 300 l 1,27,-1
 100 300 l 1,24,-1
EndSplineSet
EndChar

StartChar: exchange
Encoding: 8646 8646 23
Width: 600
VWidth: 0
LayerCount: 2
Fore
SplineSet
100 500 m 1,0,-1
 100 580 l 1,1,-1
 180 580 l 1,2,-1
 180 500 l 1,3,-1
 100 500 l 1,0,-1
0 400 m 1,4,-1
 0 480 l 1,5,-1
 80 480 l 1,6,-1
 80 400 l 1,7,-1
 0 400 l 1,4,-1
100 400 m 1,8,-1
 100 480 l 1,9,-1
 180 480 l 1,10,-1
 180 400 l 1,11,-1
 100 400 l 1,8,-1
200 400 m 1,12,-1
 200 480 l 1,13,-1
 280 480 l 1,14,-1
 280 400 l 1,15,-1
 200 400 l 1,12,-1
300 400 m 1,16,-1
 300 480 l 1,17,-1
 380 480 l 1,18,-1
 380 400 l 1,19,-1
 300 400 l 1,16,-1
400 400 m 1,20,-1
 400 480 l 1,21,-1
 480 480 l 1,22,-1
 480 400 l 1,23,-1
 400 400 l 1,20,-1
100 300 m 1,24,-1
 100 380 l 1,25,-1
 180 380 l 1,26,-1
 180 300 l 1,27,-1
 100 300 l 1,24,-1
300 200 m 1,28,-1
 300 280 l 1,29,-1
 380 280 l 1,30,-1
 380 200 l 1,31,-1
 300 200 l 1,28,-1
0 100 m 1,32,-1
 0 180 l 1,33,-1
 80 180 l 1,34,-1
 80 100 l 1,35,-1
 0 100 l 1,32,-1
100 100 m 1,36,-1
 100 180 l 1,37,-1
 180 180 l 1,38,-1
 180 100 l 1,39,-1
 100 100 l 1,36,-1
200 100 m 1,40,-1
 200 180 l 1,41,-1
 280 180 l 1,42,-1
 280 100 l 1,43,-1
 200 100 l 1,40,-1
300 100 m 1,44,-1
 300 180 l 1,45,-1
 380 180 l 1,46,-1
 380 100 l 1,47,-1
 300 100 l 1,44,-1
400 100 m 1,48,-1
 400 180 l 1,49,-1
 480 180 l 1,50,-1
 480 100 l 1,51,-1
 400 100 l 1,48,-1
300 0 m 1,52,-1
 300 80 l 1,53,-1
 380 80 l 1,54,-1
 380 0 l 1,55,-1
 300 0 l 1,52,-1
EndSplineSet
EndChar

StartChar: sz
Encoding: 223 223 24
Width: 400
VWidth: 0
LayerCount: 2
Fore
SplineSet
0 500 m 1,0,-1
 0 580 l 1,1,-1
 80 580 l 1,2,-1
 80 500 l 1,3,-1
 0 500 l 1,0,-1
100 500 m 1,4,-1
 100 580 l 1,5,-1
 180 580 l 1,6,-1
 180 500 l 1,7,-1
 100 500 l 1,4,-1
0 400 m 1,8,-1
 0 480 l 1,9,-1
 80 480 l 1,10,-1
 80 400 l 1,11,-1
 0 400 l 1,8,-1
200 400 m 1,12,-1
 200 480 l 1,13,-1
 280 480 l 1,14,-1
 280 400 l 1,15,-1
 200 400 l 1,12,-1
0 300 m 1,16,-1
 0 380 l 1,17,-1
 80 380 l 1,18,-1
 80 300 l 1,19,-1
 0 300 l 1,16,-1
100 300 m 1,20,-1
 100 380 l 1,21,-1
 180 380 l 1,22,-1
 180 300 l 1,23,-1
 100 300 l 1,20,-1
0 200 m 1,24,-1
 0 280 l 1,25,-1
 80 280 l 1,26,-1
 80 200 l 1,27,-1
 0 200 l 1,24,-1
200 200 m 1,28,-1
 200 280 l 1,29,-1
 280 280 l 1,30,-1
 280 200 l 1,31,-1
 200 200 l 1,28,-1
0 100 m 1,32,-1
 0 180 l 1,33,-1
 80 180 l 1,34,-1
 80 100 l 1,35,-1
 0 100 l 1,32,-1
100 100 m 1,36,-1
 100 180 l 1,37,-1
 180 180 l 1,38,-1
 180 100 l 1,39,-1
 100 100 l 1,36,-1
200 100 m 1,40,-1
 200 180 l 1,41,-1
 280 180 l 1,42,-1
 280 100 l 1,43,-1
 200 100 l 1,40,-1
0 0 m 1,44,-1
 0 80 l 1,45,-1
 80 80 l 1,46,-1
 80 0 l 1,47,-1
 0 0 l 1,44,-1
EndSplineSet
EndChar

StartChar: xhat
Encoding: 57351 57351 25
Width: 400
VWidth: 0
LayerCount: 2
Fore
SplineSet
100 500 m 1,0,-1
 100 580 l 1,1,-1
 180 580 l 1,2,-1
 180 500 l 1,3,-1
 100 500 l 1,0,-1
0 400 m 1,4,-1
 0 480 l 1,5,-1
 80 480 l 1,6,-1
 80 400 l 1,7,-1
 0 400 l 1,4,-1
200 400 m 1,8,-1
 200 480 l 1,9,-1
 280 480 l 1,10,-1
 280 400 l 1,11,-1
 200 400 l 1,8,-1
0 200 m 1,12,-1
 0 280 l 1,13,-1
 80 280 l 1,14,-1
 80 200 l 1,15,-1
 0 200 l 1,12,-1
200 200 m 1,16,-1
 200 280 l 1,17,-1
 280 280 l 1,18,-1
 280 200 l 1,19,-1
 200 200 l 1,16,-1
100 100 m 1,20,-1
 100 180 l 1,21,-1
 180 180 l 1,22,-1
 180 100 l 1,23,-1
 100 100 l 1,20,-1
0 0 m 1,24,-1
 0 80 l 1,25,-1
 80 80 l 1,26,-1
 80 0 l 1,27,-1
 0 0 l 1,24,-1
200 0 m 1,28,-1
 200 80 l 1,29,-1
 280 80 l 1,30,-1
 280 0 l 1,31,-1
 200 0 l 1,28,-1
EndSplineSet
EndChar

StartChar: yhat
Encoding: 375 375 26
Width: 400
VWidth: 0
LayerCount: 2
Fore
SplineSet
100 500 m 1,0,-1
 100 580 l 1,1,-1
 180 580 l 1,2,-1
 180 500 l 1,3,-1
 100 500 l 1,0,-1
0 400 m 1,4,-1
 0 480 l 1,5,-1
 80 480 l 1,6,-1
 80 400 l 1,7,-1
 0 400 l 1,4,-1
200 400 m 1,8,-1
 200 480 l 1,9,-1
 280 480 l 1,10,-1
 280 400 l 1,11,-1
 200 400 l 1,8,-1
0 200 m 1,12,-1
 0 280 l 1,13,-1
 80 280 l 1,14,-1
 80 200 l 1,15,-1
 0 200 l 1,12,-1
200 200 m 1,16,-1
 200 280 l 1,17,-1
 280 280 l 1,18,-1
 280 200 l 1,19,-1
 200 200 l 1,16,-1
100 100 m 1,20,-1
 100 180 l 1,21,-1
 180 180 l 1,22,-1
 180 100 l 1,23,-1
 100 100 l 1,20,-1
100 0 m 1,24,-1
 100 80 l 1,25,-1
 180 80 l 1,26,-1
 180 0 l 1,27,-1
 100 0 l 1,24,-1
EndSplineSet
EndChar

StartChar: subm
Encoding: 8344 8344 27
Width: 600
VWidth: 0
LayerCount: 2
Fore
SplineSet
0 100 m 1,0,-1
 0 180 l 1,1,-1
 80 180 l 1,2,-1
 80 100 l 1,3,-1
 0 100 l 1,0,-1
100 100 m 1,4,-1
 100 180 l 1,5,-1
 180 180 l 1,6,-1
 180 100 l 1,7,-1
 100 100 l 1,4,-1
200 100 m 1,8,-1
 200 180 l 1,9,-1
 280 180 l 1,10,-1
 280 100 l 1,11,-1
 200 100 l 1,8,-1
300 100 m 1,12,-1
 300 180 l 1,13,-1
 380 180 l 1,14,-1
 380 100 l 1,15,-1
 300 100 l 1,12,-1
400 100 m 1,16,-1
 400 180 l 1,17,-1
 480 180 l 1,18,-1
 480 100 l 1,19,-1
 400 100 l 1,16,-1
0 0 m 1,20,-1
 0 80 l 1,21,-1
 80 80 l 1,22,-1
 80 0 l 1,23,-1
 0 0 l 1,20,-1
200 0 m 1,24,-1
 200 80 l 1,25,-1
 280 80 l 1,26,-1
 280 0 l 1,27,-1
 200 0 l 1,24,-1
400 0 m 1,28,-1
 400 80 l 1,29,-1
 480 80 l 1,30,-1
 480 0 l 1,31,-1
 400 0 l 1,28,-1
EndSplineSet
EndChar

StartChar: times
Encoding: 215 215 28
Width: 400
VWidth: 0
LayerCount: 2
Fore
SplineSet
0 400 m 1,0,-1
 0 480 l 1,1,-1
 80 480 l 1,2,-1
 80 400 l 1,3,-1
 0 400 l 1,0,-1
200 400 m 1,4,-1
 200 480 l 1,5,-1
 280 480 l 1,6,-1
 280 400 l 1,7,-1
 200 400 l 1,4,-1
100 300 m 1,8,-1
 100 380 l 1,9,-1
 180 380 l 1,10,-1
 180 300 l 1,11,-1
 100 300 l 1,8,-1
0 200 m 1,12,-1
 0 280 l 1,13,-1
 80 280 l 1,14,-1
 80 200 l 1,15,-1
 0 200 l 1,12,-1
200 200 m 1,16,-1
 200 280 l 1,17,-1
 280 280 l 1,18,-1
 280 200 l 1,19,-1
 200 200 l 1,16,-1
EndSplineSet
EndChar

StartChar: approx
Encoding: 8776 8776 29
Width: 500
VWidth: 0
LayerCount: 2
Fore
SplineSet
100 500 m 1,0,-1
 100 580 l 1,1,-1
 180 580 l 1,2,-1
 180 500 l 1,3,-1
 100 500 l 1,0,-1
300 500 m 1,4,-1
 300 580 l 1,5,-1
 380 580 l 1,6,-1
 380 500 l 1,7,-1
 300 500 l 1,4,-1
0 400 m 1,8,-1
 0 480 l 1,9,-1
 80 480 l 1,10,-1
 80 400 l 1,11,-1
 0 400 l 1,8,-1
200 400 m 1,12,-1
 200 480 l 1,13,-1
 280 480 l 1,14,-1
 280 400 l 1,15,-1
 200 400 l 1,12,-1
100 200 m 1,16,-1
 100 280 l 1,17,-1
 180 280 l 1,18,-1
 180 200 l 1,19,-1
 100 200 l 1,16,-1
300 200 m 1,20,-1
 300 280 l 1,21,-1
 380 280 l 1,22,-1
 380 200 l 1,23,-1
 300 200 l 1,20,-1
0 100 m 1,24,-1
 0 180 l 1,25,-1
 80 180 l 1,26,-1
 80 100 l 1,27,-1
 0 100 l 1,24,-1
200 100 m 1,28,-1
 200 180 l 1,29,-1
 280 180 l 1,30,-1
 280 100 l 1,31,-1
 200 100 l 1,28,-1
EndSplineSet
EndChar

StartChar: pound
Encoding: 163 163 30
Width: 500
VWidth: 0
LayerCount: 2
Fore
SplineSet
100 500 m 1,0,-1
 100 580 l 1,1,-1
 180 580 l 1,2,-1
 180 500 l 1,3,-1
 100 500 l 1,0,-1
200 500 m 1,4,-1
 200 580 l 1,5,-1
 280 580 l 1,6,-1
 280 500 l 1,7,-1
 200 500 l 1,4,-1
100 400 m 1,8,-1
 100 480 l 1,9,-1
 180 480 l 1,10,-1
 180 400 l 1,11,-1
 100 400 l 1,8,-1
0 300 m 1,12,-1
 0 380 l 1,13,-1
 80 380 l 1,14,-1
 80 300 l 1,15,-1
 0 300 l 1,12,-1
100 300 m 1,16,-1
 100 380 l 1,17,-1
 180 380 l 1,18,-1
 180 300 l 1,19,-1
 100 300 l 1,16,-1
200 300 m 1,20,-1
 200 380 l 1,21,-1
 280 380 l 1,22,-1
 280 300 l 1,23,-1
 200 300 l 1,20,-1
100 200 m 1,24,-1
 100 280 l 1,25,-1
 180 280 l 1,26,-1
 180 200 l 1,27,-1
 100 200 l 1,24,-1
0 100 m 1,28,-1
 0 180 l 1,29,-1
 80 180 l 1,30,-1
 80 100 l 1,31,-1
 0 100 l 1,28,-1
100 100 m 1,32,-1
 100 180 l 1,33,-1
 180 180 l 1,34,-1
 180 100 l 1,35,-1
 100 100 l 1,32,-1
200 100 m 1,36,-1
 200 180 l 1,37,-1
 280 180 l 1,38,-1
 280 100 l 1,39,-1
 200 100 l 1,36,-1
300 100 m 1,40,-1
 300 180 l 1,41,-1
 380 180 l 1,42,-1
 380 100 l 1,43,-1
 300 100 l 1,40,-1
EndSplineSet
EndChar

StartChar: yen
Encoding: 165 165 31
Width: 600
VWidth: 0
LayerCount: 2
Fore
SplineSet
0 500 m 1,0,-1
 0 580 l 1,1,-1
 80 580 l 1,2,-1
 80 500 l 1,3,-1
 0 500 l 1,0,-1
400 500 m 1,4,-1
 400 580 l 1,5,-1
 480 580 l 1,6,-1
 480 500 l 1,7,-1
 400 500 l 1,4,-1
100 400 m 1,8,-1
 100 480 l 1,9,-1
 180 480 l 1,10,-1
 180 400 l 1,11,-1
 100 400 l 1,8,-1
200 400 m 1,12,-1
 200 480 l 1,13,-1
 280 480 l 1,14,-1
 280 400 l 1,15,-1
 200 400 l 1,12,-1
300 400 m 1,16,-1
 300 480 l 1,17,-1
 380 480 l 1,18,-1
 380 400 l 1,19,-1
 300 400 l 1,16,-1
200 300 m 1,20,-1
 200 380 l 1,21,-1
 280 380 l 1,22,-1
 280 300 l 1,23,-1
 200 300 l 1,20,-1
100 200 m 1,24,-1
 100 280 l 1,25,-1
 180 280 l 1,26,-1
 180 200 l 1,27,-1
 100 200 l 1,24,-1
200 200 m 1,28,-1
 200 280 l 1,29,-1
 280 280 l 1,30,-1
 280 200 l 1,31,-1
 200 200 l 1,28,-1
300 200 m 1,32,-1
 300 280 l 1,33,-1
 380 280 l 1,34,-1
 380 200 l 1,35,-1
 300 200 l 1,32,-1
200 100 m 1,36,-1
 200 180 l 1,37,-1
 280 180 l 1,38,-1
 280 100 l 1,39,-1
 200 100 l 1,36,-1
EndSplineSet
EndChar

StartChar: space
Encoding: 32 32 32
Width: 200
VWidth: 0
LayerCount: 2
Fore
SplineSet
-1 801 m 1,0,-1
 -1 801 l 1,0,-1
EndSplineSet
EndChar

StartChar: exclam
Encoding: 33 33 33
Width: 200
VWidth: 0
LayerCount: 2
Fore
SplineSet
0 500 m 1,0,-1
 0 580 l 1,1,-1
 80 580 l 1,2,-1
 80 500 l 1,3,-1
 0 500 l 1,0,-1
0 400 m 1,4,-1
 0 480 l 1,5,-1
 80 480 l 1,6,-1
 80 400 l 1,7,-1
 0 400 l 1,4,-1
0 300 m 1,8,-1
 0 380 l 1,9,-1
 80 380 l 1,10,-1
 80 300 l 1,11,-1
 0 300 l 1,8,-1
0 100 m 1,12,-1
 0 180 l 1,13,-1
 80 180 l 1,14,-1
 80 100 l 1,15,-1
 0 100 l 1,12,-1
EndSplineSet
EndChar

StartChar: quotedbl
Encoding: 34 34 34
Width: 400
VWidth: 0
LayerCount: 2
Fore
SplineSet
0 500 m 1,0,-1
 0 580 l 1,1,-1
 80 580 l 1,2,-1
 80 500 l 1,3,-1
 0 500 l 1,0,-1
200 500 m 1,4,-1
 200 580 l 1,5,-1
 280 580 l 1,6,-1
 280 500 l 1,7,-1
 200 500 l 1,4,-1
0 400 m 1,8,-1
 0 480 l 1,9,-1
 80 480 l 1,10,-1
 80 400 l 1,11,-1
 0 400 l 1,8,-1
200 400 m 1,12,-1
 200 480 l 1,13,-1
 280 480 l 1,14,-1
 280 400 l 1,15,-1
 200 400 l 1,12,-1
EndSplineSet
EndChar

StartChar: numbersign
Encoding: 35 35 35
Width: 600
VWidth: 0
LayerCount: 2
Fore
SplineSet
100 500 m 1,0,-1
 100 580 l 1,1,-1
 180 580 l 1,2,-1
 180 500 l 1,3,-1
 100 500 l 1,0,-1
300 500 m 1,4,-1
 300 580 l 1,5,-1
 380 580 l 1,6,-1
 380 500 l 1,7,-1
 300 500 l 1,4,-1
0 400 m 1,8,-1
 0 480 l 1,9,-1
 80 480 l 1,10,-1
 80 400 l 1,11,-1
 0 400 l 1,8,-1
100 400 m 1,12,-1
 100 480 l 1,13,-1
 180 480 l 1,14,-1
 180 400 l 1,15,-1
 100 400 l 1,12,-1
200 400 m 1,16,-1
 200 480 l 1,17,-1
 280 480 l 1,18,-1
 280 400 l 1,19,-1
 200 400 l 1,16,-1
300 400 m 1,20,-1
 300 480 l 1,21,-1
 380 480 l 1,22,-1
 380 400 l 1,23,-1
 300 400 l 1,20,-1
400 400 m 1,24,-1
 400 480 l 1,25,-1
 480 480 l 1,26,-1
 480 400 l 1,27,-1
 400 400 l 1,24,-1
100 300 m 1,28,-1
 100 380 l 1,29,-1
 180 380 l 1,30,-1
 180 300 l 1,31,-1
 100 300 l 1,28,-1
300 300 m 1,32,-1
 300 380 l 1,33,-1
 380 380 l 1,34,-1
 380 300 l 1,35,-1
 300 300 l 1,32,-1
0 200 m 1,36,-1
 0 280 l 1,37,-1
 80 280 l 1,38,-1
 80 200 l 1,39,-1
 0 200 l 1,36,-1
100 200 m 1,40,-1
 100 280 l 1,41,-1
 180 280 l 1,42,-1
 180 200 l 1,43,-1
 100 200 l 1,40,-1
200 200 m 1,44,-1
 200 280 l 1,45,-1
 280 280 l 1,46,-1
 280 200 l 1,47,-1
 200 200 l 1,44,-1
300 200 m 1,48,-1
 300 280 l 1,49,-1
 380 280 l 1,50,-1
 380 200 l 1,51,-1
 300 200 l 1,48,-1
400 200 m 1,52,-1
 400 280 l 1,53,-1
 480 280 l 1,54,-1
 480 200 l 1,55,-1
 400 200 l 1,52,-1
100 100 m 1,56,-1
 100 180 l 1,57,-1
 180 180 l 1,58,-1
 180 100 l 1,59,-1
 100 100 l 1,56,-1
300 100 m 1,60,-1
 300 180 l 1,61,-1
 380 180 l 1,62,-1
 380 100 l 1,63,-1
 300 100 l 1,60,-1
EndSplineSet
EndChar

StartChar: dollar
Encoding: 36 36 36
Width: 600
VWidth: 0
LayerCount: 2
Fore
SplineSet
100 500 m 1,0,-1
 100 580 l 1,1,-1
 180 580 l 1,2,-1
 180 500 l 1,3,-1
 100 500 l 1,0,-1
200 500 m 1,4,-1
 200 580 l 1,5,-1
 280 580 l 1,6,-1
 280 500 l 1,7,-1
 200 500 l 1,4,-1
300 500 m 1,8,-1
 300 580 l 1,9,-1
 380 580 l 1,10,-1
 380 500 l 1,11,-1
 300 500 l 1,8,-1
400 500 m 1,12,-1
 400 580 l 1,13,-1
 480 580 l 1,14,-1
 480 500 l 1,15,-1
 400 500 l 1,12,-1
0 400 m 1,16,-1
 0 480 l 1,17,-1
 80 480 l 1,18,-1
 80 400 l 1,19,-1
 0 400 l 1,16,-1
200 400 m 1,20,-1
 200 480 l 1,21,-1
 280 480 l 1,22,-1
 280 400 l 1,23,-1
 200 400 l 1,20,-1
100 300 m 1,24,-1
 100 380 l 1,25,-1
 180 380 l 1,26,-1
 180 300 l 1,27,-1
 100 300 l 1,24,-1
200 300 m 1,28,-1
 200 380 l 1,29,-1
 280 380 l 1,30,-1
 280 300 l 1,31,-1
 200 300 l 1,28,-1
300 300 m 1,32,-1
 300 380 l 1,33,-1
 380 380 l 1,34,-1
 380 300 l 1,35,-1
 300 300 l 1,32,-1
200 200 m 1,36,-1
 200 280 l 1,37,-1
 280 280 l 1,38,-1
 280 200 l 1,39,-1
 200 200 l 1,36,-1
400 200 m 1,40,-1
 400 280 l 1,41,-1
 480 280 l 1,42,-1
 480 200 l 1,43,-1
 400 200 l 1,40,-1
0 100 m 1,44,-1
 0 180 l 1,45,-1
 80 180 l 1,46,-1
 80 100 l 1,47,-1
 0 100 l 1,44,-1
100 100 m 1,48,-1
 100 180 l 1,49,-1
 180 180 l 1,50,-1
 180 100 l 1,51,-1
 100 100 l 1,48,-1
200 100 m 1,52,-1
 200 180 l 1,53,-1
 280 180 l 1,54,-1
 280 100 l 1,55,-1
 200 100 l 1,52,-1
300 100 m 1,56,-1
 300 180 l 1,57,-1
 380 180 l 1,58,-1
 380 100 l 1,59,-1
 300 100 l 1,56,-1
EndSplineSet
EndChar

StartChar: percent
Encoding: 37 37 37
Width: 400
VWidth: 0
LayerCount: 2
Fore
SplineSet
0 500 m 1,0,-1
 0 580 l 1,1,-1
 80 580 l 1,2,-1
 80 500 l 1,3,-1
 0 500 l 1,0,-1
200 400 m 1,4,-1
 200 480 l 1,5,-1
 280 480 l 1,6,-1
 280 400 l 1,7,-1
 200 400 l 1,4,-1
100 300 m 1,8,-1
 100 380 l 1,9,-1
 180 380 l 1,10,-1
 180 300 l 1,11,-1
 100 300 l 1,8,-1
0 200 m 1,12,-1
 0 280 l 1,13,-1
 80 280 l 1,14,-1
 80 200 l 1,15,-1
 0 200 l 1,12,-1
200 100 m 1,16,-1
 200 180 l 1,17,-1
 280 180 l 1,18,-1
 280 100 l 1,19,-1
 200 100 l 1,16,-1
EndSplineSet
EndChar

StartChar: ampersand
Encoding: 38 38 38
Width: 500
VWidth: 0
LayerCount: 2
Fore
SplineSet
0 500 m 1,0,-1
 0 580 l 1,1,-1
 80 580 l 1,2,-1
 80 500 l 1,3,-1
 0 500 l 1,0,-1
100 500 m 1,4,-1
 100 580 l 1,5,-1
 180 580 l 1,6,-1
 180 500 l 1,7,-1
 100 500 l 1,4,-1
200 500 m 1,8,-1
 200 580 l 1,9,-1
 280 580 l 1,10,-1
 280 500 l 1,11,-1
 200 500 l 1,8,-1
0 400 m 1,12,-1
 0 480 l 1,13,-1
 80 480 l 1,14,-1
 80 400 l 1,15,-1
 0 400 l 1,12,-1
200 400 m 1,16,-1
 200 480 l 1,17,-1
 280 480 l 1,18,-1
 280 400 l 1,19,-1
 200 400 l 1,16,-1
100 300 m 1,20,-1
 100 380 l 1,21,-1
 180 380 l 1,22,-1
 180 300 l 1,23,-1
 100 300 l 1,20,-1
0 200 m 1,24,-1
 0 280 l 1,25,-1
 80 280 l 1,26,-1
 80 200 l 1,27,-1
 0 200 l 1,24,-1
200 200 m 1,28,-1
 200 280 l 1,29,-1
 280 280 l 1,30,-1
 280 200 l 1,31,-1
 200 200 l 1,28,-1
300 200 m 1,32,-1
 300 280 l 1,33,-1
 380 280 l 1,34,-1
 380 200 l 1,35,-1
 300 200 l 1,32,-1
0 100 m 1,36,-1
 0 180 l 1,37,-1
 80 180 l 1,38,-1
 80 100 l 1,39,-1
 0 100 l 1,36,-1
100 100 m 1,40,-1
 100 180 l 1,41,-1
 180 180 l 1,42,-1
 180 100 l 1,43,-1
 100 100 l 1,40,-1
200 100 m 1,44,-1
 200 180 l 1,45,-1
 280 180 l 1,46,-1
 280 100 l 1,47,-1
 200 100 l 1,44,-1
300 0 m 1,48,-1
 300 80 l 1,49,-1
 380 80 l 1,50,-1
 380 0 l 1,51,-1
 300 0 l 1,48,-1
EndSplineSet
EndChar

StartChar: quotesingle
Encoding: 39 39 39
Width: 200
VWidth: 0
LayerCount: 2
Fore
SplineSet
0 500 m 1,0,-1
 0 580 l 1,1,-1
 80 580 l 1,2,-1
 80 500 l 1,3,-1
 0 500 l 1,0,-1
0 400 m 1,4,-1
 0 480 l 1,5,-1
 80 480 l 1,6,-1
 80 400 l 1,7,-1
 0 400 l 1,4,-1
EndSplineSet
EndChar

StartChar: parenleft
Encoding: 40 40 40
Width: 300
VWidth: 0
LayerCount: 2
Fore
SplineSet
100 500 m 1,0,-1
 100 580 l 1,1,-1
 180 580 l 1,2,-1
 180 500 l 1,3,-1
 100 500 l 1,0,-1
0 400 m 1,4,-1
 0 480 l 1,5,-1
 80 480 l 1,6,-1
 80 400 l 1,7,-1
 0 400 l 1,4,-1
0 300 m 1,8,-1
 0 380 l 1,9,-1
 80 380 l 1,10,-1
 80 300 l 1,11,-1
 0 300 l 1,8,-1
0 200 m 1,12,-1
 0 280 l 1,13,-1
 80 280 l 1,14,-1
 80 200 l 1,15,-1
 0 200 l 1,12,-1
100 100 m 1,16,-1
 100 180 l 1,17,-1
 180 180 l 1,18,-1
 180 100 l 1,19,-1
 100 100 l 1,16,-1
EndSplineSet
EndChar

StartChar: parenright
Encoding: 41 41 41
Width: 300
VWidth: 0
LayerCount: 2
Fore
SplineSet
0 500 m 1,0,-1
 0 580 l 1,1,-1
 80 580 l 1,2,-1
 80 500 l 1,3,-1
 0 500 l 1,0,-1
100 400 m 1,4,-1
 100 480 l 1,5,-1
 180 480 l 1,6,-1
 180 400 l 1,7,-1
 100 400 l 1,4,-1
100 300 m 1,8,-1
 100 380 l 1,9,-1
 180 380 l 1,10,-1
 180 300 l 1,11,-1
 100 300 l 1,8,-1
100 200 m 1,12,-1
 100 280 l 1,13,-1
 180 280 l 1,14,-1
 180 200 l 1,15,-1
 100 200 l 1,12,-1
0 100 m 1,16,-1
 0 180 l 1,17,-1
 80 180 l 1,18,-1
 80 100 l 1,19,-1
 0 100 l 1,16,-1
EndSplineSet
EndChar

StartChar: asterisk
Encoding: 42 42 42
Width: 600
VWidth: 0
LayerCount: 2
Fore
SplineSet
100 500 m 1,0,-1
 100 580 l 1,1,-1
 180 580 l 1,2,-1
 180 500 l 1,3,-1
 100 500 l 1,0,-1
300 500 m 1,4,-1
 300 580 l 1,5,-1
 380 580 l 1,6,-1
 380 500 l 1,7,-1
 300 500 l 1,4,-1
200 400 m 1,8,-1
 200 480 l 1,9,-1
 280 480 l 1,10,-1
 280 400 l 1,11,-1
 200 400 l 1,8,-1
0 300 m 1,12,-1
 0 380 l 1,13,-1
 80 380 l 1,14,-1
 80 300 l 1,15,-1
 0 300 l 1,12,-1
100 300 m 1,16,-1
 100 380 l 1,17,-1
 180 380 l 1,18,-1
 180 300 l 1,19,-1
 100 300 l 1,16,-1
200 300 m 1,20,-1
 200 380 l 1,21,-1
 280 380 l 1,22,-1
 280 300 l 1,23,-1
 200 300 l 1,20,-1
300 300 m 1,24,-1
 300 380 l 1,25,-1
 380 380 l 1,26,-1
 380 300 l 1,27,-1
 300 300 l 1,24,-1
400 300 m 1,28,-1
 400 380 l 1,29,-1
 480 380 l 1,30,-1
 480 300 l 1,31,-1
 400 300 l 1,28,-1
200 200 m 1,32,-1
 200 280 l 1,33,-1
 280 280 l 1,34,-1
 280 200 l 1,35,-1
 200 200 l 1,32,-1
100 100 m 1,36,-1
 100 180 l 1,37,-1
 180 180 l 1,38,-1
 180 100 l 1,39,-1
 100 100 l 1,36,-1
300 100 m 1,40,-1
 300 180 l 1,41,-1
 380 180 l 1,42,-1
 380 100 l 1,43,-1
 300 100 l 1,40,-1
EndSplineSet
EndChar

StartChar: plus
Encoding: 43 43 43
Width: 400
VWidth: 0
LayerCount: 2
Fore
SplineSet
100 400 m 1,0,-1
 100 480 l 1,1,-1
 180 480 l 1,2,-1
 180 400 l 1,3,-1
 100 400 l 1,0,-1
0 300 m 1,4,-1
 0 380 l 1,5,-1
 80 380 l 1,6,-1
 80 300 l 1,7,-1
 0 300 l 1,4,-1
100 300 m 1,8,-1
 100 380 l 1,9,-1
 180 380 l 1,10,-1
 180 300 l 1,11,-1
 100 300 l 1,8,-1
200 300 m 1,12,-1
 200 380 l 1,13,-1
 280 380 l 1,14,-1
 280 300 l 1,15,-1
 200 300 l 1,12,-1
100 200 m 1,16,-1
 100 280 l 1,17,-1
 180 280 l 1,18,-1
 180 200 l 1,19,-1
 100 200 l 1,16,-1
EndSplineSet
EndChar

StartChar: comma
Encoding: 44 44 44
Width: 300
VWidth: 0
LayerCount: 2
Fore
SplineSet
100 100 m 1,0,-1
 100 180 l 1,1,-1
 180 180 l 1,2,-1
 180 100 l 1,3,-1
 100 100 l 1,0,-1
0 0 m 1,4,-1
 0 80 l 1,5,-1
 80 80 l 1,6,-1
 80 0 l 1,7,-1
 0 0 l 1,4,-1
EndSplineSet
EndChar

StartChar: hyphen
Encoding: 45 45 45
Width: 400
VWidth: 0
LayerCount: 2
Fore
SplineSet
0 300 m 1,0,-1
 0 380 l 1,1,-1
 80 380 l 1,2,-1
 80 300 l 1,3,-1
 0 300 l 1,0,-1
100 300 m 1,4,-1
 100 380 l 1,5,-1
 180 380 l 1,6,-1
 180 300 l 1,7,-1
 100 300 l 1,4,-1
200 300 m 1,8,-1
 200 380 l 1,9,-1
 280 380 l 1,10,-1
 280 300 l 1,11,-1
 200 300 l 1,8,-1
EndSplineSet
EndChar

StartChar: period
Encoding: 46 46 46
Width: 200
VWidth: 0
LayerCount: 2
Fore
SplineSet
0 100 m 1,0,-1
 0 180 l 1,1,-1
 80 180 l 1,2,-1
 80 100 l 1,3,-1
 0 100 l 1,0,-1
EndSplineSet
EndChar

StartChar: slash
Encoding: 47 47 47
Width: 400
VWidth: 0
LayerCount: 2
Fore
SplineSet
200 500 m 1,0,-1
 200 580 l 1,1,-1
 280 580 l 1,2,-1
 280 500 l 1,3,-1
 200 500 l 1,0,-1
200 400 m 1,4,-1
 200 480 l 1,5,-1
 280 480 l 1,6,-1
 280 400 l 1,7,-1
 200 400 l 1,4,-1
100 300 m 1,8,-1
 100 380 l 1,9,-1
 180 380 l 1,10,-1
 180 300 l 1,11,-1
 100 300 l 1,8,-1
100 200 m 1,12,-1
 100 280 l 1,13,-1
 180 280 l 1,14,-1
 180 200 l 1,15,-1
 100 200 l 1,12,-1
0 100 m 1,16,-1
 0 180 l 1,17,-1
 80 180 l 1,18,-1
 80 100 l 1,19,-1
 0 100 l 1,16,-1
0 0 m 1,20,-1
 0 80 l 1,21,-1
 80 80 l 1,22,-1
 80 0 l 1,23,-1
 0 0 l 1,20,-1
EndSplineSet
EndChar

StartChar: zero
Encoding: 48 48 48
Width: 400
VWidth: 0
LayerCount: 2
Fore
SplineSet
100 500 m 1,0,-1
 100 580 l 1,1,-1
 180 580 l 1,2,-1
 180 500 l 1,3,-1
 100 500 l 1,0,-1
200 500 m 1,4,-1
 200 580 l 1,5,-1
 280 580 l 1,6,-1
 280 500 l 1,7,-1
 200 500 l 1,4,-1
0 400 m 1,8,-1
 0 480 l 1,9,-1
 80 480 l 1,10,-1
 80 400 l 1,11,-1
 0 400 l 1,8,-1
200 400 m 1,12,-1
 200 480 l 1,13,-1
 280 480 l 1,14,-1
 280 400 l 1,15,-1
 200 400 l 1,12,-1
0 300 m 1,16,-1
 0 380 l 1,17,-1
 80 380 l 1,18,-1
 80 300 l 1,19,-1
 0 300 l 1,16,-1
200 300 m 1,20,-1
 200 380 l 1,21,-1
 280 380 l 1,22,-1
 280 300 l 1,23,-1
 200 300 l 1,20,-1
0 200 m 1,24,-1
 0 280 l 1,25,-1
 80 280 l 1,26,-1
 80 200 l 1,27,-1
 0 200 l 1,24,-1
200 200 m 1,28,-1
 200 280 l 1,29,-1
 280 280 l 1,30,-1
 280 200 l 1,31,-1
 200 200 l 1,28,-1
0 100 m 1,32,-1
 0 180 l 1,33,-1
 80 180 l 1,34,-1
 80 100 l 1,35,-1
 0 100 l 1,32,-1
100 100 m 1,36,-1
 100 180 l 1,37,-1
 180 180 l 1,38,-1
 180 100 l 1,39,-1
 100 100 l 1,36,-1
EndSplineSet
EndChar

StartChar: one
Encoding: 49 49 49
Width: 300
VWidth: 0
LayerCount: 2
Fore
SplineSet
100 500 m 1,0,-1
 100 580 l 1,1,-1
 180 580 l 1,2,-1
 180 500 l 1,3,-1
 100 500 l 1,0,-1
0 400 m 1,4,-1
 0 480 l 1,5,-1
 80 480 l 1,6,-1
 80 400 l 1,7,-1
 0 400 l 1,4,-1
100 400 m 1,8,-1
 100 480 l 1,9,-1
 180 480 l 1,10,-1
 180 400 l 1,11,-1
 100 400 l 1,8,-1
100 300 m 1,12,-1
 100 380 l 1,13,-1
 180 380 l 1,14,-1
 180 300 l 1,15,-1
 100 300 l 1,12,-1
100 200 m 1,16,-1
 100 280 l 1,17,-1
 180 280 l 1,18,-1
 180 200 l 1,19,-1
 100 200 l 1,16,-1
100 100 m 1,20,-1
 100 180 l 1,21,-1
 180 180 l 1,22,-1
 180 100 l 1,23,-1
 100 100 l 1,20,-1
EndSplineSet
EndChar

StartChar: two
Encoding: 50 50 50
Width: 400
VWidth: 0
LayerCount: 2
Fore
SplineSet
0 500 m 1,0,-1
 0 580 l 1,1,-1
 80 580 l 1,2,-1
 80 500 l 1,3,-1
 0 500 l 1,0,-1
100 500 m 1,4,-1
 100 580 l 1,5,-1
 180 580 l 1,6,-1
 180 500 l 1,7,-1
 100 500 l 1,4,-1
200 500 m 1,8,-1
 200 580 l 1,9,-1
 280 580 l 1,10,-1
 280 500 l 1,11,-1
 200 500 l 1,8,-1
200 400 m 1,12,-1
 200 480 l 1,13,-1
 280 480 l 1,14,-1
 280 400 l 1,15,-1
 200 400 l 1,12,-1
100 300 m 1,16,-1
 100 380 l 1,17,-1
 180 380 l 1,18,-1
 180 300 l 1,19,-1
 100 300 l 1,16,-1
200 300 m 1,20,-1
 200 380 l 1,21,-1
 280 380 l 1,22,-1
 280 300 l 1,23,-1
 200 300 l 1,20,-1
0 200 m 1,24,-1
 0 280 l 1,25,-1
 80 280 l 1,26,-1
 80 200 l 1,27,-1
 0 200 l 1,24,-1
0 100 m 1,28,-1
 0 180 l 1,29,-1
 80 180 l 1,30,-1
 80 100 l 1,31,-1
 0 100 l 1,28,-1
100 100 m 1,32,-1
 100 180 l 1,33,-1
 180 180 l 1,34,-1
 180 100 l 1,35,-1
 100 100 l 1,32,-1
200 100 m 1,36,-1
 200 180 l 1,37,-1
 280 180 l 1,38,-1
 280 100 l 1,39,-1
 200 100 l 1,36,-1
EndSplineSet
EndChar

StartChar: three
Encoding: 51 51 51
Width: 400
VWidth: 0
LayerCount: 2
Fore
SplineSet
0 500 m 1,0,-1
 0 580 l 1,1,-1
 80 580 l 1,2,-1
 80 500 l 1,3,-1
 0 500 l 1,0,-1
100 500 m 1,4,-1
 100 580 l 1,5,-1
 180 580 l 1,6,-1
 180 500 l 1,7,-1
 100 500 l 1,4,-1
200 500 m 1,8,-1
 200 580 l 1,9,-1
 280 580 l 1,10,-1
 280 500 l 1,11,-1
 200 500 l 1,8,-1
200 400 m 1,12,-1
 200 480 l 1,13,-1
 280 480 l 1,14,-1
 280 400 l 1,15,-1
 200 400 l 1,12,-1
100 300 m 1,16,-1
 100 380 l 1,17,-1
 180 380 l 1,18,-1
 180 300 l 1,19,-1
 100 300 l 1,16,-1
200 300 m 1,20,-1
 200 380 l 1,21,-1
 280 380 l 1,22,-1
 280 300 l 1,23,-1
 200 300 l 1,20,-1
200 200 m 1,24,-1
 200 280 l 1,25,-1
 280 280 l 1,26,-1
 280 200 l 1,27,-1
 200 200 l 1,24,-1
0 100 m 1,28,-1
 0 180 l 1,29,-1
 80 180 l 1,30,-1
 80 100 l 1,31,-1
 0 100 l 1,28,-1
100 100 m 1,32,-1
 100 180 l 1,33,-1
 180 180 l 1,34,-1
 180 100 l 1,35,-1
 100 100 l 1,32,-1
200 100 m 1,36,-1
 200 180 l 1,37,-1
 280 180 l 1,38,-1
 280 100 l 1,39,-1
 200 100 l 1,36,-1
EndSplineSet
EndChar

StartChar: four
Encoding: 52 52 52
Width: 400
VWidth: 0
LayerCount: 2
Fore
SplineSet
0 500 m 1,0,-1
 0 580 l 1,1,-1
 80 580 l 1,2,-1
 80 500 l 1,3,-1
 0 500 l 1,0,-1
200 500 m 1,4,-1
 200 580 l 1,5,-1
 280 580 l 1,6,-1
 280 500 l 1,7,-1
 200 500 l 1,4,-1
0 400 m 1,8,-1
 0 480 l 1,9,-1
 80 480 l 1,10,-1
 80 400 l 1,11,-1
 0 400 l 1,8,-1
200 400 m 1,12,-1
 200 480 l 1,13,-1
 280 480 l 1,14,-1
 280 400 l 1,15,-1
 200 400 l 1,12,-1
0 300 m 1,16,-1
 0 380 l 1,17,-1
 80 380 l 1,18,-1
 80 300 l 1,19,-1
 0 300 l 1,16,-1
100 300 m 1,20,-1
 100 380 l 1,21,-1
 180 380 l 1,22,-1
 180 300 l 1,23,-1
 100 300 l 1,20,-1
200 300 m 1,24,-1
 200 380 l 1,25,-1
 280 380 l 1,26,-1
 280 300 l 1,27,-1
 200 300 l 1,24,-1
200 200 m 1,28,-1
 200 280 l 1,29,-1
 280 280 l 1,30,-1
 280 200 l 1,31,-1
 200 200 l 1,28,-1
200 100 m 1,32,-1
 200 180 l 1,33,-1
 280 180 l 1,34,-1
 280 100 l 1,35,-1
 200 100 l 1,32,-1
EndSplineSet
EndChar

StartChar: five
Encoding: 53 53 53
Width: 400
VWidth: 0
LayerCount: 2
Fore
SplineSet
0 500 m 1,0,-1
 0 580 l 1,1,-1
 80 580 l 1,2,-1
 80 500 l 1,3,-1
 0 500 l 1,0,-1
100 500 m 1,4,-1
 100 580 l 1,5,-1
 180 580 l 1,6,-1
 180 500 l 1,7,-1
 100 500 l 1,4,-1
200 500 m 1,8,-1
 200 580 l 1,9,-1
 280 580 l 1,10,-1
 280 500 l 1,11,-1
 200 500 l 1,8,-1
0 400 m 1,12,-1
 0 480 l 1,13,-1
 80 480 l 1,14,-1
 80 400 l 1,15,-1
 0 400 l 1,12,-1
0 300 m 1,16,-1
 0 380 l 1,17,-1
 80 380 l 1,18,-1
 80 300 l 1,19,-1
 0 300 l 1,16,-1
100 300 m 1,20,-1
 100 380 l 1,21,-1
 180 380 l 1,22,-1
 180 300 l 1,23,-1
 100 300 l 1,20,-1
200 300 m 1,24,-1
 200 380 l 1,25,-1
 280 380 l 1,26,-1
 280 300 l 1,27,-1
 200 300 l 1,24,-1
200 200 m 1,28,-1
 200 280 l 1,29,-1
 280 280 l 1,30,-1
 280 200 l 1,31,-1
 200 200 l 1,28,-1
0 100 m 1,32,-1
 0 180 l 1,33,-1
 80 180 l 1,34,-1
 80 100 l 1,35,-1
 0 100 l 1,32,-1
100 100 m 1,36,-1
 100 180 l 1,37,-1
 180 180 l 1,38,-1
 180 100 l 1,39,-1
 100 100 l 1,36,-1
200 100 m 1,40,-1
 200 180 l 1,41,-1
 280 180 l 1,42,-1
 280 100 l 1,43,-1
 200 100 l 1,40,-1
EndSplineSet
EndChar

StartChar: six
Encoding: 54 54 54
Width: 400
VWidth: 0
LayerCount: 2
Fore
SplineSet
100 500 m 1,0,-1
 100 580 l 1,1,-1
 180 580 l 1,2,-1
 180 500 l 1,3,-1
 100 500 l 1,0,-1
200 500 m 1,4,-1
 200 580 l 1,5,-1
 280 580 l 1,6,-1
 280 500 l 1,7,-1
 200 500 l 1,4,-1
0 400 m 1,8,-1
 0 480 l 1,9,-1
 80 480 l 1,10,-1
 80 400 l 1,11,-1
 0 400 l 1,8,-1
0 300 m 1,12,-1
 0 380 l 1,13,-1
 80 380 l 1,14,-1
 80 300 l 1,15,-1
 0 300 l 1,12,-1
100 300 m 1,16,-1
 100 380 l 1,17,-1
 180 380 l 1,18,-1
 180 300 l 1,19,-1
 100 300 l 1,16,-1
200 300 m 1,20,-1
 200 380 l 1,21,-1
 280 380 l 1,22,-1
 280 300 l 1,23,-1
 200 300 l 1,20,-1
0 200 m 1,24,-1
 0 280 l 1,25,-1
 80 280 l 1,26,-1
 80 200 l 1,27,-1
 0 200 l 1,24,-1
200 200 m 1,28,-1
 200 280 l 1,29,-1
 280 280 l 1,30,-1
 280 200 l 1,31,-1
 200 200 l 1,28,-1
0 100 m 1,32,-1
 0 180 l 1,33,-1
 80 180 l 1,34,-1
 80 100 l 1,35,-1
 0 100 l 1,32,-1
100 100 m 1,36,-1
 100 180 l 1,37,-1
 180 180 l 1,38,-1
 180 100 l 1,39,-1
 100 100 l 1,36,-1
200 100 m 1,40,-1
 200 180 l 1,41,-1
 280 180 l 1,42,-1
 280 100 l 1,43,-1
 200 100 l 1,40,-1
EndSplineSet
EndChar

StartChar: seven
Encoding: 55 55 55
Width: 400
VWidth: 0
LayerCount: 2
Fore
SplineSet
0 500 m 1,0,-1
 0 580 l 1,1,-1
 80 580 l 1,2,-1
 80 500 l 1,3,-1
 0 500 l 1,0,-1
100 500 m 1,4,-1
 100 580 l 1,5,-1
 180 580 l 1,6,-1
 180 500 l 1,7,-1
 100 500 l 1,4,-1
200 500 m 1,8,-1
 200 580 l 1,9,-1
 280 580 l 1,10,-1
 280 500 l 1,11,-1
 200 500 l 1,8,-1
200 400 m 1,12,-1
 200 480 l 1,13,-1
 280 480 l 1,14,-1
 280 400 l 1,15,-1
 200 400 l 1,12,-1
200 300 m 1,16,-1
 200 380 l 1,17,-1
 280 380 l 1,18,-1
 280 300 l 1,19,-1
 200 300 l 1,16,-1
100 200 m 1,20,-1
 100 280 l 1,21,-1
 180 280 l 1,22,-1
 180 200 l 1,23,-1
 100 200 l 1,20,-1
100 100 m 1,24,-1
 100 180 l 1,25,-1
 180 180 l 1,26,-1
 180 100 l 1,27,-1
 100 100 l 1,24,-1
EndSplineSet
EndChar

StartChar: eight
Encoding: 56 56 56
Width: 400
VWidth: 0
LayerCount: 2
Fore
SplineSet
0 500 m 1,0,-1
 0 580 l 1,1,-1
 80 580 l 1,2,-1
 80 500 l 1,3,-1
 0 500 l 1,0,-1
100 500 m 1,4,-1
 100 580 l 1,5,-1
 180 580 l 1,6,-1
 180 500 l 1,7,-1
 100 500 l 1,4,-1
200 500 m 1,8,-1
 200 580 l 1,9,-1
 280 580 l 1,10,-1
 280 500 l 1,11,-1
 200 500 l 1,8,-1
0 400 m 1,12,-1
 0 480 l 1,13,-1
 80 480 l 1,14,-1
 80 400 l 1,15,-1
 0 400 l 1,12,-1
200 400 m 1,16,-1
 200 480 l 1,17,-1
 280 480 l 1,18,-1
 280 400 l 1,19,-1
 200 400 l 1,16,-1
0 300 m 1,20,-1
 0 380 l 1,21,-1
 80 380 l 1,22,-1
 80 300 l 1,23,-1
 0 300 l 1,20,-1
100 300 m 1,24,-1
 100 380 l 1,25,-1
 180 380 l 1,26,-1
 180 300 l 1,27,-1
 100 300 l 1,24,-1
200 300 m 1,28,-1
 200 380 l 1,29,-1
 280 380 l 1,30,-1
 280 300 l 1,31,-1
 200 300 l 1,28,-1
0 200 m 1,32,-1
 0 280 l 1,33,-1
 80 280 l 1,34,-1
 80 200 l 1,35,-1
 0 200 l 1,32,-1
200 200 m 1,36,-1
 200 280 l 1,37,-1
 280 280 l 1,38,-1
 280 200 l 1,39,-1
 200 200 l 1,36,-1
0 100 m 1,40,-1
 0 180 l 1,41,-1
 80 180 l 1,42,-1
 80 100 l 1,43,-1
 0 100 l 1,40,-1
100 100 m 1,44,-1
 100 180 l 1,45,-1
 180 180 l 1,46,-1
 180 100 l 1,47,-1
 100 100 l 1,44,-1
200 100 m 1,48,-1
 200 180 l 1,49,-1
 280 180 l 1,50,-1
 280 100 l 1,51,-1
 200 100 l 1,48,-1
EndSplineSet
EndChar

StartChar: nine
Encoding: 57 57 57
Width: 400
VWidth: 0
LayerCount: 2
Fore
SplineSet
0 500 m 1,0,-1
 0 580 l 1,1,-1
 80 580 l 1,2,-1
 80 500 l 1,3,-1
 0 500 l 1,0,-1
100 500 m 1,4,-1
 100 580 l 1,5,-1
 180 580 l 1,6,-1
 180 500 l 1,7,-1
 100 500 l 1,4,-1
200 500 m 1,8,-1
 200 580 l 1,9,-1
 280 580 l 1,10,-1
 280 500 l 1,11,-1
 200 500 l 1,8,-1
0 400 m 1,12,-1
 0 480 l 1,13,-1
 80 480 l 1,14,-1
 80 400 l 1,15,-1
 0 400 l 1,12,-1
200 400 m 1,16,-1
 200 480 l 1,17,-1
 280 480 l 1,18,-1
 280 400 l 1,19,-1
 200 400 l 1,16,-1
0 300 m 1,20,-1
 0 380 l 1,21,-1
 80 380 l 1,22,-1
 80 300 l 1,23,-1
 0 300 l 1,20,-1
100 300 m 1,24,-1
 100 380 l 1,25,-1
 180 380 l 1,26,-1
 180 300 l 1,27,-1
 100 300 l 1,24,-1
200 300 m 1,28,-1
 200 380 l 1,29,-1
 280 380 l 1,30,-1
 280 300 l 1,31,-1
 200 300 l 1,28,-1
200 200 m 1,32,-1
 200 280 l 1,33,-1
 280 280 l 1,34,-1
 280 200 l 1,35,-1
 200 200 l 1,32,-1
0 100 m 1,36,-1
 0 180 l 1,37,-1
 80 180 l 1,38,-1
 80 100 l 1,39,-1
 0 100 l 1,36,-1
100 100 m 1,40,-1
 100 180 l 1,41,-1
 180 180 l 1,42,-1
 180 100 l 1,43,-1
 100 100 l 1,40,-1
EndSplineSet
EndChar

StartChar: colon
Encoding: 58 58 58
Width: 200
VWidth: 0
LayerCount: 2
Fore
SplineSet
0 400 m 1,0,-1
 0 480 l 1,1,-1
 80 480 l 1,2,-1
 80 400 l 1,3,-1
 0 400 l 1,0,-1
0 200 m 1,4,-1
 0 280 l 1,5,-1
 80 280 l 1,6,-1
 80 200 l 1,7,-1
 0 200 l 1,4,-1
EndSplineSet
EndChar

StartChar: semicolon
Encoding: 59 59 59
Width: 300
VWidth: 0
LayerCount: 2
Fore
SplineSet
100 300 m 1,0,-1
 100 380 l 1,1,-1
 180 380 l 1,2,-1
 180 300 l 1,3,-1
 100 300 l 1,0,-1
100 100 m 1,4,-1
 100 180 l 1,5,-1
 180 180 l 1,6,-1
 180 100 l 1,7,-1
 100 100 l 1,4,-1
0 0 m 1,8,-1
 0 80 l 1,9,-1
 80 80 l 1,10,-1
 80 0 l 1,11,-1
 0 0 l 1,8,-1
EndSplineSet
EndChar

StartChar: less
Encoding: 60 60 60
Width: 400
VWidth: 0
LayerCount: 2
Fore
SplineSet
200 500 m 1,0,-1
 200 580 l 1,1,-1
 280 580 l 1,2,-1
 280 500 l 1,3,-1
 200 500 l 1,0,-1
100 400 m 1,4,-1
 100 480 l 1,5,-1
 180 480 l 1,6,-1
 180 400 l 1,7,-1
 100 400 l 1,4,-1
0 300 m 1,8,-1
 0 380 l 1,9,-1
 80 380 l 1,10,-1
 80 300 l 1,11,-1
 0 300 l 1,8,-1
100 200 m 1,12,-1
 100 280 l 1,13,-1
 180 280 l 1,14,-1
 180 200 l 1,15,-1
 100 200 l 1,12,-1
200 100 m 1,16,-1
 200 180 l 1,17,-1
 280 180 l 1,18,-1
 280 100 l 1,19,-1
 200 100 l 1,16,-1
EndSplineSet
EndChar

StartChar: equal
Encoding: 61 61 61
Width: 400
VWidth: 0
LayerCount: 2
Fore
SplineSet
0 400 m 1,0,-1
 0 480 l 1,1,-1
 80 480 l 1,2,-1
 80 400 l 1,3,-1
 0 400 l 1,0,-1
100 400 m 1,4,-1
 100 480 l 1,5,-1
 180 480 l 1,6,-1
 180 400 l 1,7,-1
 100 400 l 1,4,-1
200 400 m 1,8,-1
 200 480 l 1,9,-1
 280 480 l 1,10,-1
 280 400 l 1,11,-1
 200 400 l 1,8,-1
0 200 m 1,12,-1
 0 280 l 1,13,-1
 80 280 l 1,14,-1
 80 200 l 1,15,-1
 0 200 l 1,12,-1
100 200 m 1,16,-1
 100 280 l 1,17,-1
 180 280 l 1,18,-1
 180 200 l 1,19,-1
 100 200 l 1,16,-1
200 200 m 1,20,-1
 200 280 l 1,21,-1
 280 280 l 1,22,-1
 280 200 l 1,23,-1
 200 200 l 1,20,-1
EndSplineSet
EndChar

StartChar: greater
Encoding: 62 62 62
Width: 400
VWidth: 0
LayerCount: 2
Fore
SplineSet
0 500 m 1,0,-1
 0 580 l 1,1,-1
 80 580 l 1,2,-1
 80 500 l 1,3,-1
 0 500 l 1,0,-1
100 400 m 1,4,-1
 100 480 l 1,5,-1
 180 480 l 1,6,-1
 180 400 l 1,7,-1
 100 400 l 1,4,-1
200 300 m 1,8,-1
 200 380 l 1,9,-1
 280 380 l 1,10,-1
 280 300 l 1,11,-1
 200 300 l 1,8,-1
100 200 m 1,12,-1
 100 280 l 1,13,-1
 180 280 l 1,14,-1
 180 200 l 1,15,-1
 100 200 l 1,12,-1
0 100 m 1,16,-1
 0 180 l 1,17,-1
 80 180 l 1,18,-1
 80 100 l 1,19,-1
 0 100 l 1,16,-1
EndSplineSet
EndChar

StartChar: question
Encoding: 63 63 63
Width: 400
VWidth: 0
LayerCount: 2
Fore
SplineSet
0 500 m 1,0,-1
 0 580 l 1,1,-1
 80 580 l 1,2,-1
 80 500 l 1,3,-1
 0 500 l 1,0,-1
100 500 m 1,4,-1
 100 580 l 1,5,-1
 180 580 l 1,6,-1
 180 500 l 1,7,-1
 100 500 l 1,4,-1
200 500 m 1,8,-1
 200 580 l 1,9,-1
 280 580 l 1,10,-1
 280 500 l 1,11,-1
 200 500 l 1,8,-1
200 400 m 1,12,-1
 200 480 l 1,13,-1
 280 480 l 1,14,-1
 280 400 l 1,15,-1
 200 400 l 1,12,-1
100 300 m 1,16,-1
 100 380 l 1,17,-1
 180 380 l 1,18,-1
 180 300 l 1,19,-1
 100 300 l 1,16,-1
200 300 m 1,20,-1
 200 380 l 1,21,-1
 280 380 l 1,22,-1
 280 300 l 1,23,-1
 200 300 l 1,20,-1
100 100 m 1,24,-1
 100 180 l 1,25,-1
 180 180 l 1,26,-1
 180 100 l 1,27,-1
 100 100 l 1,24,-1
EndSplineSet
EndChar

StartChar: at
Encoding: 64 64 64
Width: 500
VWidth: 0
LayerCount: 2
Fore
SplineSet
100 500 m 1,0,-1
 100 580 l 1,1,-1
 180 580 l 1,2,-1
 180 500 l 1,3,-1
 100 500 l 1,0,-1
200 500 m 1,4,-1
 200 580 l 1,5,-1
 280 580 l 1,6,-1
 280 500 l 1,7,-1
 200 500 l 1,4,-1
0 400 m 1,8,-1
 0 480 l 1,9,-1
 80 480 l 1,10,-1
 80 400 l 1,11,-1
 0 400 l 1,8,-1
300 400 m 1,12,-1
 300 480 l 1,13,-1
 380 480 l 1,14,-1
 380 400 l 1,15,-1
 300 400 l 1,12,-1
0 300 m 1,16,-1
 0 380 l 1,17,-1
 80 380 l 1,18,-1
 80 300 l 1,19,-1
 0 300 l 1,16,-1
200 300 m 1,20,-1
 200 380 l 1,21,-1
 280 380 l 1,22,-1
 280 300 l 1,23,-1
 200 300 l 1,20,-1
300 300 m 1,24,-1
 300 380 l 1,25,-1
 380 380 l 1,26,-1
 380 300 l 1,27,-1
 300 300 l 1,24,-1
0 200 m 1,28,-1
 0 280 l 1,29,-1
 80 280 l 1,30,-1
 80 200 l 1,31,-1
 0 200 l 1,28,-1
100 100 m 1,32,-1
 100 180 l 1,33,-1
 180 180 l 1,34,-1
 180 100 l 1,35,-1
 100 100 l 1,32,-1
200 100 m 1,36,-1
 200 180 l 1,37,-1
 280 180 l 1,38,-1
 280 100 l 1,39,-1
 200 100 l 1,36,-1
300 100 m 1,40,-1
 300 180 l 1,41,-1
 380 180 l 1,42,-1
 380 100 l 1,43,-1
 300 100 l 1,40,-1
EndSplineSet
EndChar

StartChar: A
Encoding: 65 65 65
Width: 400
VWidth: 0
LayerCount: 2
Fore
SplineSet
100 500 m 1,0,-1
 100 580 l 1,1,-1
 180 580 l 1,2,-1
 180 500 l 1,3,-1
 100 500 l 1,0,-1
0 400 m 1,4,-1
 0 480 l 1,5,-1
 80 480 l 1,6,-1
 80 400 l 1,7,-1
 0 400 l 1,4,-1
200 400 m 1,8,-1
 200 480 l 1,9,-1
 280 480 l 1,10,-1
 280 400 l 1,11,-1
 200 400 l 1,8,-1
0 300 m 1,12,-1
 0 380 l 1,13,-1
 80 380 l 1,14,-1
 80 300 l 1,15,-1
 0 300 l 1,12,-1
100 300 m 1,16,-1
 100 380 l 1,17,-1
 180 380 l 1,18,-1
 180 300 l 1,19,-1
 100 300 l 1,16,-1
200 300 m 1,20,-1
 200 380 l 1,21,-1
 280 380 l 1,22,-1
 280 300 l 1,23,-1
 200 300 l 1,20,-1
0 200 m 1,24,-1
 0 280 l 1,25,-1
 80 280 l 1,26,-1
 80 200 l 1,27,-1
 0 200 l 1,24,-1
200 200 m 1,28,-1
 200 280 l 1,29,-1
 280 280 l 1,30,-1
 280 200 l 1,31,-1
 200 200 l 1,28,-1
0 100 m 1,32,-1
 0 180 l 1,33,-1
 80 180 l 1,34,-1
 80 100 l 1,35,-1
 0 100 l 1,32,-1
200 100 m 1,36,-1
 200 180 l 1,37,-1
 280 180 l 1,38,-1
 280 100 l 1,39,-1
 200 100 l 1,36,-1
EndSplineSet
EndChar

StartChar: B
Encoding: 66 66 66
Width: 400
VWidth: 0
LayerCount: 2
Fore
SplineSet
0 500 m 1,0,-1
 0 580 l 1,1,-1
 80 580 l 1,2,-1
 80 500 l 1,3,-1
 0 500 l 1,0,-1
100 500 m 1,4,-1
 100 580 l 1,5,-1
 180 580 l 1,6,-1
 180 500 l 1,7,-1
 100 500 l 1,4,-1
0 400 m 1,8,-1
 0 480 l 1,9,-1
 80 480 l 1,10,-1
 80 400 l 1,11,-1
 0 400 l 1,8,-1
200 400 m 1,12,-1
 200 480 l 1,13,-1
 280 480 l 1,14,-1
 280 400 l 1,15,-1
 200 400 l 1,12,-1
0 300 m 1,16,-1
 0 380 l 1,17,-1
 80 380 l 1,18,-1
 80 300 l 1,19,-1
 0 300 l 1,16,-1
100 300 m 1,20,-1
 100 380 l 1,21,-1
 180 380 l 1,22,-1
 180 300 l 1,23,-1
 100 300 l 1,20,-1
0 200 m 1,24,-1
 0 280 l 1,25,-1
 80 280 l 1,26,-1
 80 200 l 1,27,-1
 0 200 l 1,24,-1
200 200 m 1,28,-1
 200 280 l 1,29,-1
 280 280 l 1,30,-1
 280 200 l 1,31,-1
 200 200 l 1,28,-1
0 100 m 1,32,-1
 0 180 l 1,33,-1
 80 180 l 1,34,-1
 80 100 l 1,35,-1
 0 100 l 1,32,-1
100 100 m 1,36,-1
 100 180 l 1,37,-1
 180 180 l 1,38,-1
 180 100 l 1,39,-1
 100 100 l 1,36,-1
EndSplineSet
EndChar

StartChar: C
Encoding: 67 67 67
Width: 400
VWidth: 0
LayerCount: 2
Fore
SplineSet
100 500 m 1,0,-1
 100 580 l 1,1,-1
 180 580 l 1,2,-1
 180 500 l 1,3,-1
 100 500 l 1,0,-1
200 500 m 1,4,-1
 200 580 l 1,5,-1
 280 580 l 1,6,-1
 280 500 l 1,7,-1
 200 500 l 1,4,-1
0 400 m 1,8,-1
 0 480 l 1,9,-1
 80 480 l 1,10,-1
 80 400 l 1,11,-1
 0 400 l 1,8,-1
0 300 m 1,12,-1
 0 380 l 1,13,-1
 80 380 l 1,14,-1
 80 300 l 1,15,-1
 0 300 l 1,12,-1
0 200 m 1,16,-1
 0 280 l 1,17,-1
 80 280 l 1,18,-1
 80 200 l 1,19,-1
 0 200 l 1,16,-1
100 100 m 1,20,-1
 100 180 l 1,21,-1
 180 180 l 1,22,-1
 180 100 l 1,23,-1
 100 100 l 1,20,-1
200 100 m 1,24,-1
 200 180 l 1,25,-1
 280 180 l 1,26,-1
 280 100 l 1,27,-1
 200 100 l 1,24,-1
EndSplineSet
EndChar

StartChar: D
Encoding: 68 68 68
Width: 400
VWidth: 0
LayerCount: 2
Fore
SplineSet
0 500 m 1,0,-1
 0 580 l 1,1,-1
 80 580 l 1,2,-1
 80 500 l 1,3,-1
 0 500 l 1,0,-1
100 500 m 1,4,-1
 100 580 l 1,5,-1
 180 580 l 1,6,-1
 180 500 l 1,7,-1
 100 500 l 1,4,-1
0 400 m 1,8,-1
 0 480 l 1,9,-1
 80 480 l 1,10,-1
 80 400 l 1,11,-1
 0 400 l 1,8,-1
200 400 m 1,12,-1
 200 480 l 1,13,-1
 280 480 l 1,14,-1
 280 400 l 1,15,-1
 200 400 l 1,12,-1
0 300 m 1,16,-1
 0 380 l 1,17,-1
 80 380 l 1,18,-1
 80 300 l 1,19,-1
 0 300 l 1,16,-1
200 300 m 1,20,-1
 200 380 l 1,21,-1
 280 380 l 1,22,-1
 280 300 l 1,23,-1
 200 300 l 1,20,-1
0 200 m 1,24,-1
 0 280 l 1,25,-1
 80 280 l 1,26,-1
 80 200 l 1,27,-1
 0 200 l 1,24,-1
200 200 m 1,28,-1
 200 280 l 1,29,-1
 280 280 l 1,30,-1
 280 200 l 1,31,-1
 200 200 l 1,28,-1
0 100 m 1,32,-1
 0 180 l 1,33,-1
 80 180 l 1,34,-1
 80 100 l 1,35,-1
 0 100 l 1,32,-1
100 100 m 1,36,-1
 100 180 l 1,37,-1
 180 180 l 1,38,-1
 180 100 l 1,39,-1
 100 100 l 1,36,-1
EndSplineSet
EndChar

StartChar: E
Encoding: 69 69 69
Width: 400
VWidth: 0
LayerCount: 2
Fore
SplineSet
0 500 m 1,0,-1
 0 580 l 1,1,-1
 80 580 l 1,2,-1
 80 500 l 1,3,-1
 0 500 l 1,0,-1
100 500 m 1,4,-1
 100 580 l 1,5,-1
 180 580 l 1,6,-1
 180 500 l 1,7,-1
 100 500 l 1,4,-1
200 500 m 1,8,-1
 200 580 l 1,9,-1
 280 580 l 1,10,-1
 280 500 l 1,11,-1
 200 500 l 1,8,-1
0 400 m 1,12,-1
 0 480 l 1,13,-1
 80 480 l 1,14,-1
 80 400 l 1,15,-1
 0 400 l 1,12,-1
0 300 m 1,16,-1
 0 380 l 1,17,-1
 80 380 l 1,18,-1
 80 300 l 1,19,-1
 0 300 l 1,16,-1
100 300 m 1,20,-1
 100 380 l 1,21,-1
 180 380 l 1,22,-1
 180 300 l 1,23,-1
 100 300 l 1,20,-1
0 200 m 1,24,-1
 0 280 l 1,25,-1
 80 280 l 1,26,-1
 80 200 l 1,27,-1
 0 200 l 1,24,-1
0 100 m 1,28,-1
 0 180 l 1,29,-1
 80 180 l 1,30,-1
 80 100 l 1,31,-1
 0 100 l 1,28,-1
100 100 m 1,32,-1
 100 180 l 1,33,-1
 180 180 l 1,34,-1
 180 100 l 1,35,-1
 100 100 l 1,32,-1
200 100 m 1,36,-1
 200 180 l 1,37,-1
 280 180 l 1,38,-1
 280 100 l 1,39,-1
 200 100 l 1,36,-1
EndSplineSet
EndChar

StartChar: F
Encoding: 70 70 70
Width: 400
VWidth: 0
LayerCount: 2
Fore
SplineSet
0 500 m 1,0,-1
 0 580 l 1,1,-1
 80 580 l 1,2,-1
 80 500 l 1,3,-1
 0 500 l 1,0,-1
100 500 m 1,4,-1
 100 580 l 1,5,-1
 180 580 l 1,6,-1
 180 500 l 1,7,-1
 100 500 l 1,4,-1
200 500 m 1,8,-1
 200 580 l 1,9,-1
 280 580 l 1,10,-1
 280 500 l 1,11,-1
 200 500 l 1,8,-1
0 400 m 1,12,-1
 0 480 l 1,13,-1
 80 480 l 1,14,-1
 80 400 l 1,15,-1
 0 400 l 1,12,-1
0 300 m 1,16,-1
 0 380 l 1,17,-1
 80 380 l 1,18,-1
 80 300 l 1,19,-1
 0 300 l 1,16,-1
100 300 m 1,20,-1
 100 380 l 1,21,-1
 180 380 l 1,22,-1
 180 300 l 1,23,-1
 100 300 l 1,20,-1
0 200 m 1,24,-1
 0 280 l 1,25,-1
 80 280 l 1,26,-1
 80 200 l 1,27,-1
 0 200 l 1,24,-1
0 100 m 1,28,-1
 0 180 l 1,29,-1
 80 180 l 1,30,-1
 80 100 l 1,31,-1
 0 100 l 1,28,-1
EndSplineSet
EndChar

StartChar: G
Encoding: 71 71 71
Width: 400
VWidth: 0
LayerCount: 2
Fore
SplineSet
100 500 m 1,0,-1
 100 580 l 1,1,-1
 180 580 l 1,2,-1
 180 500 l 1,3,-1
 100 500 l 1,0,-1
200 500 m 1,4,-1
 200 580 l 1,5,-1
 280 580 l 1,6,-1
 280 500 l 1,7,-1
 200 500 l 1,4,-1
0 400 m 1,8,-1
 0 480 l 1,9,-1
 80 480 l 1,10,-1
 80 400 l 1,11,-1
 0 400 l 1,8,-1
0 300 m 1,12,-1
 0 380 l 1,13,-1
 80 380 l 1,14,-1
 80 300 l 1,15,-1
 0 300 l 1,12,-1
200 300 m 1,16,-1
 200 380 l 1,17,-1
 280 380 l 1,18,-1
 280 300 l 1,19,-1
 200 300 l 1,16,-1
0 200 m 1,20,-1
 0 280 l 1,21,-1
 80 280 l 1,22,-1
 80 200 l 1,23,-1
 0 200 l 1,20,-1
200 200 m 1,24,-1
 200 280 l 1,25,-1
 280 280 l 1,26,-1
 280 200 l 1,27,-1
 200 200 l 1,24,-1
0 100 m 1,28,-1
 0 180 l 1,29,-1
 80 180 l 1,30,-1
 80 100 l 1,31,-1
 0 100 l 1,28,-1
100 100 m 1,32,-1
 100 180 l 1,33,-1
 180 180 l 1,34,-1
 180 100 l 1,35,-1
 100 100 l 1,32,-1
200 100 m 1,36,-1
 200 180 l 1,37,-1
 280 180 l 1,38,-1
 280 100 l 1,39,-1
 200 100 l 1,36,-1
EndSplineSet
EndChar

StartChar: H
Encoding: 72 72 72
Width: 400
VWidth: 0
LayerCount: 2
Fore
SplineSet
0 500 m 1,0,-1
 0 580 l 1,1,-1
 80 580 l 1,2,-1
 80 500 l 1,3,-1
 0 500 l 1,0,-1
200 500 m 1,4,-1
 200 580 l 1,5,-1
 280 580 l 1,6,-1
 280 500 l 1,7,-1
 200 500 l 1,4,-1
0 400 m 1,8,-1
 0 480 l 1,9,-1
 80 480 l 1,10,-1
 80 400 l 1,11,-1
 0 400 l 1,8,-1
200 400 m 1,12,-1
 200 480 l 1,13,-1
 280 480 l 1,14,-1
 280 400 l 1,15,-1
 200 400 l 1,12,-1
0 300 m 1,16,-1
 0 380 l 1,17,-1
 80 380 l 1,18,-1
 80 300 l 1,19,-1
 0 300 l 1,16,-1
100 300 m 1,20,-1
 100 380 l 1,21,-1
 180 380 l 1,22,-1
 180 300 l 1,23,-1
 100 300 l 1,20,-1
200 300 m 1,24,-1
 200 380 l 1,25,-1
 280 380 l 1,26,-1
 280 300 l 1,27,-1
 200 300 l 1,24,-1
0 200 m 1,28,-1
 0 280 l 1,29,-1
 80 280 l 1,30,-1
 80 200 l 1,31,-1
 0 200 l 1,28,-1
200 200 m 1,32,-1
 200 280 l 1,33,-1
 280 280 l 1,34,-1
 280 200 l 1,35,-1
 200 200 l 1,32,-1
0 100 m 1,36,-1
 0 180 l 1,37,-1
 80 180 l 1,38,-1
 80 100 l 1,39,-1
 0 100 l 1,36,-1
200 100 m 1,40,-1
 200 180 l 1,41,-1
 280 180 l 1,42,-1
 280 100 l 1,43,-1
 200 100 l 1,40,-1
EndSplineSet
EndChar

StartChar: I
Encoding: 73 73 73
Width: 200
VWidth: 0
LayerCount: 2
Fore
SplineSet
0 500 m 1,0,-1
 0 580 l 1,1,-1
 80 580 l 1,2,-1
 80 500 l 1,3,-1
 0 500 l 1,0,-1
0 400 m 1,4,-1
 0 480 l 1,5,-1
 80 480 l 1,6,-1
 80 400 l 1,7,-1
 0 400 l 1,4,-1
0 300 m 1,8,-1
 0 380 l 1,9,-1
 80 380 l 1,10,-1
 80 300 l 1,11,-1
 0 300 l 1,8,-1
0 200 m 1,12,-1
 0 280 l 1,13,-1
 80 280 l 1,14,-1
 80 200 l 1,15,-1
 0 200 l 1,12,-1
0 100 m 1,16,-1
 0 180 l 1,17,-1
 80 180 l 1,18,-1
 80 100 l 1,19,-1
 0 100 l 1,16,-1
EndSplineSet
EndChar

StartChar: J
Encoding: 74 74 74
Width: 400
VWidth: 0
LayerCount: 2
Fore
SplineSet
200 500 m 1,0,-1
 200 580 l 1,1,-1
 280 580 l 1,2,-1
 280 500 l 1,3,-1
 200 500 l 1,0,-1
200 400 m 1,4,-1
 200 480 l 1,5,-1
 280 480 l 1,6,-1
 280 400 l 1,7,-1
 200 400 l 1,4,-1
200 300 m 1,8,-1
 200 380 l 1,9,-1
 280 380 l 1,10,-1
 280 300 l 1,11,-1
 200 300 l 1,8,-1
0 200 m 1,12,-1
 0 280 l 1,13,-1
 80 280 l 1,14,-1
 80 200 l 1,15,-1
 0 200 l 1,12,-1
200 200 m 1,16,-1
 200 280 l 1,17,-1
 280 280 l 1,18,-1
 280 200 l 1,19,-1
 200 200 l 1,16,-1
0 100 m 1,20,-1
 0 180 l 1,21,-1
 80 180 l 1,22,-1
 80 100 l 1,23,-1
 0 100 l 1,20,-1
100 100 m 1,24,-1
 100 180 l 1,25,-1
 180 180 l 1,26,-1
 180 100 l 1,27,-1
 100 100 l 1,24,-1
200 100 m 1,28,-1
 200 180 l 1,29,-1
 280 180 l 1,30,-1
 280 100 l 1,31,-1
 200 100 l 1,28,-1
EndSplineSet
EndChar

StartChar: K
Encoding: 75 75 75
Width: 500
VWidth: 0
LayerCount: 2
Fore
SplineSet
0 500 m 1,0,-1
 0 580 l 1,1,-1
 80 580 l 1,2,-1
 80 500 l 1,3,-1
 0 500 l 1,0,-1
300 500 m 1,4,-1
 300 580 l 1,5,-1
 380 580 l 1,6,-1
 380 500 l 1,7,-1
 300 500 l 1,4,-1
0 400 m 1,8,-1
 0 480 l 1,9,-1
 80 480 l 1,10,-1
 80 400 l 1,11,-1
 0 400 l 1,8,-1
200 400 m 1,12,-1
 200 480 l 1,13,-1
 280 480 l 1,14,-1
 280 400 l 1,15,-1
 200 400 l 1,12,-1
0 300 m 1,16,-1
 0 380 l 1,17,-1
 80 380 l 1,18,-1
 80 300 l 1,19,-1
 0 300 l 1,16,-1
100 300 m 1,20,-1
 100 380 l 1,21,-1
 180 380 l 1,22,-1
 180 300 l 1,23,-1
 100 300 l 1,20,-1
0 200 m 1,24,-1
 0 280 l 1,25,-1
 80 280 l 1,26,-1
 80 200 l 1,27,-1
 0 200 l 1,24,-1
200 200 m 1,28,-1
 200 280 l 1,29,-1
 280 280 l 1,30,-1
 280 200 l 1,31,-1
 200 200 l 1,28,-1
0 100 m 1,32,-1
 0 180 l 1,33,-1
 80 180 l 1,34,-1
 80 100 l 1,35,-1
 0 100 l 1,32,-1
300 100 m 1,36,-1
 300 180 l 1,37,-1
 380 180 l 1,38,-1
 380 100 l 1,39,-1
 300 100 l 1,36,-1
EndSplineSet
EndChar

StartChar: L
Encoding: 76 76 76
Width: 400
VWidth: 0
LayerCount: 2
Fore
SplineSet
0 500 m 1,0,-1
 0 580 l 1,1,-1
 80 580 l 1,2,-1
 80 500 l 1,3,-1
 0 500 l 1,0,-1
0 400 m 1,4,-1
 0 480 l 1,5,-1
 80 480 l 1,6,-1
 80 400 l 1,7,-1
 0 400 l 1,4,-1
0 300 m 1,8,-1
 0 380 l 1,9,-1
 80 380 l 1,10,-1
 80 300 l 1,11,-1
 0 300 l 1,8,-1
0 200 m 1,12,-1
 0 280 l 1,13,-1
 80 280 l 1,14,-1
 80 200 l 1,15,-1
 0 200 l 1,12,-1
0 100 m 1,16,-1
 0 180 l 1,17,-1
 80 180 l 1,18,-1
 80 100 l 1,19,-1
 0 100 l 1,16,-1
100 100 m 1,20,-1
 100 180 l 1,21,-1
 180 180 l 1,22,-1
 180 100 l 1,23,-1
 100 100 l 1,20,-1
200 100 m 1,24,-1
 200 180 l 1,25,-1
 280 180 l 1,26,-1
 280 100 l 1,27,-1
 200 100 l 1,24,-1
EndSplineSet
EndChar

StartChar: M
Encoding: 77 77 77
Width: 600
VWidth: 0
LayerCount: 2
Fore
SplineSet
0 500 m 1,0,-1
 0 580 l 1,1,-1
 80 580 l 1,2,-1
 80 500 l 1,3,-1
 0 500 l 1,0,-1
400 500 m 1,4,-1
 400 580 l 1,5,-1
 480 580 l 1,6,-1
 480 500 l 1,7,-1
 400 500 l 1,4,-1
0 400 m 1,8,-1
 0 480 l 1,9,-1
 80 480 l 1,10,-1
 80 400 l 1,11,-1
 0 400 l 1,8,-1
100 400 m 1,12,-1
 100 480 l 1,13,-1
 180 480 l 1,14,-1
 180 400 l 1,15,-1
 100 400 l 1,12,-1
300 400 m 1,16,-1
 300 480 l 1,17,-1
 380 480 l 1,18,-1
 380 400 l 1,19,-1
 300 400 l 1,16,-1
400 400 m 1,20,-1
 400 480 l 1,21,-1
 480 480 l 1,22,-1
 480 400 l 1,23,-1
 400 400 l 1,20,-1
0 300 m 1,24,-1
 0 380 l 1,25,-1
 80 380 l 1,26,-1
 80 300 l 1,27,-1
 0 300 l 1,24,-1
200 300 m 1,28,-1
 200 380 l 1,29,-1
 280 380 l 1,30,-1
 280 300 l 1,31,-1
 200 300 l 1,28,-1
400 300 m 1,32,-1
 400 380 l 1,33,-1
 480 380 l 1,34,-1
 480 300 l 1,35,-1
 400 300 l 1,32,-1
0 200 m 1,36,-1
 0 280 l 1,37,-1
 80 280 l 1,38,-1
 80 200 l 1,39,-1
 0 200 l 1,36,-1
400 200 m 1,40,-1
 400 280 l 1,41,-1
 480 280 l 1,42,-1
 480 200 l 1,43,-1
 400 200 l 1,40,-1
0 100 m 1,44,-1
 0 180 l 1,45,-1
 80 180 l 1,46,-1
 80 100 l 1,47,-1
 0 100 l 1,44,-1
400 100 m 1,48,-1
 400 180 l 1,49,-1
 480 180 l 1,50,-1
 480 100 l 1,51,-1
 400 100 l 1,48,-1
EndSplineSet
EndChar

StartChar: N
Encoding: 78 78 78
Width: 500
VWidth: 0
LayerCount: 2
Fore
SplineSet
0 500 m 1,0,-1
 0 580 l 1,1,-1
 80 580 l 1,2,-1
 80 500 l 1,3,-1
 0 500 l 1,0,-1
300 500 m 1,4,-1
 300 580 l 1,5,-1
 380 580 l 1,6,-1
 380 500 l 1,7,-1
 300 500 l 1,4,-1
0 400 m 1,8,-1
 0 480 l 1,9,-1
 80 480 l 1,10,-1
 80 400 l 1,11,-1
 0 400 l 1,8,-1
100 400 m 1,12,-1
 100 480 l 1,13,-1
 180 480 l 1,14,-1
 180 400 l 1,15,-1
 100 400 l 1,12,-1
300 400 m 1,16,-1
 300 480 l 1,17,-1
 380 480 l 1,18,-1
 380 400 l 1,19,-1
 300 400 l 1,16,-1
0 300 m 1,20,-1
 0 380 l 1,21,-1
 80 380 l 1,22,-1
 80 300 l 1,23,-1
 0 300 l 1,20,-1
200 300 m 1,24,-1
 200 380 l 1,25,-1
 280 380 l 1,26,-1
 280 300 l 1,27,-1
 200 300 l 1,24,-1
300 300 m 1,28,-1
 300 380 l 1,29,-1
 380 380 l 1,30,-1
 380 300 l 1,31,-1
 300 300 l 1,28,-1
0 200 m 1,32,-1
 0 280 l 1,33,-1
 80 280 l 1,34,-1
 80 200 l 1,35,-1
 0 200 l 1,32,-1
300 200 m 1,36,-1
 300 280 l 1,37,-1
 380 280 l 1,38,-1
 380 200 l 1,39,-1
 300 200 l 1,36,-1
0 100 m 1,40,-1
 0 180 l 1,41,-1
 80 180 l 1,42,-1
 80 100 l 1,43,-1
 0 100 l 1,40,-1
300 100 m 1,44,-1
 300 180 l 1,45,-1
 380 180 l 1,46,-1
 380 100 l 1,47,-1
 300 100 l 1,44,-1
EndSplineSet
EndChar

StartChar: O
Encoding: 79 79 79
Width: 400
VWidth: 0
LayerCount: 2
Fore
SplineSet
0 500 m 1,0,-1
 0 580 l 1,1,-1
 80 580 l 1,2,-1
 80 500 l 1,3,-1
 0 500 l 1,0,-1
100 500 m 1,4,-1
 100 580 l 1,5,-1
 180 580 l 1,6,-1
 180 500 l 1,7,-1
 100 500 l 1,4,-1
200 500 m 1,8,-1
 200 580 l 1,9,-1
 280 580 l 1,10,-1
 280 500 l 1,11,-1
 200 500 l 1,8,-1
0 400 m 1,12,-1
 0 480 l 1,13,-1
 80 480 l 1,14,-1
 80 400 l 1,15,-1
 0 400 l 1,12,-1
200 400 m 1,16,-1
 200 480 l 1,17,-1
 280 480 l 1,18,-1
 280 400 l 1,19,-1
 200 400 l 1,16,-1
0 300 m 1,20,-1
 0 380 l 1,21,-1
 80 380 l 1,22,-1
 80 300 l 1,23,-1
 0 300 l 1,20,-1
200 300 m 1,24,-1
 200 380 l 1,25,-1
 280 380 l 1,26,-1
 280 300 l 1,27,-1
 200 300 l 1,24,-1
0 200 m 1,28,-1
 0 280 l 1,29,-1
 80 280 l 1,30,-1
 80 200 l 1,31,-1
 0 200 l 1,28,-1
200 200 m 1,32,-1
 200 280 l 1,33,-1
 280 280 l 1,34,-1
 280 200 l 1,35,-1
 200 200 l 1,32,-1
0 100 m 1,36,-1
 0 180 l 1,37,-1
 80 180 l 1,38,-1
 80 100 l 1,39,-1
 0 100 l 1,36,-1
100 100 m 1,40,-1
 100 180 l 1,41,-1
 180 180 l 1,42,-1
 180 100 l 1,43,-1
 100 100 l 1,40,-1
200 100 m 1,44,-1
 200 180 l 1,45,-1
 280 180 l 1,46,-1
 280 100 l 1,47,-1
 200 100 l 1,44,-1
EndSplineSet
EndChar

StartChar: P
Encoding: 80 80 80
Width: 400
VWidth: 0
LayerCount: 2
Fore
SplineSet
0 500 m 1,0,-1
 0 580 l 1,1,-1
 80 580 l 1,2,-1
 80 500 l 1,3,-1
 0 500 l 1,0,-1
100 500 m 1,4,-1
 100 580 l 1,5,-1
 180 580 l 1,6,-1
 180 500 l 1,7,-1
 100 500 l 1,4,-1
200 500 m 1,8,-1
 200 580 l 1,9,-1
 280 580 l 1,10,-1
 280 500 l 1,11,-1
 200 500 l 1,8,-1
0 400 m 1,12,-1
 0 480 l 1,13,-1
 80 480 l 1,14,-1
 80 400 l 1,15,-1
 0 400 l 1,12,-1
200 400 m 1,16,-1
 200 480 l 1,17,-1
 280 480 l 1,18,-1
 280 400 l 1,19,-1
 200 400 l 1,16,-1
0 300 m 1,20,-1
 0 380 l 1,21,-1
 80 380 l 1,22,-1
 80 300 l 1,23,-1
 0 300 l 1,20,-1
100 300 m 1,24,-1
 100 380 l 1,25,-1
 180 380 l 1,26,-1
 180 300 l 1,27,-1
 100 300 l 1,24,-1
200 300 m 1,28,-1
 200 380 l 1,29,-1
 280 380 l 1,30,-1
 280 300 l 1,31,-1
 200 300 l 1,28,-1
0 200 m 1,32,-1
 0 280 l 1,33,-1
 80 280 l 1,34,-1
 80 200 l 1,35,-1
 0 200 l 1,32,-1
0 100 m 1,36,-1
 0 180 l 1,37,-1
 80 180 l 1,38,-1
 80 100 l 1,39,-1
 0 100 l 1,36,-1
EndSplineSet
EndChar

StartChar: Q
Encoding: 81 81 81
Width: 500
VWidth: 0
LayerCount: 2
Fore
SplineSet
100 500 m 1,0,-1
 100 580 l 1,1,-1
 180 580 l 1,2,-1
 180 500 l 1,3,-1
 100 500 l 1,0,-1
200 500 m 1,4,-1
 200 580 l 1,5,-1
 280 580 l 1,6,-1
 280 500 l 1,7,-1
 200 500 l 1,4,-1
0 400 m 1,8,-1
 0 480 l 1,9,-1
 80 480 l 1,10,-1
 80 400 l 1,11,-1
 0 400 l 1,8,-1
300 400 m 1,12,-1
 300 480 l 1,13,-1
 380 480 l 1,14,-1
 380 400 l 1,15,-1
 300 400 l 1,12,-1
0 300 m 1,16,-1
 0 380 l 1,17,-1
 80 380 l 1,18,-1
 80 300 l 1,19,-1
 0 300 l 1,16,-1
300 300 m 1,20,-1
 300 380 l 1,21,-1
 380 380 l 1,22,-1
 380 300 l 1,23,-1
 300 300 l 1,20,-1
0 200 m 1,24,-1
 0 280 l 1,25,-1
 80 280 l 1,26,-1
 80 200 l 1,27,-1
 0 200 l 1,24,-1
200 200 m 1,28,-1
 200 280 l 1,29,-1
 280 280 l 1,30,-1
 280 200 l 1,31,-1
 200 200 l 1,28,-1
100 100 m 1,32,-1
 100 180 l 1,33,-1
 180 180 l 1,34,-1
 180 100 l 1,35,-1
 100 100 l 1,32,-1
300 100 m 1,36,-1
 300 180 l 1,37,-1
 380 180 l 1,38,-1
 380 100 l 1,39,-1
 300 100 l 1,36,-1
EndSplineSet
EndChar

StartChar: R
Encoding: 82 82 82
Width: 400
VWidth: 0
LayerCount: 2
Fore
SplineSet
0 500 m 1,0,-1
 0 580 l 1,1,-1
 80 580 l 1,2,-1
 80 500 l 1,3,-1
 0 500 l 1,0,-1
100 500 m 1,4,-1
 100 580 l 1,5,-1
 180 580 l 1,6,-1
 180 500 l 1,7,-1
 100 500 l 1,4,-1
0 400 m 1,8,-1
 0 480 l 1,9,-1
 80 480 l 1,10,-1
 80 400 l 1,11,-1
 0 400 l 1,8,-1
200 400 m 1,12,-1
 200 480 l 1,13,-1
 280 480 l 1,14,-1
 280 400 l 1,15,-1
 200 400 l 1,12,-1
0 300 m 1,16,-1
 0 380 l 1,17,-1
 80 380 l 1,18,-1
 80 300 l 1,19,-1
 0 300 l 1,16,-1
100 300 m 1,20,-1
 100 380 l 1,21,-1
 180 380 l 1,22,-1
 180 300 l 1,23,-1
 100 300 l 1,20,-1
0 200 m 1,24,-1
 0 280 l 1,25,-1
 80 280 l 1,26,-1
 80 200 l 1,27,-1
 0 200 l 1,24,-1
200 200 m 1,28,-1
 200 280 l 1,29,-1
 280 280 l 1,30,-1
 280 200 l 1,31,-1
 200 200 l 1,28,-1
0 100 m 1,32,-1
 0 180 l 1,33,-1
 80 180 l 1,34,-1
 80 100 l 1,35,-1
 0 100 l 1,32,-1
200 100 m 1,36,-1
 200 180 l 1,37,-1
 280 180 l 1,38,-1
 280 100 l 1,39,-1
 200 100 l 1,36,-1
EndSplineSet
EndChar

StartChar: S
Encoding: 83 83 83
Width: 400
VWidth: 0
LayerCount: 2
Fore
SplineSet
100 500 m 1,0,-1
 100 580 l 1,1,-1
 180 580 l 1,2,-1
 180 500 l 1,3,-1
 100 500 l 1,0,-1
200 500 m 1,4,-1
 200 580 l 1,5,-1
 280 580 l 1,6,-1
 280 500 l 1,7,-1
 200 500 l 1,4,-1
0 400 m 1,8,-1
 0 480 l 1,9,-1
 80 480 l 1,10,-1
 80 400 l 1,11,-1
 0 400 l 1,8,-1
100 300 m 1,12,-1
 100 380 l 1,13,-1
 180 380 l 1,14,-1
 180 300 l 1,15,-1
 100 300 l 1,12,-1
200 200 m 1,16,-1
 200 280 l 1,17,-1
 280 280 l 1,18,-1
 280 200 l 1,19,-1
 200 200 l 1,16,-1
0 100 m 1,20,-1
 0 180 l 1,21,-1
 80 180 l 1,22,-1
 80 100 l 1,23,-1
 0 100 l 1,20,-1
100 100 m 1,24,-1
 100 180 l 1,25,-1
 180 180 l 1,26,-1
 180 100 l 1,27,-1
 100 100 l 1,24,-1
EndSplineSet
EndChar

StartChar: T
Encoding: 84 84 84
Width: 400
VWidth: 0
LayerCount: 2
Fore
SplineSet
0 500 m 1,0,-1
 0 580 l 1,1,-1
 80 580 l 1,2,-1
 80 500 l 1,3,-1
 0 500 l 1,0,-1
100 500 m 1,4,-1
 100 580 l 1,5,-1
 180 580 l 1,6,-1
 180 500 l 1,7,-1
 100 500 l 1,4,-1
200 500 m 1,8,-1
 200 580 l 1,9,-1
 280 580 l 1,10,-1
 280 500 l 1,11,-1
 200 500 l 1,8,-1
100 400 m 1,12,-1
 100 480 l 1,13,-1
 180 480 l 1,14,-1
 180 400 l 1,15,-1
 100 400 l 1,12,-1
100 300 m 1,16,-1
 100 380 l 1,17,-1
 180 380 l 1,18,-1
 180 300 l 1,19,-1
 100 300 l 1,16,-1
100 200 m 1,20,-1
 100 280 l 1,21,-1
 180 280 l 1,22,-1
 180 200 l 1,23,-1
 100 200 l 1,20,-1
100 100 m 1,24,-1
 100 180 l 1,25,-1
 180 180 l 1,26,-1
 180 100 l 1,27,-1
 100 100 l 1,24,-1
EndSplineSet
EndChar

StartChar: U
Encoding: 85 85 85
Width: 400
VWidth: 0
LayerCount: 2
Fore
SplineSet
0 500 m 1,0,-1
 0 580 l 1,1,-1
 80 580 l 1,2,-1
 80 500 l 1,3,-1
 0 500 l 1,0,-1
200 500 m 1,4,-1
 200 580 l 1,5,-1
 280 580 l 1,6,-1
 280 500 l 1,7,-1
 200 500 l 1,4,-1
0 400 m 1,8,-1
 0 480 l 1,9,-1
 80 480 l 1,10,-1
 80 400 l 1,11,-1
 0 400 l 1,8,-1
200 400 m 1,12,-1
 200 480 l 1,13,-1
 280 480 l 1,14,-1
 280 400 l 1,15,-1
 200 400 l 1,12,-1
0 300 m 1,16,-1
 0 380 l 1,17,-1
 80 380 l 1,18,-1
 80 300 l 1,19,-1
 0 300 l 1,16,-1
200 300 m 1,20,-1
 200 380 l 1,21,-1
 280 380 l 1,22,-1
 280 300 l 1,23,-1
 200 300 l 1,20,-1
0 200 m 1,24,-1
 0 280 l 1,25,-1
 80 280 l 1,26,-1
 80 200 l 1,27,-1
 0 200 l 1,24,-1
200 200 m 1,28,-1
 200 280 l 1,29,-1
 280 280 l 1,30,-1
 280 200 l 1,31,-1
 200 200 l 1,28,-1
0 100 m 1,32,-1
 0 180 l 1,33,-1
 80 180 l 1,34,-1
 80 100 l 1,35,-1
 0 100 l 1,32,-1
100 100 m 1,36,-1
 100 180 l 1,37,-1
 180 180 l 1,38,-1
 180 100 l 1,39,-1
 100 100 l 1,36,-1
200 100 m 1,40,-1
 200 180 l 1,41,-1
 280 180 l 1,42,-1
 280 100 l 1,43,-1
 200 100 l 1,40,-1
EndSplineSet
EndChar

StartChar: V
Encoding: 86 86 86
Width: 400
VWidth: 0
LayerCount: 2
Fore
SplineSet
0 500 m 1,0,-1
 0 580 l 1,1,-1
 80 580 l 1,2,-1
 80 500 l 1,3,-1
 0 500 l 1,0,-1
200 500 m 1,4,-1
 200 580 l 1,5,-1
 280 580 l 1,6,-1
 280 500 l 1,7,-1
 200 500 l 1,4,-1
0 400 m 1,8,-1
 0 480 l 1,9,-1
 80 480 l 1,10,-1
 80 400 l 1,11,-1
 0 400 l 1,8,-1
200 400 m 1,12,-1
 200 480 l 1,13,-1
 280 480 l 1,14,-1
 280 400 l 1,15,-1
 200 400 l 1,12,-1
0 300 m 1,16,-1
 0 380 l 1,17,-1
 80 380 l 1,18,-1
 80 300 l 1,19,-1
 0 300 l 1,16,-1
200 300 m 1,20,-1
 200 380 l 1,21,-1
 280 380 l 1,22,-1
 280 300 l 1,23,-1
 200 300 l 1,20,-1
100 200 m 1,24,-1
 100 280 l 1,25,-1
 180 280 l 1,26,-1
 180 200 l 1,27,-1
 100 200 l 1,24,-1
100 100 m 1,28,-1
 100 180 l 1,29,-1
 180 180 l 1,30,-1
 180 100 l 1,31,-1
 100 100 l 1,28,-1
EndSplineSet
EndChar

StartChar: W
Encoding: 87 87 87
Width: 600
VWidth: 0
LayerCount: 2
Fore
SplineSet
0 500 m 1,0,-1
 0 580 l 1,1,-1
 80 580 l 1,2,-1
 80 500 l 1,3,-1
 0 500 l 1,0,-1
400 500 m 1,4,-1
 400 580 l 1,5,-1
 480 580 l 1,6,-1
 480 500 l 1,7,-1
 400 500 l 1,4,-1
0 400 m 1,8,-1
 0 480 l 1,9,-1
 80 480 l 1,10,-1
 80 400 l 1,11,-1
 0 400 l 1,8,-1
400 400 m 1,12,-1
 400 480 l 1,13,-1
 480 480 l 1,14,-1
 480 400 l 1,15,-1
 400 400 l 1,12,-1
0 300 m 1,16,-1
 0 380 l 1,17,-1
 80 380 l 1,18,-1
 80 300 l 1,19,-1
 0 300 l 1,16,-1
200 300 m 1,20,-1
 200 380 l 1,21,-1
 280 380 l 1,22,-1
 280 300 l 1,23,-1
 200 300 l 1,20,-1
400 300 m 1,24,-1
 400 380 l 1,25,-1
 480 380 l 1,26,-1
 480 300 l 1,27,-1
 400 300 l 1,24,-1
0 200 m 1,28,-1
 0 280 l 1,29,-1
 80 280 l 1,30,-1
 80 200 l 1,31,-1
 0 200 l 1,28,-1
100 200 m 1,32,-1
 100 280 l 1,33,-1
 180 280 l 1,34,-1
 180 200 l 1,35,-1
 100 200 l 1,32,-1
300 200 m 1,36,-1
 300 280 l 1,37,-1
 380 280 l 1,38,-1
 380 200 l 1,39,-1
 300 200 l 1,36,-1
400 200 m 1,40,-1
 400 280 l 1,41,-1
 480 280 l 1,42,-1
 480 200 l 1,43,-1
 400 200 l 1,40,-1
0 100 m 1,44,-1
 0 180 l 1,45,-1
 80 180 l 1,46,-1
 80 100 l 1,47,-1
 0 100 l 1,44,-1
400 100 m 1,48,-1
 400 180 l 1,49,-1
 480 180 l 1,50,-1
 480 100 l 1,51,-1
 400 100 l 1,48,-1
EndSplineSet
EndChar

StartChar: X
Encoding: 88 88 88
Width: 400
VWidth: 0
LayerCount: 2
Fore
SplineSet
0 500 m 1,0,-1
 0 580 l 1,1,-1
 80 580 l 1,2,-1
 80 500 l 1,3,-1
 0 500 l 1,0,-1
200 500 m 1,4,-1
 200 580 l 1,5,-1
 280 580 l 1,6,-1
 280 500 l 1,7,-1
 200 500 l 1,4,-1
0 400 m 1,8,-1
 0 480 l 1,9,-1
 80 480 l 1,10,-1
 80 400 l 1,11,-1
 0 400 l 1,8,-1
200 400 m 1,12,-1
 200 480 l 1,13,-1
 280 480 l 1,14,-1
 280 400 l 1,15,-1
 200 400 l 1,12,-1
100 300 m 1,16,-1
 100 380 l 1,17,-1
 180 380 l 1,18,-1
 180 300 l 1,19,-1
 100 300 l 1,16,-1
0 200 m 1,20,-1
 0 280 l 1,21,-1
 80 280 l 1,22,-1
 80 200 l 1,23,-1
 0 200 l 1,20,-1
200 200 m 1,24,-1
 200 280 l 1,25,-1
 280 280 l 1,26,-1
 280 200 l 1,27,-1
 200 200 l 1,24,-1
0 100 m 1,28,-1
 0 180 l 1,29,-1
 80 180 l 1,30,-1
 80 100 l 1,31,-1
 0 100 l 1,28,-1
200 100 m 1,32,-1
 200 180 l 1,33,-1
 280 180 l 1,34,-1
 280 100 l 1,35,-1
 200 100 l 1,32,-1
EndSplineSet
EndChar

StartChar: Y
Encoding: 89 89 89
Width: 400
VWidth: 0
LayerCount: 2
Fore
SplineSet
0 500 m 1,0,-1
 0 580 l 1,1,-1
 80 580 l 1,2,-1
 80 500 l 1,3,-1
 0 500 l 1,0,-1
200 500 m 1,4,-1
 200 580 l 1,5,-1
 280 580 l 1,6,-1
 280 500 l 1,7,-1
 200 500 l 1,4,-1
0 400 m 1,8,-1
 0 480 l 1,9,-1
 80 480 l 1,10,-1
 80 400 l 1,11,-1
 0 400 l 1,8,-1
200 400 m 1,12,-1
 200 480 l 1,13,-1
 280 480 l 1,14,-1
 280 400 l 1,15,-1
 200 400 l 1,12,-1
100 300 m 1,16,-1
 100 380 l 1,17,-1
 180 380 l 1,18,-1
 180 300 l 1,19,-1
 100 300 l 1,16,-1
100 200 m 1,20,-1
 100 280 l 1,21,-1
 180 280 l 1,22,-1
 180 200 l 1,23,-1
 100 200 l 1,20,-1
100 100 m 1,24,-1
 100 180 l 1,25,-1
 180 180 l 1,26,-1
 180 100 l 1,27,-1
 100 100 l 1,24,-1
EndSplineSet
EndChar

StartChar: Z
Encoding: 90 90 90
Width: 400
VWidth: 0
LayerCount: 2
Fore
SplineSet
0 500 m 1,0,-1
 0 580 l 1,1,-1
 80 580 l 1,2,-1
 80 500 l 1,3,-1
 0 500 l 1,0,-1
100 500 m 1,4,-1
 100 580 l 1,5,-1
 180 580 l 1,6,-1
 180 500 l 1,7,-1
 100 500 l 1,4,-1
200 500 m 1,8,-1
 200 580 l 1,9,-1
 280 580 l 1,10,-1
 280 500 l 1,11,-1
 200 500 l 1,8,-1
200 400 m 1,12,-1
 200 480 l 1,13,-1
 280 480 l 1,14,-1
 280 400 l 1,15,-1
 200 400 l 1,12,-1
100 300 m 1,16,-1
 100 380 l 1,17,-1
 180 380 l 1,18,-1
 180 300 l 1,19,-1
 100 300 l 1,16,-1
0 200 m 1,20,-1
 0 280 l 1,21,-1
 80 280 l 1,22,-1
 80 200 l 1,23,-1
 0 200 l 1,20,-1
0 100 m 1,24,-1
 0 180 l 1,25,-1
 80 180 l 1,26,-1
 80 100 l 1,27,-1
 0 100 l 1,24,-1
100 100 m 1,28,-1
 100 180 l 1,29,-1
 180 180 l 1,30,-1
 180 100 l 1,31,-1
 100 100 l 1,28,-1
200 100 m 1,32,-1
 200 180 l 1,33,-1
 280 180 l 1,34,-1
 280 100 l 1,35,-1
 200 100 l 1,32,-1
EndSplineSet
EndChar

StartChar: bracketleft
Encoding: 91 91 91
Width: 300
VWidth: 0
LayerCount: 2
Fore
SplineSet
0 500 m 1,0,-1
 0 580 l 1,1,-1
 80 580 l 1,2,-1
 80 500 l 1,3,-1
 0 500 l 1,0,-1
100 500 m 1,4,-1
 100 580 l 1,5,-1
 180 580 l 1,6,-1
 180 500 l 1,7,-1
 100 500 l 1,4,-1
0 400 m 1,8,-1
 0 480 l 1,9,-1
 80 480 l 1,10,-1
 80 400 l 1,11,-1
 0 400 l 1,8,-1
0 300 m 1,12,-1
 0 380 l 1,13,-1
 80 380 l 1,14,-1
 80 300 l 1,15,-1
 0 300 l 1,12,-1
0 200 m 1,16,-1
 0 280 l 1,17,-1
 80 280 l 1,18,-1
 80 200 l 1,19,-1
 0 200 l 1,16,-1
0 100 m 1,20,-1
 0 180 l 1,21,-1
 80 180 l 1,22,-1
 80 100 l 1,23,-1
 0 100 l 1,20,-1
100 100 m 1,24,-1
 100 180 l 1,25,-1
 180 180 l 1,26,-1
 180 100 l 1,27,-1
 100 100 l 1,24,-1
EndSplineSet
EndChar

StartChar: backslash
Encoding: 92 92 92
Width: 400
VWidth: 0
LayerCount: 2
Fore
SplineSet
0 500 m 1,0,-1
 0 580 l 1,1,-1
 80 580 l 1,2,-1
 80 500 l 1,3,-1
 0 500 l 1,0,-1
0 400 m 1,4,-1
 0 480 l 1,5,-1
 80 480 l 1,6,-1
 80 400 l 1,7,-1
 0 400 l 1,4,-1
100 300 m 1,8,-1
 100 380 l 1,9,-1
 180 380 l 1,10,-1
 180 300 l 1,11,-1
 100 300 l 1,8,-1
100 200 m 1,12,-1
 100 280 l 1,13,-1
 180 280 l 1,14,-1
 180 200 l 1,15,-1
 100 200 l 1,12,-1
200 100 m 1,16,-1
 200 180 l 1,17,-1
 280 180 l 1,18,-1
 280 100 l 1,19,-1
 200 100 l 1,16,-1
200 0 m 1,20,-1
 200 80 l 1,21,-1
 280 80 l 1,22,-1
 280 0 l 1,23,-1
 200 0 l 1,20,-1
EndSplineSet
EndChar

StartChar: bracketright
Encoding: 93 93 93
Width: 300
VWidth: 0
LayerCount: 2
Fore
SplineSet
0 500 m 1,0,-1
 0 580 l 1,1,-1
 80 580 l 1,2,-1
 80 500 l 1,3,-1
 0 500 l 1,0,-1
100 500 m 1,4,-1
 100 580 l 1,5,-1
 180 580 l 1,6,-1
 180 500 l 1,7,-1
 100 500 l 1,4,-1
100 400 m 1,8,-1
 100 480 l 1,9,-1
 180 480 l 1,10,-1
 180 400 l 1,11,-1
 100 400 l 1,8,-1
100 300 m 1,12,-1
 100 380 l 1,13,-1
 180 380 l 1,14,-1
 180 300 l 1,15,-1
 100 300 l 1,12,-1
100 200 m 1,16,-1
 100 280 l 1,17,-1
 180 280 l 1,18,-1
 180 200 l 1,19,-1
 100 200 l 1,16,-1
0 100 m 1,20,-1
 0 180 l 1,21,-1
 80 180 l 1,22,-1
 80 100 l 1,23,-1
 0 100 l 1,20,-1
100 100 m 1,24,-1
 100 180 l 1,25,-1
 180 180 l 1,26,-1
 180 100 l 1,27,-1
 100 100 l 1,24,-1
EndSplineSet
EndChar

StartChar: asciicircum
Encoding: 94 94 94
Width: 400
VWidth: 0
LayerCount: 2
Fore
SplineSet
100 500 m 1,0,-1
 100 580 l 1,1,-1
 180 580 l 1,2,-1
 180 500 l 1,3,-1
 100 500 l 1,0,-1
0 400 m 1,4,-1
 0 480 l 1,5,-1
 80 480 l 1,6,-1
 80 400 l 1,7,-1
 0 400 l 1,4,-1
200 400 m 1,8,-1
 200 480 l 1,9,-1
 280 480 l 1,10,-1
 280 400 l 1,11,-1
 200 400 l 1,8,-1
EndSplineSet
EndChar

StartChar: underscore
Encoding: 95 95 95
Width: 400
VWidth: 0
LayerCount: 2
Fore
SplineSet
0 0 m 1,0,-1
 0 80 l 1,1,-1
 80 80 l 1,2,-1
 80 0 l 1,3,-1
 0 0 l 1,0,-1
100 0 m 1,4,-1
 100 80 l 1,5,-1
 180 80 l 1,6,-1
 180 0 l 1,7,-1
 100 0 l 1,4,-1
200 0 m 1,8,-1
 200 80 l 1,9,-1
 280 80 l 1,10,-1
 280 0 l 1,11,-1
 200 0 l 1,8,-1
EndSplineSet
EndChar

StartChar: not
Encoding: 172 172 96
Width: 400
VWidth: 0
LayerCount: 2
Fore
SplineSet
0 300 m 1,0,-1
 0 380 l 1,1,-1
 80 380 l 1,2,-1
 80 300 l 1,3,-1
 0 300 l 1,0,-1
100 300 m 1,4,-1
 100 380 l 1,5,-1
 180 380 l 1,6,-1
 180 300 l 1,7,-1
 100 300 l 1,4,-1
200 300 m 1,8,-1
 200 380 l 1,9,-1
 280 380 l 1,10,-1
 280 300 l 1,11,-1
 200 300 l 1,8,-1
200 200 m 1,12,-1
 200 280 l 1,13,-1
 280 280 l 1,14,-1
 280 200 l 1,15,-1
 200 200 l 1,12,-1
EndSplineSet
EndChar

StartChar: a
Encoding: 97 97 97
Width: 400
VWidth: 0
LayerCount: 2
Fore
SplineSet
100 400 m 1,0,-1
 100 480 l 1,1,-1
 180 480 l 1,2,-1
 180 400 l 1,3,-1
 100 400 l 1,0,-1
200 400 m 1,4,-1
 200 480 l 1,5,-1
 280 480 l 1,6,-1
 280 400 l 1,7,-1
 200 400 l 1,4,-1
0 300 m 1,8,-1
 0 380 l 1,9,-1
 80 380 l 1,10,-1
 80 300 l 1,11,-1
 0 300 l 1,8,-1
200 300 m 1,12,-1
 200 380 l 1,13,-1
 280 380 l 1,14,-1
 280 300 l 1,15,-1
 200 300 l 1,12,-1
0 200 m 1,16,-1
 0 280 l 1,17,-1
 80 280 l 1,18,-1
 80 200 l 1,19,-1
 0 200 l 1,16,-1
200 200 m 1,20,-1
 200 280 l 1,21,-1
 280 280 l 1,22,-1
 280 200 l 1,23,-1
 200 200 l 1,20,-1
100 100 m 1,24,-1
 100 180 l 1,25,-1
 180 180 l 1,26,-1
 180 100 l 1,27,-1
 100 100 l 1,24,-1
200 100 m 1,28,-1
 200 180 l 1,29,-1
 280 180 l 1,30,-1
 280 100 l 1,31,-1
 200 100 l 1,28,-1
EndSplineSet
EndChar

StartChar: b
Encoding: 98 98 98
Width: 400
VWidth: 0
LayerCount: 2
Fore
SplineSet
0 500 m 1,0,-1
 0 580 l 1,1,-1
 80 580 l 1,2,-1
 80 500 l 1,3,-1
 0 500 l 1,0,-1
0 400 m 1,4,-1
 0 480 l 1,5,-1
 80 480 l 1,6,-1
 80 400 l 1,7,-1
 0 400 l 1,4,-1
100 400 m 1,8,-1
 100 480 l 1,9,-1
 180 480 l 1,10,-1
 180 400 l 1,11,-1
 100 400 l 1,8,-1
0 300 m 1,12,-1
 0 380 l 1,13,-1
 80 380 l 1,14,-1
 80 300 l 1,15,-1
 0 300 l 1,12,-1
200 300 m 1,16,-1
 200 380 l 1,17,-1
 280 380 l 1,18,-1
 280 300 l 1,19,-1
 200 300 l 1,16,-1
0 200 m 1,20,-1
 0 280 l 1,21,-1
 80 280 l 1,22,-1
 80 200 l 1,23,-1
 0 200 l 1,20,-1
200 200 m 1,24,-1
 200 280 l 1,25,-1
 280 280 l 1,26,-1
 280 200 l 1,27,-1
 200 200 l 1,24,-1
0 100 m 1,28,-1
 0 180 l 1,29,-1
 80 180 l 1,30,-1
 80 100 l 1,31,-1
 0 100 l 1,28,-1
100 100 m 1,32,-1
 100 180 l 1,33,-1
 180 180 l 1,34,-1
 180 100 l 1,35,-1
 100 100 l 1,32,-1
EndSplineSet
EndChar

StartChar: c
Encoding: 99 99 99
Width: 400
VWidth: 0
LayerCount: 2
Fore
SplineSet
100 400 m 1,0,-1
 100 480 l 1,1,-1
 180 480 l 1,2,-1
 180 400 l 1,3,-1
 100 400 l 1,0,-1
200 400 m 1,4,-1
 200 480 l 1,5,-1
 280 480 l 1,6,-1
 280 400 l 1,7,-1
 200 400 l 1,4,-1
0 300 m 1,8,-1
 0 380 l 1,9,-1
 80 380 l 1,10,-1
 80 300 l 1,11,-1
 0 300 l 1,8,-1
0 200 m 1,12,-1
 0 280 l 1,13,-1
 80 280 l 1,14,-1
 80 200 l 1,15,-1
 0 200 l 1,12,-1
100 100 m 1,16,-1
 100 180 l 1,17,-1
 180 180 l 1,18,-1
 180 100 l 1,19,-1
 100 100 l 1,16,-1
200 100 m 1,20,-1
 200 180 l 1,21,-1
 280 180 l 1,22,-1
 280 100 l 1,23,-1
 200 100 l 1,20,-1
EndSplineSet
EndChar

StartChar: d
Encoding: 100 100 100
Width: 400
VWidth: 0
LayerCount: 2
Fore
SplineSet
200 500 m 1,0,-1
 200 580 l 1,1,-1
 280 580 l 1,2,-1
 280 500 l 1,3,-1
 200 500 l 1,0,-1
100 400 m 1,4,-1
 100 480 l 1,5,-1
 180 480 l 1,6,-1
 180 400 l 1,7,-1
 100 400 l 1,4,-1
200 400 m 1,8,-1
 200 480 l 1,9,-1
 280 480 l 1,10,-1
 280 400 l 1,11,-1
 200 400 l 1,8,-1
0 300 m 1,12,-1
 0 380 l 1,13,-1
 80 380 l 1,14,-1
 80 300 l 1,15,-1
 0 300 l 1,12,-1
200 300 m 1,16,-1
 200 380 l 1,17,-1
 280 380 l 1,18,-1
 280 300 l 1,19,-1
 200 300 l 1,16,-1
0 200 m 1,20,-1
 0 280 l 1,21,-1
 80 280 l 1,22,-1
 80 200 l 1,23,-1
 0 200 l 1,20,-1
200 200 m 1,24,-1
 200 280 l 1,25,-1
 280 280 l 1,26,-1
 280 200 l 1,27,-1
 200 200 l 1,24,-1
100 100 m 1,28,-1
 100 180 l 1,29,-1
 180 180 l 1,30,-1
 180 100 l 1,31,-1
 100 100 l 1,28,-1
200 100 m 1,32,-1
 200 180 l 1,33,-1
 280 180 l 1,34,-1
 280 100 l 1,35,-1
 200 100 l 1,32,-1
EndSplineSet
EndChar

StartChar: e
Encoding: 101 101 101
Width: 400
VWidth: 0
LayerCount: 2
Fore
SplineSet
100 400 m 1,0,-1
 100 480 l 1,1,-1
 180 480 l 1,2,-1
 180 400 l 1,3,-1
 100 400 l 1,0,-1
200 400 m 1,4,-1
 200 480 l 1,5,-1
 280 480 l 1,6,-1
 280 400 l 1,7,-1
 200 400 l 1,4,-1
0 300 m 1,8,-1
 0 380 l 1,9,-1
 80 380 l 1,10,-1
 80 300 l 1,11,-1
 0 300 l 1,8,-1
200 300 m 1,12,-1
 200 380 l 1,13,-1
 280 380 l 1,14,-1
 280 300 l 1,15,-1
 200 300 l 1,12,-1
0 200 m 1,16,-1
 0 280 l 1,17,-1
 80 280 l 1,18,-1
 80 200 l 1,19,-1
 0 200 l 1,16,-1
100 200 m 1,20,-1
 100 280 l 1,21,-1
 180 280 l 1,22,-1
 180 200 l 1,23,-1
 100 200 l 1,20,-1
100 100 m 1,24,-1
 100 180 l 1,25,-1
 180 180 l 1,26,-1
 180 100 l 1,27,-1
 100 100 l 1,24,-1
200 100 m 1,28,-1
 200 180 l 1,29,-1
 280 180 l 1,30,-1
 280 100 l 1,31,-1
 200 100 l 1,28,-1
EndSplineSet
EndChar

StartChar: f
Encoding: 102 102 102
Width: 400
VWidth: 0
LayerCount: 2
Fore
SplineSet
100 500 m 1,0,-1
 100 580 l 1,1,-1
 180 580 l 1,2,-1
 180 500 l 1,3,-1
 100 500 l 1,0,-1
200 500 m 1,4,-1
 200 580 l 1,5,-1
 280 580 l 1,6,-1
 280 500 l 1,7,-1
 200 500 l 1,4,-1
100 400 m 1,8,-1
 100 480 l 1,9,-1
 180 480 l 1,10,-1
 180 400 l 1,11,-1
 100 400 l 1,8,-1
0 300 m 1,12,-1
 0 380 l 1,13,-1
 80 380 l 1,14,-1
 80 300 l 1,15,-1
 0 300 l 1,12,-1
100 300 m 1,16,-1
 100 380 l 1,17,-1
 180 380 l 1,18,-1
 180 300 l 1,19,-1
 100 300 l 1,16,-1
200 300 m 1,20,-1
 200 380 l 1,21,-1
 280 380 l 1,22,-1
 280 300 l 1,23,-1
 200 300 l 1,20,-1
100 200 m 1,24,-1
 100 280 l 1,25,-1
 180 280 l 1,26,-1
 180 200 l 1,27,-1
 100 200 l 1,24,-1
100 100 m 1,28,-1
 100 180 l 1,29,-1
 180 180 l 1,30,-1
 180 100 l 1,31,-1
 100 100 l 1,28,-1
EndSplineSet
EndChar

StartChar: g
Encoding: 103 103 103
Width: 400
VWidth: 0
LayerCount: 2
Fore
SplineSet
100 400 m 1,0,-1
 100 480 l 1,1,-1
 180 480 l 1,2,-1
 180 400 l 1,3,-1
 100 400 l 1,0,-1
200 400 m 1,4,-1
 200 480 l 1,5,-1
 280 480 l 1,6,-1
 280 400 l 1,7,-1
 200 400 l 1,4,-1
0 300 m 1,8,-1
 0 380 l 1,9,-1
 80 380 l 1,10,-1
 80 300 l 1,11,-1
 0 300 l 1,8,-1
200 300 m 1,12,-1
 200 380 l 1,13,-1
 280 380 l 1,14,-1
 280 300 l 1,15,-1
 200 300 l 1,12,-1
0 200 m 1,16,-1
 0 280 l 1,17,-1
 80 280 l 1,18,-1
 80 200 l 1,19,-1
 0 200 l 1,16,-1
100 200 m 1,20,-1
 100 280 l 1,21,-1
 180 280 l 1,22,-1
 180 200 l 1,23,-1
 100 200 l 1,20,-1
200 200 m 1,24,-1
 200 280 l 1,25,-1
 280 280 l 1,26,-1
 280 200 l 1,27,-1
 200 200 l 1,24,-1
200 100 m 1,28,-1
 200 180 l 1,29,-1
 280 180 l 1,30,-1
 280 100 l 1,31,-1
 200 100 l 1,28,-1
0 0 m 1,32,-1
 0 80 l 1,33,-1
 80 80 l 1,34,-1
 80 0 l 1,35,-1
 0 0 l 1,32,-1
100 0 m 1,36,-1
 100 80 l 1,37,-1
 180 80 l 1,38,-1
 180 0 l 1,39,-1
 100 0 l 1,36,-1
EndSplineSet
EndChar

StartChar: h
Encoding: 104 104 104
Width: 400
VWidth: 0
LayerCount: 2
Fore
SplineSet
0 500 m 1,0,-1
 0 580 l 1,1,-1
 80 580 l 1,2,-1
 80 500 l 1,3,-1
 0 500 l 1,0,-1
0 400 m 1,4,-1
 0 480 l 1,5,-1
 80 480 l 1,6,-1
 80 400 l 1,7,-1
 0 400 l 1,4,-1
100 400 m 1,8,-1
 100 480 l 1,9,-1
 180 480 l 1,10,-1
 180 400 l 1,11,-1
 100 400 l 1,8,-1
0 300 m 1,12,-1
 0 380 l 1,13,-1
 80 380 l 1,14,-1
 80 300 l 1,15,-1
 0 300 l 1,12,-1
200 300 m 1,16,-1
 200 380 l 1,17,-1
 280 380 l 1,18,-1
 280 300 l 1,19,-1
 200 300 l 1,16,-1
0 200 m 1,20,-1
 0 280 l 1,21,-1
 80 280 l 1,22,-1
 80 200 l 1,23,-1
 0 200 l 1,20,-1
200 200 m 1,24,-1
 200 280 l 1,25,-1
 280 280 l 1,26,-1
 280 200 l 1,27,-1
 200 200 l 1,24,-1
0 100 m 1,28,-1
 0 180 l 1,29,-1
 80 180 l 1,30,-1
 80 100 l 1,31,-1
 0 100 l 1,28,-1
200 100 m 1,32,-1
 200 180 l 1,33,-1
 280 180 l 1,34,-1
 280 100 l 1,35,-1
 200 100 l 1,32,-1
EndSplineSet
EndChar

StartChar: i
Encoding: 105 105 105
Width: 300
VWidth: 0
LayerCount: 2
Fore
SplineSet
0 500 m 1,0,-1
 0 580 l 1,1,-1
 80 580 l 1,2,-1
 80 500 l 1,3,-1
 0 500 l 1,0,-1
0 300 m 1,4,-1
 0 380 l 1,5,-1
 80 380 l 1,6,-1
 80 300 l 1,7,-1
 0 300 l 1,4,-1
0 200 m 1,8,-1
 0 280 l 1,9,-1
 80 280 l 1,10,-1
 80 200 l 1,11,-1
 0 200 l 1,8,-1
0 100 m 1,12,-1
 0 180 l 1,13,-1
 80 180 l 1,14,-1
 80 100 l 1,15,-1
 0 100 l 1,12,-1
100 100 m 1,16,-1
 100 180 l 1,17,-1
 180 180 l 1,18,-1
 180 100 l 1,19,-1
 100 100 l 1,16,-1
EndSplineSet
EndChar

StartChar: j
Encoding: 106 106 106
Width: 300
VWidth: 0
LayerCount: 2
Fore
SplineSet
100 500 m 1,0,-1
 100 580 l 1,1,-1
 180 580 l 1,2,-1
 180 500 l 1,3,-1
 100 500 l 1,0,-1
100 300 m 1,4,-1
 100 380 l 1,5,-1
 180 380 l 1,6,-1
 180 300 l 1,7,-1
 100 300 l 1,4,-1
100 200 m 1,8,-1
 100 280 l 1,9,-1
 180 280 l 1,10,-1
 180 200 l 1,11,-1
 100 200 l 1,8,-1
100 100 m 1,12,-1
 100 180 l 1,13,-1
 180 180 l 1,14,-1
 180 100 l 1,15,-1
 100 100 l 1,12,-1
0 0 m 1,16,-1
 0 80 l 1,17,-1
 80 80 l 1,18,-1
 80 0 l 1,19,-1
 0 0 l 1,16,-1
100 0 m 1,20,-1
 100 80 l 1,21,-1
 180 80 l 1,22,-1
 180 0 l 1,23,-1
 100 0 l 1,20,-1
EndSplineSet
EndChar

StartChar: k
Encoding: 107 107 107
Width: 400
VWidth: 0
LayerCount: 2
Fore
SplineSet
0 500 m 1,0,-1
 0 580 l 1,1,-1
 80 580 l 1,2,-1
 80 500 l 1,3,-1
 0 500 l 1,0,-1
0 400 m 1,4,-1
 0 480 l 1,5,-1
 80 480 l 1,6,-1
 80 400 l 1,7,-1
 0 400 l 1,4,-1
200 400 m 1,8,-1
 200 480 l 1,9,-1
 280 480 l 1,10,-1
 280 400 l 1,11,-1
 200 400 l 1,8,-1
0 300 m 1,12,-1
 0 380 l 1,13,-1
 80 380 l 1,14,-1
 80 300 l 1,15,-1
 0 300 l 1,12,-1
100 300 m 1,16,-1
 100 380 l 1,17,-1
 180 380 l 1,18,-1
 180 300 l 1,19,-1
 100 300 l 1,16,-1
0 200 m 1,20,-1
 0 280 l 1,21,-1
 80 280 l 1,22,-1
 80 200 l 1,23,-1
 0 200 l 1,20,-1
200 200 m 1,24,-1
 200 280 l 1,25,-1
 280 280 l 1,26,-1
 280 200 l 1,27,-1
 200 200 l 1,24,-1
0 100 m 1,28,-1
 0 180 l 1,29,-1
 80 180 l 1,30,-1
 80 100 l 1,31,-1
 0 100 l 1,28,-1
200 100 m 1,32,-1
 200 180 l 1,33,-1
 280 180 l 1,34,-1
 280 100 l 1,35,-1
 200 100 l 1,32,-1
EndSplineSet
EndChar

StartChar: l
Encoding: 108 108 108
Width: 300
VWidth: 0
LayerCount: 2
Fore
SplineSet
0 500 m 1,0,-1
 0 580 l 1,1,-1
 80 580 l 1,2,-1
 80 500 l 1,3,-1
 0 500 l 1,0,-1
0 400 m 1,4,-1
 0 480 l 1,5,-1
 80 480 l 1,6,-1
 80 400 l 1,7,-1
 0 400 l 1,4,-1
0 300 m 1,8,-1
 0 380 l 1,9,-1
 80 380 l 1,10,-1
 80 300 l 1,11,-1
 0 300 l 1,8,-1
0 200 m 1,12,-1
 0 280 l 1,13,-1
 80 280 l 1,14,-1
 80 200 l 1,15,-1
 0 200 l 1,12,-1
0 100 m 1,16,-1
 0 180 l 1,17,-1
 80 180 l 1,18,-1
 80 100 l 1,19,-1
 0 100 l 1,16,-1
100 100 m 1,20,-1
 100 180 l 1,21,-1
 180 180 l 1,22,-1
 180 100 l 1,23,-1
 100 100 l 1,20,-1
EndSplineSet
EndChar

StartChar: m
Encoding: 109 109 109
Width: 600
VWidth: 0
LayerCount: 2
Fore
SplineSet
0 400 m 1,0,-1
 0 480 l 1,1,-1
 80 480 l 1,2,-1
 80 400 l 1,3,-1
 0 400 l 1,0,-1
100 400 m 1,4,-1
 100 480 l 1,5,-1
 180 480 l 1,6,-1
 180 400 l 1,7,-1
 100 400 l 1,4,-1
200 400 m 1,8,-1
 200 480 l 1,9,-1
 280 480 l 1,10,-1
 280 400 l 1,11,-1
 200 400 l 1,8,-1
300 400 m 1,12,-1
 300 480 l 1,13,-1
 380 480 l 1,14,-1
 380 400 l 1,15,-1
 300 400 l 1,12,-1
0 300 m 1,16,-1
 0 380 l 1,17,-1
 80 380 l 1,18,-1
 80 300 l 1,19,-1
 0 300 l 1,16,-1
200 300 m 1,20,-1
 200 380 l 1,21,-1
 280 380 l 1,22,-1
 280 300 l 1,23,-1
 200 300 l 1,20,-1
400 300 m 1,24,-1
 400 380 l 1,25,-1
 480 380 l 1,26,-1
 480 300 l 1,27,-1
 400 300 l 1,24,-1
0 200 m 1,28,-1
 0 280 l 1,29,-1
 80 280 l 1,30,-1
 80 200 l 1,31,-1
 0 200 l 1,28,-1
200 200 m 1,32,-1
 200 280 l 1,33,-1
 280 280 l 1,34,-1
 280 200 l 1,35,-1
 200 200 l 1,32,-1
400 200 m 1,36,-1
 400 280 l 1,37,-1
 480 280 l 1,38,-1
 480 200 l 1,39,-1
 400 200 l 1,36,-1
0 100 m 1,40,-1
 0 180 l 1,41,-1
 80 180 l 1,42,-1
 80 100 l 1,43,-1
 0 100 l 1,40,-1
200 100 m 1,44,-1
 200 180 l 1,45,-1
 280 180 l 1,46,-1
 280 100 l 1,47,-1
 200 100 l 1,44,-1
400 100 m 1,48,-1
 400 180 l 1,49,-1
 480 180 l 1,50,-1
 480 100 l 1,51,-1
 400 100 l 1,48,-1
EndSplineSet
EndChar

StartChar: n
Encoding: 110 110 110
Width: 400
VWidth: 0
LayerCount: 2
Fore
SplineSet
0 400 m 1,0,-1
 0 480 l 1,1,-1
 80 480 l 1,2,-1
 80 400 l 1,3,-1
 0 400 l 1,0,-1
100 400 m 1,4,-1
 100 480 l 1,5,-1
 180 480 l 1,6,-1
 180 400 l 1,7,-1
 100 400 l 1,4,-1
0 300 m 1,8,-1
 0 380 l 1,9,-1
 80 380 l 1,10,-1
 80 300 l 1,11,-1
 0 300 l 1,8,-1
200 300 m 1,12,-1
 200 380 l 1,13,-1
 280 380 l 1,14,-1
 280 300 l 1,15,-1
 200 300 l 1,12,-1
0 200 m 1,16,-1
 0 280 l 1,17,-1
 80 280 l 1,18,-1
 80 200 l 1,19,-1
 0 200 l 1,16,-1
200 200 m 1,20,-1
 200 280 l 1,21,-1
 280 280 l 1,22,-1
 280 200 l 1,23,-1
 200 200 l 1,20,-1
0 100 m 1,24,-1
 0 180 l 1,25,-1
 80 180 l 1,26,-1
 80 100 l 1,27,-1
 0 100 l 1,24,-1
200 100 m 1,28,-1
 200 180 l 1,29,-1
 280 180 l 1,30,-1
 280 100 l 1,31,-1
 200 100 l 1,28,-1
EndSplineSet
EndChar

StartChar: o
Encoding: 111 111 111
Width: 400
VWidth: 0
LayerCount: 2
Fore
SplineSet
0 400 m 1,0,-1
 0 480 l 1,1,-1
 80 480 l 1,2,-1
 80 400 l 1,3,-1
 0 400 l 1,0,-1
100 400 m 1,4,-1
 100 480 l 1,5,-1
 180 480 l 1,6,-1
 180 400 l 1,7,-1
 100 400 l 1,4,-1
0 300 m 1,8,-1
 0 380 l 1,9,-1
 80 380 l 1,10,-1
 80 300 l 1,11,-1
 0 300 l 1,8,-1
200 300 m 1,12,-1
 200 380 l 1,13,-1
 280 380 l 1,14,-1
 280 300 l 1,15,-1
 200 300 l 1,12,-1
0 200 m 1,16,-1
 0 280 l 1,17,-1
 80 280 l 1,18,-1
 80 200 l 1,19,-1
 0 200 l 1,16,-1
200 200 m 1,20,-1
 200 280 l 1,21,-1
 280 280 l 1,22,-1
 280 200 l 1,23,-1
 200 200 l 1,20,-1
100 100 m 1,24,-1
 100 180 l 1,25,-1
 180 180 l 1,26,-1
 180 100 l 1,27,-1
 100 100 l 1,24,-1
200 100 m 1,28,-1
 200 180 l 1,29,-1
 280 180 l 1,30,-1
 280 100 l 1,31,-1
 200 100 l 1,28,-1
EndSplineSet
EndChar

StartChar: p
Encoding: 112 112 112
Width: 400
VWidth: 0
LayerCount: 2
Fore
SplineSet
0 400 m 1,0,-1
 0 480 l 1,1,-1
 80 480 l 1,2,-1
 80 400 l 1,3,-1
 0 400 l 1,0,-1
100 400 m 1,4,-1
 100 480 l 1,5,-1
 180 480 l 1,6,-1
 180 400 l 1,7,-1
 100 400 l 1,4,-1
0 300 m 1,8,-1
 0 380 l 1,9,-1
 80 380 l 1,10,-1
 80 300 l 1,11,-1
 0 300 l 1,8,-1
200 300 m 1,12,-1
 200 380 l 1,13,-1
 280 380 l 1,14,-1
 280 300 l 1,15,-1
 200 300 l 1,12,-1
0 200 m 1,16,-1
 0 280 l 1,17,-1
 80 280 l 1,18,-1
 80 200 l 1,19,-1
 0 200 l 1,16,-1
200 200 m 1,20,-1
 200 280 l 1,21,-1
 280 280 l 1,22,-1
 280 200 l 1,23,-1
 200 200 l 1,20,-1
0 100 m 1,24,-1
 0 180 l 1,25,-1
 80 180 l 1,26,-1
 80 100 l 1,27,-1
 0 100 l 1,24,-1
100 100 m 1,28,-1
 100 180 l 1,29,-1
 180 180 l 1,30,-1
 180 100 l 1,31,-1
 100 100 l 1,28,-1
0 0 m 1,32,-1
 0 80 l 1,33,-1
 80 80 l 1,34,-1
 80 0 l 1,35,-1
 0 0 l 1,32,-1
EndSplineSet
EndChar

StartChar: q
Encoding: 113 113 113
Width: 400
VWidth: 0
LayerCount: 2
Fore
SplineSet
100 400 m 1,0,-1
 100 480 l 1,1,-1
 180 480 l 1,2,-1
 180 400 l 1,3,-1
 100 400 l 1,0,-1
200 400 m 1,4,-1
 200 480 l 1,5,-1
 280 480 l 1,6,-1
 280 400 l 1,7,-1
 200 400 l 1,4,-1
0 300 m 1,8,-1
 0 380 l 1,9,-1
 80 380 l 1,10,-1
 80 300 l 1,11,-1
 0 300 l 1,8,-1
200 300 m 1,12,-1
 200 380 l 1,13,-1
 280 380 l 1,14,-1
 280 300 l 1,15,-1
 200 300 l 1,12,-1
0 200 m 1,16,-1
 0 280 l 1,17,-1
 80 280 l 1,18,-1
 80 200 l 1,19,-1
 0 200 l 1,16,-1
200 200 m 1,20,-1
 200 280 l 1,21,-1
 280 280 l 1,22,-1
 280 200 l 1,23,-1
 200 200 l 1,20,-1
100 100 m 1,24,-1
 100 180 l 1,25,-1
 180 180 l 1,26,-1
 180 100 l 1,27,-1
 100 100 l 1,24,-1
200 100 m 1,28,-1
 200 180 l 1,29,-1
 280 180 l 1,30,-1
 280 100 l 1,31,-1
 200 100 l 1,28,-1
200 0 m 1,32,-1
 200 80 l 1,33,-1
 280 80 l 1,34,-1
 280 0 l 1,35,-1
 200 0 l 1,32,-1
EndSplineSet
EndChar

StartChar: r
Encoding: 114 114 114
Width: 400
VWidth: 0
LayerCount: 2
Fore
SplineSet
100 400 m 1,0,-1
 100 480 l 1,1,-1
 180 480 l 1,2,-1
 180 400 l 1,3,-1
 100 400 l 1,0,-1
200 400 m 1,4,-1
 200 480 l 1,5,-1
 280 480 l 1,6,-1
 280 400 l 1,7,-1
 200 400 l 1,4,-1
0 300 m 1,8,-1
 0 380 l 1,9,-1
 80 380 l 1,10,-1
 80 300 l 1,11,-1
 0 300 l 1,8,-1
0 200 m 1,12,-1
 0 280 l 1,13,-1
 80 280 l 1,14,-1
 80 200 l 1,15,-1
 0 200 l 1,12,-1
0 100 m 1,16,-1
 0 180 l 1,17,-1
 80 180 l 1,18,-1
 80 100 l 1,19,-1
 0 100 l 1,16,-1
EndSplineSet
EndChar

StartChar: s
Encoding: 115 115 115
Width: 400
VWidth: 0
LayerCount: 2
Fore
SplineSet
0 400 m 1,0,-1
 0 480 l 1,1,-1
 80 480 l 1,2,-1
 80 400 l 1,3,-1
 0 400 l 1,0,-1
100 400 m 1,4,-1
 100 480 l 1,5,-1
 180 480 l 1,6,-1
 180 400 l 1,7,-1
 100 400 l 1,4,-1
200 400 m 1,8,-1
 200 480 l 1,9,-1
 280 480 l 1,10,-1
 280 400 l 1,11,-1
 200 400 l 1,8,-1
0 300 m 1,12,-1
 0 380 l 1,13,-1
 80 380 l 1,14,-1
 80 300 l 1,15,-1
 0 300 l 1,12,-1
200 200 m 1,16,-1
 200 280 l 1,17,-1
 280 280 l 1,18,-1
 280 200 l 1,19,-1
 200 200 l 1,16,-1
0 100 m 1,20,-1
 0 180 l 1,21,-1
 80 180 l 1,22,-1
 80 100 l 1,23,-1
 0 100 l 1,20,-1
100 100 m 1,24,-1
 100 180 l 1,25,-1
 180 180 l 1,26,-1
 180 100 l 1,27,-1
 100 100 l 1,24,-1
200 100 m 1,28,-1
 200 180 l 1,29,-1
 280 180 l 1,30,-1
 280 100 l 1,31,-1
 200 100 l 1,28,-1
EndSplineSet
EndChar

StartChar: t
Encoding: 116 116 116
Width: 400
VWidth: 0
LayerCount: 2
Fore
SplineSet
100 500 m 1,0,-1
 100 580 l 1,1,-1
 180 580 l 1,2,-1
 180 500 l 1,3,-1
 100 500 l 1,0,-1
0 400 m 1,4,-1
 0 480 l 1,5,-1
 80 480 l 1,6,-1
 80 400 l 1,7,-1
 0 400 l 1,4,-1
100 400 m 1,8,-1
 100 480 l 1,9,-1
 180 480 l 1,10,-1
 180 400 l 1,11,-1
 100 400 l 1,8,-1
200 400 m 1,12,-1
 200 480 l 1,13,-1
 280 480 l 1,14,-1
 280 400 l 1,15,-1
 200 400 l 1,12,-1
100 300 m 1,16,-1
 100 380 l 1,17,-1
 180 380 l 1,18,-1
 180 300 l 1,19,-1
 100 300 l 1,16,-1
100 200 m 1,20,-1
 100 280 l 1,21,-1
 180 280 l 1,22,-1
 180 200 l 1,23,-1
 100 200 l 1,20,-1
100 100 m 1,24,-1
 100 180 l 1,25,-1
 180 180 l 1,26,-1
 180 100 l 1,27,-1
 100 100 l 1,24,-1
200 100 m 1,28,-1
 200 180 l 1,29,-1
 280 180 l 1,30,-1
 280 100 l 1,31,-1
 200 100 l 1,28,-1
EndSplineSet
EndChar

StartChar: u
Encoding: 117 117 117
Width: 400
VWidth: 0
LayerCount: 2
Fore
SplineSet
0 400 m 1,0,-1
 0 480 l 1,1,-1
 80 480 l 1,2,-1
 80 400 l 1,3,-1
 0 400 l 1,0,-1
200 400 m 1,4,-1
 200 480 l 1,5,-1
 280 480 l 1,6,-1
 280 400 l 1,7,-1
 200 400 l 1,4,-1
0 300 m 1,8,-1
 0 380 l 1,9,-1
 80 380 l 1,10,-1
 80 300 l 1,11,-1
 0 300 l 1,8,-1
200 300 m 1,12,-1
 200 380 l 1,13,-1
 280 380 l 1,14,-1
 280 300 l 1,15,-1
 200 300 l 1,12,-1
0 200 m 1,16,-1
 0 280 l 1,17,-1
 80 280 l 1,18,-1
 80 200 l 1,19,-1
 0 200 l 1,16,-1
200 200 m 1,20,-1
 200 280 l 1,21,-1
 280 280 l 1,22,-1
 280 200 l 1,23,-1
 200 200 l 1,20,-1
100 100 m 1,24,-1
 100 180 l 1,25,-1
 180 180 l 1,26,-1
 180 100 l 1,27,-1
 100 100 l 1,24,-1
200 100 m 1,28,-1
 200 180 l 1,29,-1
 280 180 l 1,30,-1
 280 100 l 1,31,-1
 200 100 l 1,28,-1
EndSplineSet
EndChar

StartChar: v
Encoding: 118 118 118
Width: 400
VWidth: 0
LayerCount: 2
Fore
SplineSet
0 400 m 1,0,-1
 0 480 l 1,1,-1
 80 480 l 1,2,-1
 80 400 l 1,3,-1
 0 400 l 1,0,-1
200 400 m 1,4,-1
 200 480 l 1,5,-1
 280 480 l 1,6,-1
 280 400 l 1,7,-1
 200 400 l 1,4,-1
0 300 m 1,8,-1
 0 380 l 1,9,-1
 80 380 l 1,10,-1
 80 300 l 1,11,-1
 0 300 l 1,8,-1
200 300 m 1,12,-1
 200 380 l 1,13,-1
 280 380 l 1,14,-1
 280 300 l 1,15,-1
 200 300 l 1,12,-1
0 200 m 1,16,-1
 0 280 l 1,17,-1
 80 280 l 1,18,-1
 80 200 l 1,19,-1
 0 200 l 1,16,-1
100 200 m 1,20,-1
 100 280 l 1,21,-1
 180 280 l 1,22,-1
 180 200 l 1,23,-1
 100 200 l 1,20,-1
200 200 m 1,24,-1
 200 280 l 1,25,-1
 280 280 l 1,26,-1
 280 200 l 1,27,-1
 200 200 l 1,24,-1
100 100 m 1,28,-1
 100 180 l 1,29,-1
 180 180 l 1,30,-1
 180 100 l 1,31,-1
 100 100 l 1,28,-1
EndSplineSet
EndChar

StartChar: w
Encoding: 119 119 119
Width: 600
VWidth: 0
LayerCount: 2
Fore
SplineSet
0 400 m 1,0,-1
 0 480 l 1,1,-1
 80 480 l 1,2,-1
 80 400 l 1,3,-1
 0 400 l 1,0,-1
400 400 m 1,4,-1
 400 480 l 1,5,-1
 480 480 l 1,6,-1
 480 400 l 1,7,-1
 400 400 l 1,4,-1
0 300 m 1,8,-1
 0 380 l 1,9,-1
 80 380 l 1,10,-1
 80 300 l 1,11,-1
 0 300 l 1,8,-1
200 300 m 1,12,-1
 200 380 l 1,13,-1
 280 380 l 1,14,-1
 280 300 l 1,15,-1
 200 300 l 1,12,-1
400 300 m 1,16,-1
 400 380 l 1,17,-1
 480 380 l 1,18,-1
 480 300 l 1,19,-1
 400 300 l 1,16,-1
0 200 m 1,20,-1
 0 280 l 1,21,-1
 80 280 l 1,22,-1
 80 200 l 1,23,-1
 0 200 l 1,20,-1
200 200 m 1,24,-1
 200 280 l 1,25,-1
 280 280 l 1,26,-1
 280 200 l 1,27,-1
 200 200 l 1,24,-1
400 200 m 1,28,-1
 400 280 l 1,29,-1
 480 280 l 1,30,-1
 480 200 l 1,31,-1
 400 200 l 1,28,-1
100 100 m 1,32,-1
 100 180 l 1,33,-1
 180 180 l 1,34,-1
 180 100 l 1,35,-1
 100 100 l 1,32,-1
300 100 m 1,36,-1
 300 180 l 1,37,-1
 380 180 l 1,38,-1
 380 100 l 1,39,-1
 300 100 l 1,36,-1
EndSplineSet
EndChar

StartChar: x
Encoding: 120 120 120
Width: 400
VWidth: 0
LayerCount: 2
Fore
SplineSet
0 400 m 1,0,-1
 0 480 l 1,1,-1
 80 480 l 1,2,-1
 80 400 l 1,3,-1
 0 400 l 1,0,-1
200 400 m 1,4,-1
 200 480 l 1,5,-1
 280 480 l 1,6,-1
 280 400 l 1,7,-1
 200 400 l 1,4,-1
100 300 m 1,8,-1
 100 380 l 1,9,-1
 180 380 l 1,10,-1
 180 300 l 1,11,-1
 100 300 l 1,8,-1
100 200 m 1,12,-1
 100 280 l 1,13,-1
 180 280 l 1,14,-1
 180 200 l 1,15,-1
 100 200 l 1,12,-1
0 100 m 1,16,-1
 0 180 l 1,17,-1
 80 180 l 1,18,-1
 80 100 l 1,19,-1
 0 100 l 1,16,-1
200 100 m 1,20,-1
 200 180 l 1,21,-1
 280 180 l 1,22,-1
 280 100 l 1,23,-1
 200 100 l 1,20,-1
EndSplineSet
EndChar

StartChar: y
Encoding: 121 121 121
Width: 400
VWidth: 0
LayerCount: 2
Fore
SplineSet
0 400 m 1,0,-1
 0 480 l 1,1,-1
 80 480 l 1,2,-1
 80 400 l 1,3,-1
 0 400 l 1,0,-1
200 400 m 1,4,-1
 200 480 l 1,5,-1
 280 480 l 1,6,-1
 280 400 l 1,7,-1
 200 400 l 1,4,-1
0 300 m 1,8,-1
 0 380 l 1,9,-1
 80 380 l 1,10,-1
 80 300 l 1,11,-1
 0 300 l 1,8,-1
200 300 m 1,12,-1
 200 380 l 1,13,-1
 280 380 l 1,14,-1
 280 300 l 1,15,-1
 200 300 l 1,12,-1
100 200 m 1,16,-1
 100 280 l 1,17,-1
 180 280 l 1,18,-1
 180 200 l 1,19,-1
 100 200 l 1,16,-1
200 200 m 1,20,-1
 200 280 l 1,21,-1
 280 280 l 1,22,-1
 280 200 l 1,23,-1
 200 200 l 1,20,-1
200 100 m 1,24,-1
 200 180 l 1,25,-1
 280 180 l 1,26,-1
 280 100 l 1,27,-1
 200 100 l 1,24,-1
0 0 m 1,28,-1
 0 80 l 1,29,-1
 80 80 l 1,30,-1
 80 0 l 1,31,-1
 0 0 l 1,28,-1
100 0 m 1,32,-1
 100 80 l 1,33,-1
 180 80 l 1,34,-1
 180 0 l 1,35,-1
 100 0 l 1,32,-1
EndSplineSet
EndChar

StartChar: z
Encoding: 122 122 122
Width: 400
VWidth: 0
LayerCount: 2
Fore
SplineSet
0 400 m 1,0,-1
 0 480 l 1,1,-1
 80 480 l 1,2,-1
 80 400 l 1,3,-1
 0 400 l 1,0,-1
100 400 m 1,4,-1
 100 480 l 1,5,-1
 180 480 l 1,6,-1
 180 400 l 1,7,-1
 100 400 l 1,4,-1
200 400 m 1,8,-1
 200 480 l 1,9,-1
 280 480 l 1,10,-1
 280 400 l 1,11,-1
 200 400 l 1,8,-1
200 300 m 1,12,-1
 200 380 l 1,13,-1
 280 380 l 1,14,-1
 280 300 l 1,15,-1
 200 300 l 1,12,-1
0 200 m 1,16,-1
 0 280 l 1,17,-1
 80 280 l 1,18,-1
 80 200 l 1,19,-1
 0 200 l 1,16,-1
0 100 m 1,20,-1
 0 180 l 1,21,-1
 80 180 l 1,22,-1
 80 100 l 1,23,-1
 0 100 l 1,20,-1
100 100 m 1,24,-1
 100 180 l 1,25,-1
 180 180 l 1,26,-1
 180 100 l 1,27,-1
 100 100 l 1,24,-1
200 100 m 1,28,-1
 200 180 l 1,29,-1
 280 180 l 1,30,-1
 280 100 l 1,31,-1
 200 100 l 1,28,-1
EndSplineSet
EndChar

StartChar: braceleft
Encoding: 123 123 123
Width: 400
VWidth: 0
LayerCount: 2
Fore
SplineSet
100 500 m 1,0,-1
 100 580 l 1,1,-1
 180 580 l 1,2,-1
 180 500 l 1,3,-1
 100 500 l 1,0,-1
200 500 m 1,4,-1
 200 580 l 1,5,-1
 280 580 l 1,6,-1
 280 500 l 1,7,-1
 200 500 l 1,4,-1
100 400 m 1,8,-1
 100 480 l 1,9,-1
 180 480 l 1,10,-1
 180 400 l 1,11,-1
 100 400 l 1,8,-1
0 300 m 1,12,-1
 0 380 l 1,13,-1
 80 380 l 1,14,-1
 80 300 l 1,15,-1
 0 300 l 1,12,-1
100 300 m 1,16,-1
 100 380 l 1,17,-1
 180 380 l 1,18,-1
 180 300 l 1,19,-1
 100 300 l 1,16,-1
100 200 m 1,20,-1
 100 280 l 1,21,-1
 180 280 l 1,22,-1
 180 200 l 1,23,-1
 100 200 l 1,20,-1
100 100 m 1,24,-1
 100 180 l 1,25,-1
 180 180 l 1,26,-1
 180 100 l 1,27,-1
 100 100 l 1,24,-1
200 100 m 1,28,-1
 200 180 l 1,29,-1
 280 180 l 1,30,-1
 280 100 l 1,31,-1
 200 100 l 1,28,-1
EndSplineSet
EndChar

StartChar: bar
Encoding: 124 124 124
Width: 200
VWidth: 0
LayerCount: 2
Fore
SplineSet
0 500 m 1,0,-1
 0 580 l 1,1,-1
 80 580 l 1,2,-1
 80 500 l 1,3,-1
 0 500 l 1,0,-1
0 400 m 1,4,-1
 0 480 l 1,5,-1
 80 480 l 1,6,-1
 80 400 l 1,7,-1
 0 400 l 1,4,-1
0 300 m 1,8,-1
 0 380 l 1,9,-1
 80 380 l 1,10,-1
 80 300 l 1,11,-1
 0 300 l 1,8,-1
0 200 m 1,12,-1
 0 280 l 1,13,-1
 80 280 l 1,14,-1
 80 200 l 1,15,-1
 0 200 l 1,12,-1
0 100 m 1,16,-1
 0 180 l 1,17,-1
 80 180 l 1,18,-1
 80 100 l 1,19,-1
 0 100 l 1,16,-1
0 0 m 1,20,-1
 0 80 l 1,21,-1
 80 80 l 1,22,-1
 80 0 l 1,23,-1
 0 0 l 1,20,-1
EndSplineSet
EndChar

StartChar: braceright
Encoding: 125 125 125
Width: 400
VWidth: 0
LayerCount: 2
Fore
SplineSet
0 500 m 1,0,-1
 0 580 l 1,1,-1
 80 580 l 1,2,-1
 80 500 l 1,3,-1
 0 500 l 1,0,-1
100 500 m 1,4,-1
 100 580 l 1,5,-1
 180 580 l 1,6,-1
 180 500 l 1,7,-1
 100 500 l 1,4,-1
100 400 m 1,8,-1
 100 480 l 1,9,-1
 180 480 l 1,10,-1
 180 400 l 1,11,-1
 100 400 l 1,8,-1
100 300 m 1,12,-1
 100 380 l 1,13,-1
 180 380 l 1,14,-1
 180 300 l 1,15,-1
 100 300 l 1,12,-1
200 300 m 1,16,-1
 200 380 l 1,17,-1
 280 380 l 1,18,-1
 280 300 l 1,19,-1
 200 300 l 1,16,-1
100 200 m 1,20,-1
 100 280 l 1,21,-1
 180 280 l 1,22,-1
 180 200 l 1,23,-1
 100 200 l 1,20,-1
0 100 m 1,24,-1
 0 180 l 1,25,-1
 80 180 l 1,26,-1
 80 100 l 1,27,-1
 0 100 l 1,24,-1
100 100 m 1,28,-1
 100 180 l 1,29,-1
 180 180 l 1,30,-1
 180 100 l 1,31,-1
 100 100 l 1,28,-1
EndSplineSet
EndChar

StartChar: asciitilde
Encoding: 126 126 126
Width: 500
VWidth: 0
LayerCount: 2
Fore
SplineSet
100 400 m 1,0,-1
 100 480 l 1,1,-1
 180 480 l 1,2,-1
 180 400 l 1,3,-1
 100 400 l 1,0,-1
300 400 m 1,4,-1
 300 480 l 1,5,-1
 380 480 l 1,6,-1
 380 400 l 1,7,-1
 300 400 l 1,4,-1
0 300 m 1,8,-1
 0 380 l 1,9,-1
 80 380 l 1,10,-1
 80 300 l 1,11,-1
 0 300 l 1,8,-1
200 300 m 1,12,-1
 200 380 l 1,13,-1
 280 380 l 1,14,-1
 280 300 l 1,15,-1
 200 300 l 1,12,-1
EndSplineSet
EndChar

StartChar: updown
Encoding: 8597 8597 127
Width: 400
VWidth: 0
LayerCount: 2
Fore
SplineSet
100 500 m 1,0,-1
 100 580 l 1,1,-1
 180 580 l 1,2,-1
 180 500 l 1,3,-1
 100 500 l 1,0,-1
0 400 m 1,4,-1
 0 480 l 1,5,-1
 80 480 l 1,6,-1
 80 400 l 1,7,-1
 0 400 l 1,4,-1
100 400 m 1,8,-1
 100 480 l 1,9,-1
 180 480 l 1,10,-1
 180 400 l 1,11,-1
 100 400 l 1,8,-1
200 400 m 1,12,-1
 200 480 l 1,13,-1
 280 480 l 1,14,-1
 280 400 l 1,15,-1
 200 400 l 1,12,-1
0 100 m 1,16,-1
 0 180 l 1,17,-1
 80 180 l 1,18,-1
 80 100 l 1,19,-1
 0 100 l 1,16,-1
100 100 m 1,20,-1
 100 180 l 1,21,-1
 180 180 l 1,22,-1
 180 100 l 1,23,-1
 100 100 l 1,20,-1
200 100 m 1,24,-1
 200 180 l 1,25,-1
 280 180 l 1,26,-1
 280 100 l 1,27,-1
 200 100 l 1,24,-1
100 0 m 1,28,-1
 100 80 l 1,29,-1
 180 80 l 1,30,-1
 180 0 l 1,31,-1
 100 0 l 1,28,-1
EndSplineSet
EndChar

StartChar: super3
Encoding: 179 179 128
Width: 400
VWidth: 0
LayerCount: 2
Fore
SplineSet
0 500 m 1,0,-1
 0 580 l 1,1,-1
 80 580 l 1,2,-1
 80 500 l 1,3,-1
 0 500 l 1,0,-1
100 500 m 1,4,-1
 100 580 l 1,5,-1
 180 580 l 1,6,-1
 180 500 l 1,7,-1
 100 500 l 1,4,-1
100 400 m 1,8,-1
 100 480 l 1,9,-1
 180 480 l 1,10,-1
 180 400 l 1,11,-1
 100 400 l 1,8,-1
200 300 m 1,12,-1
 200 380 l 1,13,-1
 280 380 l 1,14,-1
 280 300 l 1,15,-1
 200 300 l 1,12,-1
0 200 m 1,16,-1
 0 280 l 1,17,-1
 80 280 l 1,18,-1
 80 200 l 1,19,-1
 0 200 l 1,16,-1
100 200 m 1,20,-1
 100 280 l 1,21,-1
 180 280 l 1,22,-1
 180 200 l 1,23,-1
 100 200 l 1,20,-1
200 200 m 1,24,-1
 200 280 l 1,25,-1
 280 280 l 1,26,-1
 280 200 l 1,27,-1
 200 200 l 1,24,-1
EndSplineSet
EndChar

StartChar: subw
Encoding: 57352 57352 129
Width: 600
VWidth: 0
LayerCount: 2
Fore
SplineSet
0 100 m 1,0,-1
 0 180 l 1,1,-1
 80 180 l 1,2,-1
 80 100 l 1,3,-1
 0 100 l 1,0,-1
200 100 m 1,4,-1
 200 180 l 1,5,-1
 280 180 l 1,6,-1
 280 100 l 1,7,-1
 200 100 l 1,4,-1
400 100 m 1,8,-1
 400 180 l 1,9,-1
 480 180 l 1,10,-1
 480 100 l 1,11,-1
 400 100 l 1,8,-1
0 0 m 1,12,-1
 0 80 l 1,13,-1
 80 80 l 1,14,-1
 80 0 l 1,15,-1
 0 0 l 1,12,-1
100 0 m 1,16,-1
 100 80 l 1,17,-1
 180 80 l 1,18,-1
 180 0 l 1,19,-1
 100 0 l 1,16,-1
200 0 m 1,20,-1
 200 80 l 1,21,-1
 280 80 l 1,22,-1
 280 0 l 1,23,-1
 200 0 l 1,20,-1
300 0 m 1,24,-1
 300 80 l 1,25,-1
 380 80 l 1,26,-1
 380 0 l 1,27,-1
 300 0 l 1,24,-1
400 0 m 1,28,-1
 400 80 l 1,29,-1
 480 80 l 1,30,-1
 480 0 l 1,31,-1
 400 0 l 1,28,-1
EndSplineSet
EndChar

StartChar: GAMMA
Encoding: 915 915 130
Width: 400
VWidth: 0
LayerCount: 2
Fore
SplineSet
0 500 m 1,0,-1
 0 580 l 1,1,-1
 80 580 l 1,2,-1
 80 500 l 1,3,-1
 0 500 l 1,0,-1
100 500 m 1,4,-1
 100 580 l 1,5,-1
 180 580 l 1,6,-1
 180 500 l 1,7,-1
 100 500 l 1,4,-1
200 500 m 1,8,-1
 200 580 l 1,9,-1
 280 580 l 1,10,-1
 280 500 l 1,11,-1
 200 500 l 1,8,-1
0 400 m 1,12,-1
 0 480 l 1,13,-1
 80 480 l 1,14,-1
 80 400 l 1,15,-1
 0 400 l 1,12,-1
0 300 m 1,16,-1
 0 380 l 1,17,-1
 80 380 l 1,18,-1
 80 300 l 1,19,-1
 0 300 l 1,16,-1
0 200 m 1,20,-1
 0 280 l 1,21,-1
 80 280 l 1,22,-1
 80 200 l 1,23,-1
 0 200 l 1,20,-1
0 100 m 1,24,-1
 0 180 l 1,25,-1
 80 180 l 1,26,-1
 80 100 l 1,27,-1
 0 100 l 1,24,-1
EndSplineSet
EndChar

StartChar: DELTA
Encoding: 916 916 131
Width: 500
VWidth: 0
LayerCount: 2
Fore
SplineSet
300 500 m 1,0,-1
 300 580 l 1,1,-1
 380 580 l 1,2,-1
 380 500 l 1,3,-1
 300 500 l 1,0,-1
200 400 m 1,4,-1
 200 480 l 1,5,-1
 280 480 l 1,6,-1
 280 400 l 1,7,-1
 200 400 l 1,4,-1
300 400 m 1,8,-1
 300 480 l 1,9,-1
 380 480 l 1,10,-1
 380 400 l 1,11,-1
 300 400 l 1,8,-1
100 300 m 1,12,-1
 100 380 l 1,13,-1
 180 380 l 1,14,-1
 180 300 l 1,15,-1
 100 300 l 1,12,-1
300 300 m 1,16,-1
 300 380 l 1,17,-1
 380 380 l 1,18,-1
 380 300 l 1,19,-1
 300 300 l 1,16,-1
0 200 m 1,20,-1
 0 280 l 1,21,-1
 80 280 l 1,22,-1
 80 200 l 1,23,-1
 0 200 l 1,20,-1
300 200 m 1,24,-1
 300 280 l 1,25,-1
 380 280 l 1,26,-1
 380 200 l 1,27,-1
 300 200 l 1,24,-1
0 100 m 1,28,-1
 0 180 l 1,29,-1
 80 180 l 1,30,-1
 80 100 l 1,31,-1
 0 100 l 1,28,-1
100 100 m 1,32,-1
 100 180 l 1,33,-1
 180 180 l 1,34,-1
 180 100 l 1,35,-1
 100 100 l 1,32,-1
200 100 m 1,36,-1
 200 180 l 1,37,-1
 280 180 l 1,38,-1
 280 100 l 1,39,-1
 200 100 l 1,36,-1
300 100 m 1,40,-1
 300 180 l 1,41,-1
 380 180 l 1,42,-1
 380 100 l 1,43,-1
 300 100 l 1,40,-1
EndSplineSet
EndChar

StartChar: Dbar
Encoding: 208 208 132
Width: 500
VWidth: 0
LayerCount: 2
Fore
SplineSet
100 500 m 1,0,-1
 100 580 l 1,1,-1
 180 580 l 1,2,-1
 180 500 l 1,3,-1
 100 500 l 1,0,-1
200 500 m 1,4,-1
 200 580 l 1,5,-1
 280 580 l 1,6,-1
 280 500 l 1,7,-1
 200 500 l 1,4,-1
100 400 m 1,8,-1
 100 480 l 1,9,-1
 180 480 l 1,10,-1
 180 400 l 1,11,-1
 100 400 l 1,8,-1
300 400 m 1,12,-1
 300 480 l 1,13,-1
 380 480 l 1,14,-1
 380 400 l 1,15,-1
 300 400 l 1,12,-1
0 300 m 1,16,-1
 0 380 l 1,17,-1
 80 380 l 1,18,-1
 80 300 l 1,19,-1
 0 300 l 1,16,-1
100 300 m 1,20,-1
 100 380 l 1,21,-1
 180 380 l 1,22,-1
 180 300 l 1,23,-1
 100 300 l 1,20,-1
300 300 m 1,24,-1
 300 380 l 1,25,-1
 380 380 l 1,26,-1
 380 300 l 1,27,-1
 300 300 l 1,24,-1
100 200 m 1,28,-1
 100 280 l 1,29,-1
 180 280 l 1,30,-1
 180 200 l 1,31,-1
 100 200 l 1,28,-1
300 200 m 1,32,-1
 300 280 l 1,33,-1
 380 280 l 1,34,-1
 380 200 l 1,35,-1
 300 200 l 1,32,-1
100 100 m 1,36,-1
 100 180 l 1,37,-1
 180 180 l 1,38,-1
 180 100 l 1,39,-1
 100 100 l 1,36,-1
200 100 m 1,40,-1
 200 180 l 1,41,-1
 280 180 l 1,42,-1
 280 100 l 1,43,-1
 200 100 l 1,40,-1
EndSplineSet
EndChar

StartChar: dbar
Encoding: 240 240 133
Width: 500
VWidth: 0
LayerCount: 2
Fore
SplineSet
200 500 m 1,0,-1
 200 580 l 1,1,-1
 280 580 l 1,2,-1
 280 500 l 1,3,-1
 200 500 l 1,0,-1
100 400 m 1,4,-1
 100 480 l 1,5,-1
 180 480 l 1,6,-1
 180 400 l 1,7,-1
 100 400 l 1,4,-1
200 400 m 1,8,-1
 200 480 l 1,9,-1
 280 480 l 1,10,-1
 280 400 l 1,11,-1
 200 400 l 1,8,-1
300 400 m 1,12,-1
 300 480 l 1,13,-1
 380 480 l 1,14,-1
 380 400 l 1,15,-1
 300 400 l 1,12,-1
0 300 m 1,16,-1
 0 380 l 1,17,-1
 80 380 l 1,18,-1
 80 300 l 1,19,-1
 0 300 l 1,16,-1
200 300 m 1,20,-1
 200 380 l 1,21,-1
 280 380 l 1,22,-1
 280 300 l 1,23,-1
 200 300 l 1,20,-1
0 200 m 1,24,-1
 0 280 l 1,25,-1
 80 280 l 1,26,-1
 80 200 l 1,27,-1
 0 200 l 1,24,-1
200 200 m 1,28,-1
 200 280 l 1,29,-1
 280 280 l 1,30,-1
 280 200 l 1,31,-1
 200 200 l 1,28,-1
100 100 m 1,32,-1
 100 180 l 1,33,-1
 180 180 l 1,34,-1
 180 100 l 1,35,-1
 100 100 l 1,32,-1
200 100 m 1,36,-1
 200 180 l 1,37,-1
 280 180 l 1,38,-1
 280 100 l 1,39,-1
 200 100 l 1,36,-1
EndSplineSet
EndChar

StartChar: subd
Encoding: 57353 57353 134
Width: 300
VWidth: 0
LayerCount: 2
Fore
SplineSet
100 200 m 1,0,-1
 100 280 l 1,1,-1
 180 280 l 1,2,-1
 180 200 l 1,3,-1
 100 200 l 1,0,-1
0 100 m 1,4,-1
 0 180 l 1,5,-1
 80 180 l 1,6,-1
 80 100 l 1,7,-1
 0 100 l 1,4,-1
100 100 m 1,8,-1
 100 180 l 1,9,-1
 180 180 l 1,10,-1
 180 100 l 1,11,-1
 100 100 l 1,8,-1
0 0 m 1,12,-1
 0 80 l 1,13,-1
 80 80 l 1,14,-1
 80 0 l 1,15,-1
 0 0 l 1,12,-1
100 0 m 1,16,-1
 100 80 l 1,17,-1
 180 80 l 1,18,-1
 180 0 l 1,19,-1
 100 0 l 1,16,-1
EndSplineSet
EndChar

StartChar: THETA
Encoding: 920 920 135
Width: 500
VWidth: 0
LayerCount: 2
Fore
SplineSet
100 500 m 1,0,-1
 100 580 l 1,1,-1
 180 580 l 1,2,-1
 180 500 l 1,3,-1
 100 500 l 1,0,-1
200 500 m 1,4,-1
 200 580 l 1,5,-1
 280 580 l 1,6,-1
 280 500 l 1,7,-1
 200 500 l 1,4,-1
0 400 m 1,8,-1
 0 480 l 1,9,-1
 80 480 l 1,10,-1
 80 400 l 1,11,-1
 0 400 l 1,8,-1
300 400 m 1,12,-1
 300 480 l 1,13,-1
 380 480 l 1,14,-1
 380 400 l 1,15,-1
 300 400 l 1,12,-1
0 300 m 1,16,-1
 0 380 l 1,17,-1
 80 380 l 1,18,-1
 80 300 l 1,19,-1
 0 300 l 1,16,-1
100 300 m 1,20,-1
 100 380 l 1,21,-1
 180 380 l 1,22,-1
 180 300 l 1,23,-1
 100 300 l 1,20,-1
200 300 m 1,24,-1
 200 380 l 1,25,-1
 280 380 l 1,26,-1
 280 300 l 1,27,-1
 200 300 l 1,24,-1
300 300 m 1,28,-1
 300 380 l 1,29,-1
 380 380 l 1,30,-1
 380 300 l 1,31,-1
 300 300 l 1,28,-1
0 200 m 1,32,-1
 0 280 l 1,33,-1
 80 280 l 1,34,-1
 80 200 l 1,35,-1
 0 200 l 1,32,-1
300 200 m 1,36,-1
 300 280 l 1,37,-1
 380 280 l 1,38,-1
 380 200 l 1,39,-1
 300 200 l 1,36,-1
100 100 m 1,40,-1
 100 180 l 1,41,-1
 180 180 l 1,42,-1
 180 100 l 1,43,-1
 100 100 l 1,40,-1
200 100 m 1,44,-1
 200 180 l 1,45,-1
 280 180 l 1,46,-1
 280 100 l 1,47,-1
 200 100 l 1,44,-1
EndSplineSet
EndChar

StartChar: AE
Encoding: 198 198 136
Width: 500
VWidth: 0
LayerCount: 2
Fore
SplineSet
100 500 m 1,0,-1
 100 580 l 1,1,-1
 180 580 l 1,2,-1
 180 500 l 1,3,-1
 100 500 l 1,0,-1
200 500 m 1,4,-1
 200 580 l 1,5,-1
 280 580 l 1,6,-1
 280 500 l 1,7,-1
 200 500 l 1,4,-1
300 500 m 1,8,-1
 300 580 l 1,9,-1
 380 580 l 1,10,-1
 380 500 l 1,11,-1
 300 500 l 1,8,-1
0 400 m 1,12,-1
 0 480 l 1,13,-1
 80 480 l 1,14,-1
 80 400 l 1,15,-1
 0 400 l 1,12,-1
200 400 m 1,16,-1
 200 480 l 1,17,-1
 280 480 l 1,18,-1
 280 400 l 1,19,-1
 200 400 l 1,16,-1
0 300 m 1,20,-1
 0 380 l 1,21,-1
 80 380 l 1,22,-1
 80 300 l 1,23,-1
 0 300 l 1,20,-1
100 300 m 1,24,-1
 100 380 l 1,25,-1
 180 380 l 1,26,-1
 180 300 l 1,27,-1
 100 300 l 1,24,-1
200 300 m 1,28,-1
 200 380 l 1,29,-1
 280 380 l 1,30,-1
 280 300 l 1,31,-1
 200 300 l 1,28,-1
300 300 m 1,32,-1
 300 380 l 1,33,-1
 380 380 l 1,34,-1
 380 300 l 1,35,-1
 300 300 l 1,32,-1
0 200 m 1,36,-1
 0 280 l 1,37,-1
 80 280 l 1,38,-1
 80 200 l 1,39,-1
 0 200 l 1,36,-1
200 200 m 1,40,-1
 200 280 l 1,41,-1
 280 280 l 1,42,-1
 280 200 l 1,43,-1
 200 200 l 1,40,-1
0 100 m 1,44,-1
 0 180 l 1,45,-1
 80 180 l 1,46,-1
 80 100 l 1,47,-1
 0 100 l 1,44,-1
200 100 m 1,48,-1
 200 180 l 1,49,-1
 280 180 l 1,50,-1
 280 100 l 1,51,-1
 200 100 l 1,48,-1
300 100 m 1,52,-1
 300 180 l 1,53,-1
 380 180 l 1,54,-1
 380 100 l 1,55,-1
 300 100 l 1,52,-1
EndSplineSet
EndChar

StartChar: ae
Encoding: 230 230 137
Width: 600
VWidth: 0
LayerCount: 2
Fore
SplineSet
100 400 m 1,0,-1
 100 480 l 1,1,-1
 180 480 l 1,2,-1
 180 400 l 1,3,-1
 100 400 l 1,0,-1
200 400 m 1,4,-1
 200 480 l 1,5,-1
 280 480 l 1,6,-1
 280 400 l 1,7,-1
 200 400 l 1,4,-1
300 400 m 1,8,-1
 300 480 l 1,9,-1
 380 480 l 1,10,-1
 380 400 l 1,11,-1
 300 400 l 1,8,-1
400 400 m 1,12,-1
 400 480 l 1,13,-1
 480 480 l 1,14,-1
 480 400 l 1,15,-1
 400 400 l 1,12,-1
0 300 m 1,16,-1
 0 380 l 1,17,-1
 80 380 l 1,18,-1
 80 300 l 1,19,-1
 0 300 l 1,16,-1
200 300 m 1,20,-1
 200 380 l 1,21,-1
 280 380 l 1,22,-1
 280 300 l 1,23,-1
 200 300 l 1,20,-1
400 300 m 1,24,-1
 400 380 l 1,25,-1
 480 380 l 1,26,-1
 480 300 l 1,27,-1
 400 300 l 1,24,-1
0 200 m 1,28,-1
 0 280 l 1,29,-1
 80 280 l 1,30,-1
 80 200 l 1,31,-1
 0 200 l 1,28,-1
200 200 m 1,32,-1
 200 280 l 1,33,-1
 280 280 l 1,34,-1
 280 200 l 1,35,-1
 200 200 l 1,32,-1
300 200 m 1,36,-1
 300 280 l 1,37,-1
 380 280 l 1,38,-1
 380 200 l 1,39,-1
 300 200 l 1,36,-1
100 100 m 1,40,-1
 100 180 l 1,41,-1
 180 180 l 1,42,-1
 180 100 l 1,43,-1
 100 100 l 1,40,-1
200 100 m 1,44,-1
 200 180 l 1,45,-1
 280 180 l 1,46,-1
 280 100 l 1,47,-1
 200 100 l 1,44,-1
300 100 m 1,48,-1
 300 180 l 1,49,-1
 380 180 l 1,50,-1
 380 100 l 1,51,-1
 300 100 l 1,48,-1
400 100 m 1,52,-1
 400 180 l 1,53,-1
 480 180 l 1,54,-1
 480 100 l 1,55,-1
 400 100 l 1,52,-1
EndSplineSet
EndChar

StartChar: LAMBDA
Encoding: 923 923 138
Width: 400
VWidth: 0
LayerCount: 2
Fore
SplineSet
100 500 m 1,0,-1
 100 580 l 1,1,-1
 180 580 l 1,2,-1
 180 500 l 1,3,-1
 100 500 l 1,0,-1
100 400 m 1,4,-1
 100 480 l 1,5,-1
 180 480 l 1,6,-1
 180 400 l 1,7,-1
 100 400 l 1,4,-1
0 300 m 1,8,-1
 0 380 l 1,9,-1
 80 380 l 1,10,-1
 80 300 l 1,11,-1
 0 300 l 1,8,-1
200 300 m 1,12,-1
 200 380 l 1,13,-1
 280 380 l 1,14,-1
 280 300 l 1,15,-1
 200 300 l 1,12,-1
0 200 m 1,16,-1
 0 280 l 1,17,-1
 80 280 l 1,18,-1
 80 200 l 1,19,-1
 0 200 l 1,16,-1
200 200 m 1,20,-1
 200 280 l 1,21,-1
 280 280 l 1,22,-1
 280 200 l 1,23,-1
 200 200 l 1,20,-1
0 100 m 1,24,-1
 0 180 l 1,25,-1
 80 180 l 1,26,-1
 80 100 l 1,27,-1
 0 100 l 1,24,-1
200 100 m 1,28,-1
 200 180 l 1,29,-1
 280 180 l 1,30,-1
 280 100 l 1,31,-1
 200 100 l 1,28,-1
EndSplineSet
EndChar

StartChar: 0213
Encoding: 57354 57354 139
Width: 100
VWidth: 0
LayerCount: 2
Fore
SplineSet
-1 801 m 1,0,-1
 -1 801 l 1,0,-1
EndSplineSet
EndChar

StartChar: 0214
Encoding: 40971 40971 140
Width: 100
VWidth: 0
LayerCount: 2
Fore
SplineSet
-1 801 m 1,0,-1
 -1 801 l 1,0,-1
EndSplineSet
EndChar

StartChar: XI
Encoding: 926 926 141
Width: 500
VWidth: 0
LayerCount: 2
Fore
SplineSet
0 500 m 1,0,-1
 0 580 l 1,1,-1
 80 580 l 1,2,-1
 80 500 l 1,3,-1
 0 500 l 1,0,-1
100 500 m 1,4,-1
 100 580 l 1,5,-1
 180 580 l 1,6,-1
 180 500 l 1,7,-1
 100 500 l 1,4,-1
200 500 m 1,8,-1
 200 580 l 1,9,-1
 280 580 l 1,10,-1
 280 500 l 1,11,-1
 200 500 l 1,8,-1
300 500 m 1,12,-1
 300 580 l 1,13,-1
 380 580 l 1,14,-1
 380 500 l 1,15,-1
 300 500 l 1,12,-1
100 300 m 1,16,-1
 100 380 l 1,17,-1
 180 380 l 1,18,-1
 180 300 l 1,19,-1
 100 300 l 1,16,-1
200 300 m 1,20,-1
 200 380 l 1,21,-1
 280 380 l 1,22,-1
 280 300 l 1,23,-1
 200 300 l 1,20,-1
0 100 m 1,24,-1
 0 180 l 1,25,-1
 80 180 l 1,26,-1
 80 100 l 1,27,-1
 0 100 l 1,24,-1
100 100 m 1,28,-1
 100 180 l 1,29,-1
 180 180 l 1,30,-1
 180 100 l 1,31,-1
 100 100 l 1,28,-1
200 100 m 1,32,-1
 200 180 l 1,33,-1
 280 180 l 1,34,-1
 280 100 l 1,35,-1
 200 100 l 1,32,-1
300 100 m 1,36,-1
 300 180 l 1,37,-1
 380 180 l 1,38,-1
 380 100 l 1,39,-1
 300 100 l 1,36,-1
EndSplineSet
EndChar

StartChar: sol
Encoding: 9737 9737 142
Width: 600
VWidth: 0
LayerCount: 2
Fore
SplineSet
100 400 m 1,0,-1
 100 480 l 1,1,-1
 180 480 l 1,2,-1
 180 400 l 1,3,-1
 100 400 l 1,0,-1
200 400 m 1,4,-1
 200 480 l 1,5,-1
 280 480 l 1,6,-1
 280 400 l 1,7,-1
 200 400 l 1,4,-1
300 400 m 1,8,-1
 300 480 l 1,9,-1
 380 480 l 1,10,-1
 380 400 l 1,11,-1
 300 400 l 1,8,-1
0 300 m 1,12,-1
 0 380 l 1,13,-1
 80 380 l 1,14,-1
 80 300 l 1,15,-1
 0 300 l 1,12,-1
400 300 m 1,16,-1
 400 380 l 1,17,-1
 480 380 l 1,18,-1
 480 300 l 1,19,-1
 400 300 l 1,16,-1
0 200 m 1,20,-1
 0 280 l 1,21,-1
 80 280 l 1,22,-1
 80 200 l 1,23,-1
 0 200 l 1,20,-1
200 200 m 1,24,-1
 200 280 l 1,25,-1
 280 280 l 1,26,-1
 280 200 l 1,27,-1
 200 200 l 1,24,-1
400 200 m 1,28,-1
 400 280 l 1,29,-1
 480 280 l 1,30,-1
 480 200 l 1,31,-1
 400 200 l 1,28,-1
0 100 m 1,32,-1
 0 180 l 1,33,-1
 80 180 l 1,34,-1
 80 100 l 1,35,-1
 0 100 l 1,32,-1
400 100 m 1,36,-1
 400 180 l 1,37,-1
 480 180 l 1,38,-1
 480 100 l 1,39,-1
 400 100 l 1,36,-1
100 0 m 1,40,-1
 100 80 l 1,41,-1
 180 80 l 1,42,-1
 180 0 l 1,43,-1
 100 0 l 1,40,-1
200 0 m 1,44,-1
 200 80 l 1,45,-1
 280 80 l 1,46,-1
 280 0 l 1,47,-1
 200 0 l 1,44,-1
300 0 m 1,48,-1
 300 80 l 1,49,-1
 380 80 l 1,50,-1
 380 0 l 1,51,-1
 300 0 l 1,48,-1
EndSplineSet
EndChar

StartChar: PI
Encoding: 935 935 143
Width: 400
VWidth: 0
LayerCount: 2
Fore
SplineSet
0 500 m 1,0,-1
 0 580 l 1,1,-1
 80 580 l 1,2,-1
 80 500 l 1,3,-1
 0 500 l 1,0,-1
100 500 m 1,4,-1
 100 580 l 1,5,-1
 180 580 l 1,6,-1
 180 500 l 1,7,-1
 100 500 l 1,4,-1
200 500 m 1,8,-1
 200 580 l 1,9,-1
 280 580 l 1,10,-1
 280 500 l 1,11,-1
 200 500 l 1,8,-1
0 400 m 1,12,-1
 0 480 l 1,13,-1
 80 480 l 1,14,-1
 80 400 l 1,15,-1
 0 400 l 1,12,-1
200 400 m 1,16,-1
 200 480 l 1,17,-1
 280 480 l 1,18,-1
 280 400 l 1,19,-1
 200 400 l 1,16,-1
0 300 m 1,20,-1
 0 380 l 1,21,-1
 80 380 l 1,22,-1
 80 300 l 1,23,-1
 0 300 l 1,20,-1
200 300 m 1,24,-1
 200 380 l 1,25,-1
 280 380 l 1,26,-1
 280 300 l 1,27,-1
 200 300 l 1,24,-1
0 200 m 1,28,-1
 0 280 l 1,29,-1
 80 280 l 1,30,-1
 80 200 l 1,31,-1
 0 200 l 1,28,-1
200 200 m 1,32,-1
 200 280 l 1,33,-1
 280 280 l 1,34,-1
 280 200 l 1,35,-1
 200 200 l 1,32,-1
0 100 m 1,36,-1
 0 180 l 1,37,-1
 80 180 l 1,38,-1
 80 100 l 1,39,-1
 0 100 l 1,36,-1
200 100 m 1,40,-1
 200 180 l 1,41,-1
 280 180 l 1,42,-1
 280 100 l 1,43,-1
 200 100 l 1,40,-1
EndSplineSet
EndChar

StartChar: 0220
Encoding: 57356 57356 144
Width: 100
VWidth: 0
LayerCount: 2
Fore
SplineSet
-1 801 m 1,0,-1
 -1 801 l 1,0,-1
EndSplineSet
EndChar

StartChar: SIGMA
Encoding: 931 931 145
Width: 500
VWidth: 0
LayerCount: 2
Fore
SplineSet
0 500 m 1,0,-1
 0 580 l 1,1,-1
 80 580 l 1,2,-1
 80 500 l 1,3,-1
 0 500 l 1,0,-1
100 500 m 1,4,-1
 100 580 l 1,5,-1
 180 580 l 1,6,-1
 180 500 l 1,7,-1
 100 500 l 1,4,-1
200 500 m 1,8,-1
 200 580 l 1,9,-1
 280 580 l 1,10,-1
 280 500 l 1,11,-1
 200 500 l 1,8,-1
300 500 m 1,12,-1
 300 580 l 1,13,-1
 380 580 l 1,14,-1
 380 500 l 1,15,-1
 300 500 l 1,12,-1
100 400 m 1,16,-1
 100 480 l 1,17,-1
 180 480 l 1,18,-1
 180 400 l 1,19,-1
 100 400 l 1,16,-1
200 300 m 1,20,-1
 200 380 l 1,21,-1
 280 380 l 1,22,-1
 280 300 l 1,23,-1
 200 300 l 1,20,-1
100 200 m 1,24,-1
 100 280 l 1,25,-1
 180 280 l 1,26,-1
 180 200 l 1,27,-1
 100 200 l 1,24,-1
0 100 m 1,28,-1
 0 180 l 1,29,-1
 80 180 l 1,30,-1
 80 100 l 1,31,-1
 0 100 l 1,28,-1
100 100 m 1,32,-1
 100 180 l 1,33,-1
 180 180 l 1,34,-1
 180 100 l 1,35,-1
 100 100 l 1,32,-1
200 100 m 1,36,-1
 200 180 l 1,37,-1
 280 180 l 1,38,-1
 280 100 l 1,39,-1
 200 100 l 1,36,-1
300 100 m 1,40,-1
 300 180 l 1,41,-1
 380 180 l 1,42,-1
 380 100 l 1,43,-1
 300 100 l 1,40,-1
EndSplineSet
EndChar

StartChar: 0222
Encoding: 57357 57357 146
Width: 100
VWidth: 0
LayerCount: 2
Fore
SplineSet
-1 801 m 1,0,-1
 -1 801 l 1,0,-1
EndSplineSet
EndChar

StartChar: 0223
Encoding: 57358 57358 147
Width: 100
VWidth: 0
LayerCount: 2
Fore
SplineSet
-1 801 m 1,0,-1
 -1 801 l 1,0,-1
EndSplineSet
EndChar

StartChar: PHI
Encoding: 934 934 148
Width: 600
VWidth: 0
LayerCount: 2
Fore
SplineSet
200 500 m 1,0,-1
 200 580 l 1,1,-1
 280 580 l 1,2,-1
 280 500 l 1,3,-1
 200 500 l 1,0,-1
0 400 m 1,4,-1
 0 480 l 1,5,-1
 80 480 l 1,6,-1
 80 400 l 1,7,-1
 0 400 l 1,4,-1
100 400 m 1,8,-1
 100 480 l 1,9,-1
 180 480 l 1,10,-1
 180 400 l 1,11,-1
 100 400 l 1,8,-1
200 400 m 1,12,-1
 200 480 l 1,13,-1
 280 480 l 1,14,-1
 280 400 l 1,15,-1
 200 400 l 1,12,-1
300 400 m 1,16,-1
 300 480 l 1,17,-1
 380 480 l 1,18,-1
 380 400 l 1,19,-1
 300 400 l 1,16,-1
400 400 m 1,20,-1
 400 480 l 1,21,-1
 480 480 l 1,22,-1
 480 400 l 1,23,-1
 400 400 l 1,20,-1
0 300 m 1,24,-1
 0 380 l 1,25,-1
 80 380 l 1,26,-1
 80 300 l 1,27,-1
 0 300 l 1,24,-1
200 300 m 1,28,-1
 200 380 l 1,29,-1
 280 380 l 1,30,-1
 280 300 l 1,31,-1
 200 300 l 1,28,-1
400 300 m 1,32,-1
 400 380 l 1,33,-1
 480 380 l 1,34,-1
 480 300 l 1,35,-1
 400 300 l 1,32,-1
0 200 m 1,36,-1
 0 280 l 1,37,-1
 80 280 l 1,38,-1
 80 200 l 1,39,-1
 0 200 l 1,36,-1
100 200 m 1,40,-1
 100 280 l 1,41,-1
 180 280 l 1,42,-1
 180 200 l 1,43,-1
 100 200 l 1,40,-1
200 200 m 1,44,-1
 200 280 l 1,45,-1
 280 280 l 1,46,-1
 280 200 l 1,47,-1
 200 200 l 1,44,-1
300 200 m 1,48,-1
 300 280 l 1,49,-1
 380 280 l 1,50,-1
 380 200 l 1,51,-1
 300 200 l 1,48,-1
400 200 m 1,52,-1
 400 280 l 1,53,-1
 480 280 l 1,54,-1
 480 200 l 1,55,-1
 400 200 l 1,52,-1
200 100 m 1,56,-1
 200 180 l 1,57,-1
 280 180 l 1,58,-1
 280 100 l 1,59,-1
 200 100 l 1,56,-1
EndSplineSet
EndChar

StartChar: 0225
Encoding: 57359 57359 149
Width: 100
VWidth: 0
LayerCount: 2
Fore
SplineSet
-1 801 m 1,0,-1
 -1 801 l 1,0,-1
EndSplineSet
EndChar

StartChar: PSI
Encoding: 936 936 150
Width: 600
VWidth: 0
LayerCount: 2
Fore
SplineSet
0 500 m 1,0,-1
 0 580 l 1,1,-1
 80 580 l 1,2,-1
 80 500 l 1,3,-1
 0 500 l 1,0,-1
200 500 m 1,4,-1
 200 580 l 1,5,-1
 280 580 l 1,6,-1
 280 500 l 1,7,-1
 200 500 l 1,4,-1
400 500 m 1,8,-1
 400 580 l 1,9,-1
 480 580 l 1,10,-1
 480 500 l 1,11,-1
 400 500 l 1,8,-1
0 400 m 1,12,-1
 0 480 l 1,13,-1
 80 480 l 1,14,-1
 80 400 l 1,15,-1
 0 400 l 1,12,-1
200 400 m 1,16,-1
 200 480 l 1,17,-1
 280 480 l 1,18,-1
 280 400 l 1,19,-1
 200 400 l 1,16,-1
400 400 m 1,20,-1
 400 480 l 1,21,-1
 480 480 l 1,22,-1
 480 400 l 1,23,-1
 400 400 l 1,20,-1
100 300 m 1,24,-1
 100 380 l 1,25,-1
 180 380 l 1,26,-1
 180 300 l 1,27,-1
 100 300 l 1,24,-1
200 300 m 1,28,-1
 200 380 l 1,29,-1
 280 380 l 1,30,-1
 280 300 l 1,31,-1
 200 300 l 1,28,-1
300 300 m 1,32,-1
 300 380 l 1,33,-1
 380 380 l 1,34,-1
 380 300 l 1,35,-1
 300 300 l 1,32,-1
200 200 m 1,36,-1
 200 280 l 1,37,-1
 280 280 l 1,38,-1
 280 200 l 1,39,-1
 200 200 l 1,36,-1
200 100 m 1,40,-1
 200 180 l 1,41,-1
 280 180 l 1,42,-1
 280 100 l 1,43,-1
 200 100 l 1,40,-1
EndSplineSet
EndChar

StartChar: OMEGA
Encoding: 937 937 151
Width: 500
VWidth: 0
LayerCount: 2
Fore
SplineSet
100 500 m 1,0,-1
 100 580 l 1,1,-1
 180 580 l 1,2,-1
 180 500 l 1,3,-1
 100 500 l 1,0,-1
200 500 m 1,4,-1
 200 580 l 1,5,-1
 280 580 l 1,6,-1
 280 500 l 1,7,-1
 200 500 l 1,4,-1
0 400 m 1,8,-1
 0 480 l 1,9,-1
 80 480 l 1,10,-1
 80 400 l 1,11,-1
 0 400 l 1,8,-1
300 400 m 1,12,-1
 300 480 l 1,13,-1
 380 480 l 1,14,-1
 380 400 l 1,15,-1
 300 400 l 1,12,-1
0 300 m 1,16,-1
 0 380 l 1,17,-1
 80 380 l 1,18,-1
 80 300 l 1,19,-1
 0 300 l 1,16,-1
300 300 m 1,20,-1
 300 380 l 1,21,-1
 380 380 l 1,22,-1
 380 300 l 1,23,-1
 300 300 l 1,20,-1
100 200 m 1,24,-1
 100 280 l 1,25,-1
 180 280 l 1,26,-1
 180 200 l 1,27,-1
 100 200 l 1,24,-1
200 200 m 1,28,-1
 200 280 l 1,29,-1
 280 280 l 1,30,-1
 280 200 l 1,31,-1
 200 200 l 1,28,-1
0 100 m 1,32,-1
 0 180 l 1,33,-1
 80 180 l 1,34,-1
 80 100 l 1,35,-1
 0 100 l 1,32,-1
100 100 m 1,36,-1
 100 180 l 1,37,-1
 180 180 l 1,38,-1
 180 100 l 1,39,-1
 100 100 l 1,36,-1
200 100 m 1,40,-1
 200 180 l 1,41,-1
 280 180 l 1,42,-1
 280 100 l 1,43,-1
 200 100 l 1,40,-1
300 100 m 1,44,-1
 300 180 l 1,45,-1
 380 180 l 1,46,-1
 380 100 l 1,47,-1
 300 100 l 1,44,-1
EndSplineSet
EndChar

StartChar: subB
Encoding: 57360 57360 152
Width: 400
VWidth: 0
LayerCount: 2
Fore
SplineSet
0 200 m 1,0,-1
 0 280 l 1,1,-1
 80 280 l 1,2,-1
 80 200 l 1,3,-1
 0 200 l 1,0,-1
100 200 m 1,4,-1
 100 280 l 1,5,-1
 180 280 l 1,6,-1
 180 200 l 1,7,-1
 100 200 l 1,4,-1
0 100 m 1,8,-1
 0 180 l 1,9,-1
 80 180 l 1,10,-1
 80 100 l 1,11,-1
 0 100 l 1,8,-1
100 100 m 1,12,-1
 100 180 l 1,13,-1
 180 180 l 1,14,-1
 180 100 l 1,15,-1
 100 100 l 1,12,-1
200 100 m 1,16,-1
 200 180 l 1,17,-1
 280 180 l 1,18,-1
 280 100 l 1,19,-1
 200 100 l 1,16,-1
0 0 m 1,20,-1
 0 80 l 1,21,-1
 80 80 l 1,22,-1
 80 0 l 1,23,-1
 0 0 l 1,20,-1
100 0 m 1,24,-1
 100 80 l 1,25,-1
 180 80 l 1,26,-1
 180 0 l 1,27,-1
 100 0 l 1,24,-1
200 0 m 1,28,-1
 200 80 l 1,29,-1
 280 80 l 1,30,-1
 280 0 l 1,31,-1
 200 0 l 1,28,-1
EndSplineSet
EndChar

StartChar: submu
Encoding: 57361 57361 153
Width: 400
VWidth: 0
LayerCount: 2
Fore
SplineSet
0 200 m 1,0,-1
 0 280 l 1,1,-1
 80 280 l 1,2,-1
 80 200 l 1,3,-1
 0 200 l 1,0,-1
200 200 m 1,4,-1
 200 280 l 1,5,-1
 280 280 l 1,6,-1
 280 200 l 1,7,-1
 200 200 l 1,4,-1
0 100 m 1,8,-1
 0 180 l 1,9,-1
 80 180 l 1,10,-1
 80 100 l 1,11,-1
 0 100 l 1,8,-1
100 100 m 1,12,-1
 100 180 l 1,13,-1
 180 180 l 1,14,-1
 180 100 l 1,15,-1
 100 100 l 1,12,-1
200 100 m 1,16,-1
 200 180 l 1,17,-1
 280 180 l 1,18,-1
 280 100 l 1,19,-1
 200 100 l 1,16,-1
0 0 m 1,20,-1
 0 80 l 1,21,-1
 80 80 l 1,22,-1
 80 0 l 1,23,-1
 0 0 l 1,20,-1
EndSplineSet
EndChar

StartChar: super2
Encoding: 178 178 154
Width: 300
VWidth: 0
LayerCount: 2
Fore
SplineSet
0 500 m 1,0,-1
 0 580 l 1,1,-1
 80 580 l 1,2,-1
 80 500 l 1,3,-1
 0 500 l 1,0,-1
100 500 m 1,4,-1
 100 580 l 1,5,-1
 180 580 l 1,6,-1
 180 500 l 1,7,-1
 100 500 l 1,4,-1
100 400 m 1,8,-1
 100 480 l 1,9,-1
 180 480 l 1,10,-1
 180 400 l 1,11,-1
 100 400 l 1,8,-1
0 300 m 1,12,-1
 0 380 l 1,13,-1
 80 380 l 1,14,-1
 80 300 l 1,15,-1
 0 300 l 1,12,-1
0 200 m 1,16,-1
 0 280 l 1,17,-1
 80 280 l 1,18,-1
 80 200 l 1,19,-1
 0 200 l 1,16,-1
100 200 m 1,20,-1
 100 280 l 1,21,-1
 180 280 l 1,22,-1
 180 200 l 1,23,-1
 100 200 l 1,20,-1
EndSplineSet
EndChar

StartChar: subinfinity
Encoding: 57362 57362 155
Width: 600
VWidth: 0
LayerCount: 2
Fore
SplineSet
100 200 m 1,0,-1
 100 280 l 1,1,-1
 180 280 l 1,2,-1
 180 200 l 1,3,-1
 100 200 l 1,0,-1
300 200 m 1,4,-1
 300 280 l 1,5,-1
 380 280 l 1,6,-1
 380 200 l 1,7,-1
 300 200 l 1,4,-1
0 100 m 1,8,-1
 0 180 l 1,9,-1
 80 180 l 1,10,-1
 80 100 l 1,11,-1
 0 100 l 1,8,-1
200 100 m 1,12,-1
 200 180 l 1,13,-1
 280 180 l 1,14,-1
 280 100 l 1,15,-1
 200 100 l 1,12,-1
400 100 m 1,16,-1
 400 180 l 1,17,-1
 480 180 l 1,18,-1
 480 100 l 1,19,-1
 400 100 l 1,16,-1
100 0 m 1,20,-1
 100 80 l 1,21,-1
 180 80 l 1,22,-1
 180 0 l 1,23,-1
 100 0 l 1,20,-1
300 0 m 1,24,-1
 300 80 l 1,25,-1
 380 80 l 1,26,-1
 380 0 l 1,27,-1
 300 0 l 1,24,-1
EndSplineSet
EndChar

StartChar: superx
Encoding: 57363 57363 156
Width: 400
VWidth: 0
LayerCount: 2
Fore
SplineSet
0 500 m 1,0,-1
 0 580 l 1,1,-1
 80 580 l 1,2,-1
 80 500 l 1,3,-1
 0 500 l 1,0,-1
200 500 m 1,4,-1
 200 580 l 1,5,-1
 280 580 l 1,6,-1
 280 500 l 1,7,-1
 200 500 l 1,4,-1
100 400 m 1,8,-1
 100 480 l 1,9,-1
 180 480 l 1,10,-1
 180 400 l 1,11,-1
 100 400 l 1,8,-1
0 300 m 1,12,-1
 0 380 l 1,13,-1
 80 380 l 1,14,-1
 80 300 l 1,15,-1
 0 300 l 1,12,-1
200 300 m 1,16,-1
 200 380 l 1,17,-1
 280 380 l 1,18,-1
 280 300 l 1,19,-1
 200 300 l 1,16,-1
EndSplineSet
EndChar

StartChar: reciprocal
Encoding: 57364 57364 157
Width: 500
VWidth: 0
LayerCount: 2
Fore
SplineSet
300 500 m 1,0,-1
 300 580 l 1,1,-1
 380 580 l 1,2,-1
 380 500 l 1,3,-1
 300 500 l 1,0,-1
0 400 m 1,4,-1
 0 480 l 1,5,-1
 80 480 l 1,6,-1
 80 400 l 1,7,-1
 0 400 l 1,4,-1
100 400 m 1,8,-1
 100 480 l 1,9,-1
 180 480 l 1,10,-1
 180 400 l 1,11,-1
 100 400 l 1,8,-1
300 400 m 1,12,-1
 300 480 l 1,13,-1
 380 480 l 1,14,-1
 380 400 l 1,15,-1
 300 400 l 1,12,-1
300 300 m 1,16,-1
 300 380 l 1,17,-1
 380 380 l 1,18,-1
 380 300 l 1,19,-1
 300 300 l 1,16,-1
EndSplineSet
EndChar

StartChar: hbar
Encoding: 295 295 158
Width: 500
VWidth: 0
LayerCount: 2
Fore
SplineSet
100 500 m 1,0,-1
 100 580 l 1,1,-1
 180 580 l 1,2,-1
 180 500 l 1,3,-1
 100 500 l 1,0,-1
0 400 m 1,4,-1
 0 480 l 1,5,-1
 80 480 l 1,6,-1
 80 400 l 1,7,-1
 0 400 l 1,4,-1
100 400 m 1,8,-1
 100 480 l 1,9,-1
 180 480 l 1,10,-1
 180 400 l 1,11,-1
 100 400 l 1,8,-1
200 400 m 1,12,-1
 200 480 l 1,13,-1
 280 480 l 1,14,-1
 280 400 l 1,15,-1
 200 400 l 1,12,-1
100 300 m 1,16,-1
 100 380 l 1,17,-1
 180 380 l 1,18,-1
 180 300 l 1,19,-1
 100 300 l 1,16,-1
100 200 m 1,20,-1
 100 280 l 1,21,-1
 180 280 l 1,22,-1
 180 200 l 1,23,-1
 100 200 l 1,20,-1
200 200 m 1,24,-1
 200 280 l 1,25,-1
 280 280 l 1,26,-1
 280 200 l 1,27,-1
 200 200 l 1,24,-1
300 200 m 1,28,-1
 300 280 l 1,29,-1
 380 280 l 1,30,-1
 380 200 l 1,31,-1
 300 200 l 1,28,-1
100 100 m 1,32,-1
 100 180 l 1,33,-1
 180 180 l 1,34,-1
 180 100 l 1,35,-1
 100 100 l 1,32,-1
300 100 m 1,36,-1
 300 180 l 1,37,-1
 380 180 l 1,38,-1
 380 100 l 1,39,-1
 300 100 l 1,36,-1
EndSplineSet
EndChar

StartChar: infinity
Encoding: 8734 8734 159
Width: 600
VWidth: 0
LayerCount: 2
Fore
SplineSet
100 400 m 1,0,-1
 100 480 l 1,1,-1
 180 480 l 1,2,-1
 180 400 l 1,3,-1
 100 400 l 1,0,-1
300 400 m 1,4,-1
 300 480 l 1,5,-1
 380 480 l 1,6,-1
 380 400 l 1,7,-1
 300 400 l 1,4,-1
0 300 m 1,8,-1
 0 380 l 1,9,-1
 80 380 l 1,10,-1
 80 300 l 1,11,-1
 0 300 l 1,8,-1
200 300 m 1,12,-1
 200 380 l 1,13,-1
 280 380 l 1,14,-1
 280 300 l 1,15,-1
 200 300 l 1,12,-1
400 300 m 1,16,-1
 400 380 l 1,17,-1
 480 380 l 1,18,-1
 480 300 l 1,19,-1
 400 300 l 1,16,-1
0 200 m 1,20,-1
 0 280 l 1,21,-1
 80 280 l 1,22,-1
 80 200 l 1,23,-1
 0 200 l 1,20,-1
200 200 m 1,24,-1
 200 280 l 1,25,-1
 280 280 l 1,26,-1
 280 200 l 1,27,-1
 200 200 l 1,24,-1
400 200 m 1,28,-1
 400 280 l 1,29,-1
 480 280 l 1,30,-1
 480 200 l 1,31,-1
 400 200 l 1,28,-1
100 100 m 1,32,-1
 100 180 l 1,33,-1
 180 180 l 1,34,-1
 180 100 l 1,35,-1
 100 100 l 1,32,-1
300 100 m 1,36,-1
 300 180 l 1,37,-1
 380 180 l 1,38,-1
 380 100 l 1,39,-1
 300 100 l 1,36,-1
EndSplineSet
EndChar

StartChar: alpha
Encoding: 945 945 160
Width: 500
VWidth: 0
LayerCount: 2
Fore
SplineSet
100 400 m 1,0,-1
 100 480 l 1,1,-1
 180 480 l 1,2,-1
 180 400 l 1,3,-1
 100 400 l 1,0,-1
300 400 m 1,4,-1
 300 480 l 1,5,-1
 380 480 l 1,6,-1
 380 400 l 1,7,-1
 300 400 l 1,4,-1
0 300 m 1,8,-1
 0 380 l 1,9,-1
 80 380 l 1,10,-1
 80 300 l 1,11,-1
 0 300 l 1,8,-1
200 300 m 1,12,-1
 200 380 l 1,13,-1
 280 380 l 1,14,-1
 280 300 l 1,15,-1
 200 300 l 1,12,-1
0 200 m 1,16,-1
 0 280 l 1,17,-1
 80 280 l 1,18,-1
 80 200 l 1,19,-1
 0 200 l 1,16,-1
200 200 m 1,20,-1
 200 280 l 1,21,-1
 280 280 l 1,22,-1
 280 200 l 1,23,-1
 200 200 l 1,20,-1
100 100 m 1,24,-1
 100 180 l 1,25,-1
 180 180 l 1,26,-1
 180 100 l 1,27,-1
 100 100 l 1,24,-1
300 100 m 1,28,-1
 300 180 l 1,29,-1
 380 180 l 1,30,-1
 380 100 l 1,31,-1
 300 100 l 1,28,-1
EndSplineSet
EndChar

StartChar: beta
Encoding: 946 946 161
Width: 400
VWidth: 0
LayerCount: 2
Fore
SplineSet
100 500 m 1,0,-1
 100 580 l 1,1,-1
 180 580 l 1,2,-1
 180 500 l 1,3,-1
 100 500 l 1,0,-1
0 400 m 1,4,-1
 0 480 l 1,5,-1
 80 480 l 1,6,-1
 80 400 l 1,7,-1
 0 400 l 1,4,-1
200 400 m 1,8,-1
 200 480 l 1,9,-1
 280 480 l 1,10,-1
 280 400 l 1,11,-1
 200 400 l 1,8,-1
0 300 m 1,12,-1
 0 380 l 1,13,-1
 80 380 l 1,14,-1
 80 300 l 1,15,-1
 0 300 l 1,12,-1
100 300 m 1,16,-1
 100 380 l 1,17,-1
 180 380 l 1,18,-1
 180 300 l 1,19,-1
 100 300 l 1,16,-1
0 200 m 1,20,-1
 0 280 l 1,21,-1
 80 280 l 1,22,-1
 80 200 l 1,23,-1
 0 200 l 1,20,-1
200 200 m 1,24,-1
 200 280 l 1,25,-1
 280 280 l 1,26,-1
 280 200 l 1,27,-1
 200 200 l 1,24,-1
0 100 m 1,28,-1
 0 180 l 1,29,-1
 80 180 l 1,30,-1
 80 100 l 1,31,-1
 0 100 l 1,28,-1
100 100 m 1,32,-1
 100 180 l 1,33,-1
 180 180 l 1,34,-1
 180 100 l 1,35,-1
 100 100 l 1,32,-1
0 0 m 1,36,-1
 0 80 l 1,37,-1
 80 80 l 1,38,-1
 80 0 l 1,39,-1
 0 0 l 1,36,-1
EndSplineSet
EndChar

StartChar: gamma
Encoding: 947 947 162
Width: 400
VWidth: 0
LayerCount: 2
Fore
SplineSet
0 400 m 1,0,-1
 0 480 l 1,1,-1
 80 480 l 1,2,-1
 80 400 l 1,3,-1
 0 400 l 1,0,-1
200 400 m 1,4,-1
 200 480 l 1,5,-1
 280 480 l 1,6,-1
 280 400 l 1,7,-1
 200 400 l 1,4,-1
100 300 m 1,8,-1
 100 380 l 1,9,-1
 180 380 l 1,10,-1
 180 300 l 1,11,-1
 100 300 l 1,8,-1
100 200 m 1,12,-1
 100 280 l 1,13,-1
 180 280 l 1,14,-1
 180 200 l 1,15,-1
 100 200 l 1,12,-1
100 100 m 1,16,-1
 100 180 l 1,17,-1
 180 180 l 1,18,-1
 180 100 l 1,19,-1
 100 100 l 1,16,-1
100 0 m 1,20,-1
 100 80 l 1,21,-1
 180 80 l 1,22,-1
 180 0 l 1,23,-1
 100 0 l 1,20,-1
EndSplineSet
EndChar

StartChar: delta
Encoding: 948 948 163
Width: 400
VWidth: 0
LayerCount: 2
Fore
SplineSet
100 500 m 1,0,-1
 100 580 l 1,1,-1
 180 580 l 1,2,-1
 180 500 l 1,3,-1
 100 500 l 1,0,-1
0 400 m 1,4,-1
 0 480 l 1,5,-1
 80 480 l 1,6,-1
 80 400 l 1,7,-1
 0 400 l 1,4,-1
100 300 m 1,8,-1
 100 380 l 1,9,-1
 180 380 l 1,10,-1
 180 300 l 1,11,-1
 100 300 l 1,8,-1
0 200 m 1,12,-1
 0 280 l 1,13,-1
 80 280 l 1,14,-1
 80 200 l 1,15,-1
 0 200 l 1,12,-1
200 200 m 1,16,-1
 200 280 l 1,17,-1
 280 280 l 1,18,-1
 280 200 l 1,19,-1
 200 200 l 1,16,-1
0 100 m 1,20,-1
 0 180 l 1,21,-1
 80 180 l 1,22,-1
 80 100 l 1,23,-1
 0 100 l 1,20,-1
100 100 m 1,24,-1
 100 180 l 1,25,-1
 180 180 l 1,26,-1
 180 100 l 1,27,-1
 100 100 l 1,24,-1
200 100 m 1,28,-1
 200 180 l 1,29,-1
 280 180 l 1,30,-1
 280 100 l 1,31,-1
 200 100 l 1,28,-1
EndSplineSet
EndChar

StartChar: epsilon
Encoding: 949 949 164
Width: 400
VWidth: 0
LayerCount: 2
Fore
SplineSet
100 500 m 1,0,-1
 100 580 l 1,1,-1
 180 580 l 1,2,-1
 180 500 l 1,3,-1
 100 500 l 1,0,-1
200 500 m 1,4,-1
 200 580 l 1,5,-1
 280 580 l 1,6,-1
 280 500 l 1,7,-1
 200 500 l 1,4,-1
0 400 m 1,8,-1
 0 480 l 1,9,-1
 80 480 l 1,10,-1
 80 400 l 1,11,-1
 0 400 l 1,8,-1
100 300 m 1,12,-1
 100 380 l 1,13,-1
 180 380 l 1,14,-1
 180 300 l 1,15,-1
 100 300 l 1,12,-1
200 300 m 1,16,-1
 200 380 l 1,17,-1
 280 380 l 1,18,-1
 280 300 l 1,19,-1
 200 300 l 1,16,-1
0 200 m 1,20,-1
 0 280 l 1,21,-1
 80 280 l 1,22,-1
 80 200 l 1,23,-1
 0 200 l 1,20,-1
100 100 m 1,24,-1
 100 180 l 1,25,-1
 180 180 l 1,26,-1
 180 100 l 1,27,-1
 100 100 l 1,24,-1
200 100 m 1,28,-1
 200 180 l 1,29,-1
 280 180 l 1,30,-1
 280 100 l 1,31,-1
 200 100 l 1,28,-1
EndSplineSet
EndChar

StartChar: zeta
Encoding: 950 950 165
Width: 400
VWidth: 0
LayerCount: 2
Fore
SplineSet
0 500 m 1,0,-1
 0 580 l 1,1,-1
 80 580 l 1,2,-1
 80 500 l 1,3,-1
 0 500 l 1,0,-1
100 500 m 1,4,-1
 100 580 l 1,5,-1
 180 580 l 1,6,-1
 180 500 l 1,7,-1
 100 500 l 1,4,-1
200 500 m 1,8,-1
 200 580 l 1,9,-1
 280 580 l 1,10,-1
 280 500 l 1,11,-1
 200 500 l 1,8,-1
200 400 m 1,12,-1
 200 480 l 1,13,-1
 280 480 l 1,14,-1
 280 400 l 1,15,-1
 200 400 l 1,12,-1
100 300 m 1,16,-1
 100 380 l 1,17,-1
 180 380 l 1,18,-1
 180 300 l 1,19,-1
 100 300 l 1,16,-1
0 200 m 1,20,-1
 0 280 l 1,21,-1
 80 280 l 1,22,-1
 80 200 l 1,23,-1
 0 200 l 1,20,-1
0 100 m 1,24,-1
 0 180 l 1,25,-1
 80 180 l 1,26,-1
 80 100 l 1,27,-1
 0 100 l 1,24,-1
100 100 m 1,28,-1
 100 180 l 1,29,-1
 180 180 l 1,30,-1
 180 100 l 1,31,-1
 100 100 l 1,28,-1
200 100 m 1,32,-1
 200 180 l 1,33,-1
 280 180 l 1,34,-1
 280 100 l 1,35,-1
 200 100 l 1,32,-1
200 0 m 1,36,-1
 200 80 l 1,37,-1
 280 80 l 1,38,-1
 280 0 l 1,39,-1
 200 0 l 1,36,-1
EndSplineSet
EndChar

StartChar: eta
Encoding: 951 951 166
Width: 500
VWidth: 0
LayerCount: 2
Fore
SplineSet
0 400 m 1,0,-1
 0 480 l 1,1,-1
 80 480 l 1,2,-1
 80 400 l 1,3,-1
 0 400 l 1,0,-1
100 400 m 1,4,-1
 100 480 l 1,5,-1
 180 480 l 1,6,-1
 180 400 l 1,7,-1
 100 400 l 1,4,-1
200 400 m 1,8,-1
 200 480 l 1,9,-1
 280 480 l 1,10,-1
 280 400 l 1,11,-1
 200 400 l 1,8,-1
100 300 m 1,12,-1
 100 380 l 1,13,-1
 180 380 l 1,14,-1
 180 300 l 1,15,-1
 100 300 l 1,12,-1
300 300 m 1,16,-1
 300 380 l 1,17,-1
 380 380 l 1,18,-1
 380 300 l 1,19,-1
 300 300 l 1,16,-1
100 200 m 1,20,-1
 100 280 l 1,21,-1
 180 280 l 1,22,-1
 180 200 l 1,23,-1
 100 200 l 1,20,-1
300 200 m 1,24,-1
 300 280 l 1,25,-1
 380 280 l 1,26,-1
 380 200 l 1,27,-1
 300 200 l 1,24,-1
300 100 m 1,28,-1
 300 180 l 1,29,-1
 380 180 l 1,30,-1
 380 100 l 1,31,-1
 300 100 l 1,28,-1
300 0 m 1,32,-1
 300 80 l 1,33,-1
 380 80 l 1,34,-1
 380 0 l 1,35,-1
 300 0 l 1,32,-1
EndSplineSet
EndChar

StartChar: theta
Encoding: 952 952 167
Width: 500
VWidth: 0
LayerCount: 2
Fore
SplineSet
0 500 m 1,0,-1
 0 580 l 1,1,-1
 80 580 l 1,2,-1
 80 500 l 1,3,-1
 0 500 l 1,0,-1
100 500 m 1,4,-1
 100 580 l 1,5,-1
 180 580 l 1,6,-1
 180 500 l 1,7,-1
 100 500 l 1,4,-1
200 500 m 1,8,-1
 200 580 l 1,9,-1
 280 580 l 1,10,-1
 280 500 l 1,11,-1
 200 500 l 1,8,-1
0 400 m 1,12,-1
 0 480 l 1,13,-1
 80 480 l 1,14,-1
 80 400 l 1,15,-1
 0 400 l 1,12,-1
200 400 m 1,16,-1
 200 480 l 1,17,-1
 280 480 l 1,18,-1
 280 400 l 1,19,-1
 200 400 l 1,16,-1
100 300 m 1,20,-1
 100 380 l 1,21,-1
 180 380 l 1,22,-1
 180 300 l 1,23,-1
 100 300 l 1,20,-1
200 300 m 1,24,-1
 200 380 l 1,25,-1
 280 380 l 1,26,-1
 280 300 l 1,27,-1
 200 300 l 1,24,-1
300 300 m 1,28,-1
 300 380 l 1,29,-1
 380 380 l 1,30,-1
 380 300 l 1,31,-1
 300 300 l 1,28,-1
0 200 m 1,32,-1
 0 280 l 1,33,-1
 80 280 l 1,34,-1
 80 200 l 1,35,-1
 0 200 l 1,32,-1
200 200 m 1,36,-1
 200 280 l 1,37,-1
 280 280 l 1,38,-1
 280 200 l 1,39,-1
 200 200 l 1,36,-1
0 100 m 1,40,-1
 0 180 l 1,41,-1
 80 180 l 1,42,-1
 80 100 l 1,43,-1
 0 100 l 1,40,-1
100 100 m 1,44,-1
 100 180 l 1,45,-1
 180 180 l 1,46,-1
 180 100 l 1,47,-1
 100 100 l 1,44,-1
200 100 m 1,48,-1
 200 180 l 1,49,-1
 280 180 l 1,50,-1
 280 100 l 1,51,-1
 200 100 l 1,48,-1
EndSplineSet
EndChar

StartChar: iota
Encoding: 953 953 168
Width: 300
VWidth: 0
LayerCount: 2
Fore
SplineSet
0 400 m 1,0,-1
 0 480 l 1,1,-1
 80 480 l 1,2,-1
 80 400 l 1,3,-1
 0 400 l 1,0,-1
0 300 m 1,4,-1
 0 380 l 1,5,-1
 80 380 l 1,6,-1
 80 300 l 1,7,-1
 0 300 l 1,4,-1
0 200 m 1,8,-1
 0 280 l 1,9,-1
 80 280 l 1,10,-1
 80 200 l 1,11,-1
 0 200 l 1,8,-1
0 100 m 1,12,-1
 0 180 l 1,13,-1
 80 180 l 1,14,-1
 80 100 l 1,15,-1
 0 100 l 1,12,-1
100 100 m 1,16,-1
 100 180 l 1,17,-1
 180 180 l 1,18,-1
 180 100 l 1,19,-1
 100 100 l 1,16,-1
EndSplineSet
EndChar

StartChar: kappa
Encoding: 954 954 169
Width: 400
VWidth: 0
LayerCount: 2
Fore
SplineSet
0 400 m 1,0,-1
 0 480 l 1,1,-1
 80 480 l 1,2,-1
 80 400 l 1,3,-1
 0 400 l 1,0,-1
200 400 m 1,4,-1
 200 480 l 1,5,-1
 280 480 l 1,6,-1
 280 400 l 1,7,-1
 200 400 l 1,4,-1
0 300 m 1,8,-1
 0 380 l 1,9,-1
 80 380 l 1,10,-1
 80 300 l 1,11,-1
 0 300 l 1,8,-1
100 300 m 1,12,-1
 100 380 l 1,13,-1
 180 380 l 1,14,-1
 180 300 l 1,15,-1
 100 300 l 1,12,-1
0 200 m 1,16,-1
 0 280 l 1,17,-1
 80 280 l 1,18,-1
 80 200 l 1,19,-1
 0 200 l 1,16,-1
200 200 m 1,20,-1
 200 280 l 1,21,-1
 280 280 l 1,22,-1
 280 200 l 1,23,-1
 200 200 l 1,20,-1
0 100 m 1,24,-1
 0 180 l 1,25,-1
 80 180 l 1,26,-1
 80 100 l 1,27,-1
 0 100 l 1,24,-1
200 100 m 1,28,-1
 200 180 l 1,29,-1
 280 180 l 1,30,-1
 280 100 l 1,31,-1
 200 100 l 1,28,-1
EndSplineSet
EndChar

StartChar: lambda
Encoding: 955 955 170
Width: 400
VWidth: 0
LayerCount: 2
Fore
SplineSet
0 500 m 1,0,-1
 0 580 l 1,1,-1
 80 580 l 1,2,-1
 80 500 l 1,3,-1
 0 500 l 1,0,-1
100 500 m 1,4,-1
 100 580 l 1,5,-1
 180 580 l 1,6,-1
 180 500 l 1,7,-1
 100 500 l 1,4,-1
200 400 m 1,8,-1
 200 480 l 1,9,-1
 280 480 l 1,10,-1
 280 400 l 1,11,-1
 200 400 l 1,8,-1
200 300 m 1,12,-1
 200 380 l 1,13,-1
 280 380 l 1,14,-1
 280 300 l 1,15,-1
 200 300 l 1,12,-1
100 200 m 1,16,-1
 100 280 l 1,17,-1
 180 280 l 1,18,-1
 180 200 l 1,19,-1
 100 200 l 1,16,-1
200 200 m 1,20,-1
 200 280 l 1,21,-1
 280 280 l 1,22,-1
 280 200 l 1,23,-1
 200 200 l 1,20,-1
0 100 m 1,24,-1
 0 180 l 1,25,-1
 80 180 l 1,26,-1
 80 100 l 1,27,-1
 0 100 l 1,24,-1
200 100 m 1,28,-1
 200 180 l 1,29,-1
 280 180 l 1,30,-1
 280 100 l 1,31,-1
 200 100 l 1,28,-1
EndSplineSet
EndChar

StartChar: mu
Encoding: 956 956 171
Width: 400
VWidth: 0
LayerCount: 2
Fore
SplineSet
0 400 m 1,0,-1
 0 480 l 1,1,-1
 80 480 l 1,2,-1
 80 400 l 1,3,-1
 0 400 l 1,0,-1
200 400 m 1,4,-1
 200 480 l 1,5,-1
 280 480 l 1,6,-1
 280 400 l 1,7,-1
 200 400 l 1,4,-1
0 300 m 1,8,-1
 0 380 l 1,9,-1
 80 380 l 1,10,-1
 80 300 l 1,11,-1
 0 300 l 1,8,-1
200 300 m 1,12,-1
 200 380 l 1,13,-1
 280 380 l 1,14,-1
 280 300 l 1,15,-1
 200 300 l 1,12,-1
0 200 m 1,16,-1
 0 280 l 1,17,-1
 80 280 l 1,18,-1
 80 200 l 1,19,-1
 0 200 l 1,16,-1
200 200 m 1,20,-1
 200 280 l 1,21,-1
 280 280 l 1,22,-1
 280 200 l 1,23,-1
 200 200 l 1,20,-1
0 100 m 1,24,-1
 0 180 l 1,25,-1
 80 180 l 1,26,-1
 80 100 l 1,27,-1
 0 100 l 1,24,-1
100 100 m 1,28,-1
 100 180 l 1,29,-1
 180 180 l 1,30,-1
 180 100 l 1,31,-1
 100 100 l 1,28,-1
200 100 m 1,32,-1
 200 180 l 1,33,-1
 280 180 l 1,34,-1
 280 100 l 1,35,-1
 200 100 l 1,32,-1
0 0 m 1,36,-1
 0 80 l 1,37,-1
 80 80 l 1,38,-1
 80 0 l 1,39,-1
 0 0 l 1,36,-1
EndSplineSet
EndChar

StartChar: nu
Encoding: 957 957 172
Width: 400
VWidth: 0
LayerCount: 2
Fore
SplineSet
0 400 m 1,0,-1
 0 480 l 1,1,-1
 80 480 l 1,2,-1
 80 400 l 1,3,-1
 0 400 l 1,0,-1
200 400 m 1,4,-1
 200 480 l 1,5,-1
 280 480 l 1,6,-1
 280 400 l 1,7,-1
 200 400 l 1,4,-1
0 300 m 1,8,-1
 0 380 l 1,9,-1
 80 380 l 1,10,-1
 80 300 l 1,11,-1
 0 300 l 1,8,-1
200 300 m 1,12,-1
 200 380 l 1,13,-1
 280 380 l 1,14,-1
 280 300 l 1,15,-1
 200 300 l 1,12,-1
0 200 m 1,16,-1
 0 280 l 1,17,-1
 80 280 l 1,18,-1
 80 200 l 1,19,-1
 0 200 l 1,16,-1
100 200 m 1,20,-1
 100 280 l 1,21,-1
 180 280 l 1,22,-1
 180 200 l 1,23,-1
 100 200 l 1,20,-1
0 100 m 1,24,-1
 0 180 l 1,25,-1
 80 180 l 1,26,-1
 80 100 l 1,27,-1
 0 100 l 1,24,-1
100 100 m 1,28,-1
 100 180 l 1,29,-1
 180 180 l 1,30,-1
 180 100 l 1,31,-1
 100 100 l 1,28,-1
EndSplineSet
EndChar

StartChar: xi
Encoding: 958 958 173
Width: 400
VWidth: 0
LayerCount: 2
Fore
SplineSet
0 500 m 1,0,-1
 0 580 l 1,1,-1
 80 580 l 1,2,-1
 80 500 l 1,3,-1
 0 500 l 1,0,-1
100 500 m 1,4,-1
 100 580 l 1,5,-1
 180 580 l 1,6,-1
 180 500 l 1,7,-1
 100 500 l 1,4,-1
200 500 m 1,8,-1
 200 580 l 1,9,-1
 280 580 l 1,10,-1
 280 500 l 1,11,-1
 200 500 l 1,8,-1
100 400 m 1,12,-1
 100 480 l 1,13,-1
 180 480 l 1,14,-1
 180 400 l 1,15,-1
 100 400 l 1,12,-1
0 300 m 1,16,-1
 0 380 l 1,17,-1
 80 380 l 1,18,-1
 80 300 l 1,19,-1
 0 300 l 1,16,-1
100 300 m 1,20,-1
 100 380 l 1,21,-1
 180 380 l 1,22,-1
 180 300 l 1,23,-1
 100 300 l 1,20,-1
200 300 m 1,24,-1
 200 380 l 1,25,-1
 280 380 l 1,26,-1
 280 300 l 1,27,-1
 200 300 l 1,24,-1
100 200 m 1,28,-1
 100 280 l 1,29,-1
 180 280 l 1,30,-1
 180 200 l 1,31,-1
 100 200 l 1,28,-1
0 100 m 1,32,-1
 0 180 l 1,33,-1
 80 180 l 1,34,-1
 80 100 l 1,35,-1
 0 100 l 1,32,-1
100 100 m 1,36,-1
 100 180 l 1,37,-1
 180 180 l 1,38,-1
 180 100 l 1,39,-1
 100 100 l 1,36,-1
200 100 m 1,40,-1
 200 180 l 1,41,-1
 280 180 l 1,42,-1
 280 100 l 1,43,-1
 200 100 l 1,40,-1
200 0 m 1,44,-1
 200 80 l 1,45,-1
 280 80 l 1,46,-1
 280 0 l 1,47,-1
 200 0 l 1,44,-1
EndSplineSet
EndChar

StartChar: terra
Encoding: 9793 9793 174
Width: 600
VWidth: 0
LayerCount: 2
Fore
SplineSet
100 400 m 1,0,-1
 100 480 l 1,1,-1
 180 480 l 1,2,-1
 180 400 l 1,3,-1
 100 400 l 1,0,-1
200 400 m 1,4,-1
 200 480 l 1,5,-1
 280 480 l 1,6,-1
 280 400 l 1,7,-1
 200 400 l 1,4,-1
300 400 m 1,8,-1
 300 480 l 1,9,-1
 380 480 l 1,10,-1
 380 400 l 1,11,-1
 300 400 l 1,8,-1
0 300 m 1,12,-1
 0 380 l 1,13,-1
 80 380 l 1,14,-1
 80 300 l 1,15,-1
 0 300 l 1,12,-1
200 300 m 1,16,-1
 200 380 l 1,17,-1
 280 380 l 1,18,-1
 280 300 l 1,19,-1
 200 300 l 1,16,-1
400 300 m 1,20,-1
 400 380 l 1,21,-1
 480 380 l 1,22,-1
 480 300 l 1,23,-1
 400 300 l 1,20,-1
0 200 m 1,24,-1
 0 280 l 1,25,-1
 80 280 l 1,26,-1
 80 200 l 1,27,-1
 0 200 l 1,24,-1
100 200 m 1,28,-1
 100 280 l 1,29,-1
 180 280 l 1,30,-1
 180 200 l 1,31,-1
 100 200 l 1,28,-1
200 200 m 1,32,-1
 200 280 l 1,33,-1
 280 280 l 1,34,-1
 280 200 l 1,35,-1
 200 200 l 1,32,-1
300 200 m 1,36,-1
 300 280 l 1,37,-1
 380 280 l 1,38,-1
 380 200 l 1,39,-1
 300 200 l 1,36,-1
400 200 m 1,40,-1
 400 280 l 1,41,-1
 480 280 l 1,42,-1
 480 200 l 1,43,-1
 400 200 l 1,40,-1
0 100 m 1,44,-1
 0 180 l 1,45,-1
 80 180 l 1,46,-1
 80 100 l 1,47,-1
 0 100 l 1,44,-1
200 100 m 1,48,-1
 200 180 l 1,49,-1
 280 180 l 1,50,-1
 280 100 l 1,51,-1
 200 100 l 1,48,-1
400 100 m 1,52,-1
 400 180 l 1,53,-1
 480 180 l 1,54,-1
 480 100 l 1,55,-1
 400 100 l 1,52,-1
100 0 m 1,56,-1
 100 80 l 1,57,-1
 180 80 l 1,58,-1
 180 0 l 1,59,-1
 100 0 l 1,56,-1
200 0 m 1,60,-1
 200 80 l 1,61,-1
 280 80 l 1,62,-1
 280 0 l 1,63,-1
 200 0 l 1,60,-1
300 0 m 1,64,-1
 300 80 l 1,65,-1
 380 80 l 1,66,-1
 380 0 l 1,67,-1
 300 0 l 1,64,-1
EndSplineSet
EndChar

StartChar: pi
Encoding: 960 960 175
Width: 500
VWidth: 0
LayerCount: 2
Fore
SplineSet
0 400 m 1,0,-1
 0 480 l 1,1,-1
 80 480 l 1,2,-1
 80 400 l 1,3,-1
 0 400 l 1,0,-1
100 400 m 1,4,-1
 100 480 l 1,5,-1
 180 480 l 1,6,-1
 180 400 l 1,7,-1
 100 400 l 1,4,-1
200 400 m 1,8,-1
 200 480 l 1,9,-1
 280 480 l 1,10,-1
 280 400 l 1,11,-1
 200 400 l 1,8,-1
300 400 m 1,12,-1
 300 480 l 1,13,-1
 380 480 l 1,14,-1
 380 400 l 1,15,-1
 300 400 l 1,12,-1
0 300 m 1,16,-1
 0 380 l 1,17,-1
 80 380 l 1,18,-1
 80 300 l 1,19,-1
 0 300 l 1,16,-1
200 300 m 1,20,-1
 200 380 l 1,21,-1
 280 380 l 1,22,-1
 280 300 l 1,23,-1
 200 300 l 1,20,-1
0 200 m 1,24,-1
 0 280 l 1,25,-1
 80 280 l 1,26,-1
 80 200 l 1,27,-1
 0 200 l 1,24,-1
200 200 m 1,28,-1
 200 280 l 1,29,-1
 280 280 l 1,30,-1
 280 200 l 1,31,-1
 200 200 l 1,28,-1
0 100 m 1,32,-1
 0 180 l 1,33,-1
 80 180 l 1,34,-1
 80 100 l 1,35,-1
 0 100 l 1,32,-1
200 100 m 1,36,-1
 200 180 l 1,37,-1
 280 180 l 1,38,-1
 280 100 l 1,39,-1
 200 100 l 1,36,-1
300 100 m 1,40,-1
 300 180 l 1,41,-1
 380 180 l 1,42,-1
 380 100 l 1,43,-1
 300 100 l 1,40,-1
EndSplineSet
EndChar

StartChar: rho
Encoding: 961 961 176
Width: 500
VWidth: 0
LayerCount: 2
Fore
SplineSet
200 400 m 1,0,-1
 200 480 l 1,1,-1
 280 480 l 1,2,-1
 280 400 l 1,3,-1
 200 400 l 1,0,-1
300 400 m 1,4,-1
 300 480 l 1,5,-1
 380 480 l 1,6,-1
 380 400 l 1,7,-1
 300 400 l 1,4,-1
100 300 m 1,8,-1
 100 380 l 1,9,-1
 180 380 l 1,10,-1
 180 300 l 1,11,-1
 100 300 l 1,8,-1
300 300 m 1,12,-1
 300 380 l 1,13,-1
 380 380 l 1,14,-1
 380 300 l 1,15,-1
 300 300 l 1,12,-1
100 200 m 1,16,-1
 100 280 l 1,17,-1
 180 280 l 1,18,-1
 180 200 l 1,19,-1
 100 200 l 1,16,-1
200 200 m 1,20,-1
 200 280 l 1,21,-1
 280 280 l 1,22,-1
 280 200 l 1,23,-1
 200 200 l 1,20,-1
300 200 m 1,24,-1
 300 280 l 1,25,-1
 380 280 l 1,26,-1
 380 200 l 1,27,-1
 300 200 l 1,24,-1
100 100 m 1,28,-1
 100 180 l 1,29,-1
 180 180 l 1,30,-1
 180 100 l 1,31,-1
 100 100 l 1,28,-1
0 0 m 1,32,-1
 0 80 l 1,33,-1
 80 80 l 1,34,-1
 80 0 l 1,35,-1
 0 0 l 1,32,-1
100 0 m 1,36,-1
 100 80 l 1,37,-1
 180 80 l 1,38,-1
 180 0 l 1,39,-1
 100 0 l 1,36,-1
EndSplineSet
EndChar

StartChar: sigma
Encoding: 963 963 177
Width: 500
VWidth: 0
LayerCount: 2
Fore
SplineSet
100 400 m 1,0,-1
 100 480 l 1,1,-1
 180 480 l 1,2,-1
 180 400 l 1,3,-1
 100 400 l 1,0,-1
200 400 m 1,4,-1
 200 480 l 1,5,-1
 280 480 l 1,6,-1
 280 400 l 1,7,-1
 200 400 l 1,4,-1
300 400 m 1,8,-1
 300 480 l 1,9,-1
 380 480 l 1,10,-1
 380 400 l 1,11,-1
 300 400 l 1,8,-1
0 300 m 1,12,-1
 0 380 l 1,13,-1
 80 380 l 1,14,-1
 80 300 l 1,15,-1
 0 300 l 1,12,-1
200 300 m 1,16,-1
 200 380 l 1,17,-1
 280 380 l 1,18,-1
 280 300 l 1,19,-1
 200 300 l 1,16,-1
0 200 m 1,20,-1
 0 280 l 1,21,-1
 80 280 l 1,22,-1
 80 200 l 1,23,-1
 0 200 l 1,20,-1
200 200 m 1,24,-1
 200 280 l 1,25,-1
 280 280 l 1,26,-1
 280 200 l 1,27,-1
 200 200 l 1,24,-1
100 100 m 1,28,-1
 100 180 l 1,29,-1
 180 180 l 1,30,-1
 180 100 l 1,31,-1
 100 100 l 1,28,-1
EndSplineSet
EndChar

StartChar: tau
Encoding: 964 964 178
Width: 400
VWidth: 0
LayerCount: 2
Fore
SplineSet
0 400 m 1,0,-1
 0 480 l 1,1,-1
 80 480 l 1,2,-1
 80 400 l 1,3,-1
 0 400 l 1,0,-1
100 400 m 1,4,-1
 100 480 l 1,5,-1
 180 480 l 1,6,-1
 180 400 l 1,7,-1
 100 400 l 1,4,-1
200 400 m 1,8,-1
 200 480 l 1,9,-1
 280 480 l 1,10,-1
 280 400 l 1,11,-1
 200 400 l 1,8,-1
100 300 m 1,12,-1
 100 380 l 1,13,-1
 180 380 l 1,14,-1
 180 300 l 1,15,-1
 100 300 l 1,12,-1
100 200 m 1,16,-1
 100 280 l 1,17,-1
 180 280 l 1,18,-1
 180 200 l 1,19,-1
 100 200 l 1,16,-1
100 100 m 1,20,-1
 100 180 l 1,21,-1
 180 180 l 1,22,-1
 180 100 l 1,23,-1
 100 100 l 1,20,-1
200 100 m 1,24,-1
 200 180 l 1,25,-1
 280 180 l 1,26,-1
 280 100 l 1,27,-1
 200 100 l 1,24,-1
EndSplineSet
EndChar

StartChar: upsilon
Encoding: 965 965 179
Width: 500
VWidth: 0
LayerCount: 2
Fore
SplineSet
0 400 m 1,0,-1
 0 480 l 1,1,-1
 80 480 l 1,2,-1
 80 400 l 1,3,-1
 0 400 l 1,0,-1
100 400 m 1,4,-1
 100 480 l 1,5,-1
 180 480 l 1,6,-1
 180 400 l 1,7,-1
 100 400 l 1,4,-1
300 400 m 1,8,-1
 300 480 l 1,9,-1
 380 480 l 1,10,-1
 380 400 l 1,11,-1
 300 400 l 1,8,-1
100 300 m 1,12,-1
 100 380 l 1,13,-1
 180 380 l 1,14,-1
 180 300 l 1,15,-1
 100 300 l 1,12,-1
300 300 m 1,16,-1
 300 380 l 1,17,-1
 380 380 l 1,18,-1
 380 300 l 1,19,-1
 300 300 l 1,16,-1
100 200 m 1,20,-1
 100 280 l 1,21,-1
 180 280 l 1,22,-1
 180 200 l 1,23,-1
 100 200 l 1,20,-1
300 200 m 1,24,-1
 300 280 l 1,25,-1
 380 280 l 1,26,-1
 380 200 l 1,27,-1
 300 200 l 1,24,-1
100 100 m 1,28,-1
 100 180 l 1,29,-1
 180 180 l 1,30,-1
 180 100 l 1,31,-1
 100 100 l 1,28,-1
200 100 m 1,32,-1
 200 180 l 1,33,-1
 280 180 l 1,34,-1
 280 100 l 1,35,-1
 200 100 l 1,32,-1
EndSplineSet
EndChar

StartChar: phi
Encoding: 966 966 180
Width: 600
VWidth: 0
LayerCount: 2
Fore
SplineSet
100 400 m 1,0,-1
 100 480 l 1,1,-1
 180 480 l 1,2,-1
 180 400 l 1,3,-1
 100 400 l 1,0,-1
200 400 m 1,4,-1
 200 480 l 1,5,-1
 280 480 l 1,6,-1
 280 400 l 1,7,-1
 200 400 l 1,4,-1
300 400 m 1,8,-1
 300 480 l 1,9,-1
 380 480 l 1,10,-1
 380 400 l 1,11,-1
 300 400 l 1,8,-1
0 300 m 1,12,-1
 0 380 l 1,13,-1
 80 380 l 1,14,-1
 80 300 l 1,15,-1
 0 300 l 1,12,-1
200 300 m 1,16,-1
 200 380 l 1,17,-1
 280 380 l 1,18,-1
 280 300 l 1,19,-1
 200 300 l 1,16,-1
400 300 m 1,20,-1
 400 380 l 1,21,-1
 480 380 l 1,22,-1
 480 300 l 1,23,-1
 400 300 l 1,20,-1
0 200 m 1,24,-1
 0 280 l 1,25,-1
 80 280 l 1,26,-1
 80 200 l 1,27,-1
 0 200 l 1,24,-1
200 200 m 1,28,-1
 200 280 l 1,29,-1
 280 280 l 1,30,-1
 280 200 l 1,31,-1
 200 200 l 1,28,-1
400 200 m 1,32,-1
 400 280 l 1,33,-1
 480 280 l 1,34,-1
 480 200 l 1,35,-1
 400 200 l 1,32,-1
100 100 m 1,36,-1
 100 180 l 1,37,-1
 180 180 l 1,38,-1
 180 100 l 1,39,-1
 100 100 l 1,36,-1
200 100 m 1,40,-1
 200 180 l 1,41,-1
 280 180 l 1,42,-1
 280 100 l 1,43,-1
 200 100 l 1,40,-1
300 100 m 1,44,-1
 300 180 l 1,45,-1
 380 180 l 1,46,-1
 380 100 l 1,47,-1
 300 100 l 1,44,-1
200 0 m 1,48,-1
 200 80 l 1,49,-1
 280 80 l 1,50,-1
 280 0 l 1,51,-1
 200 0 l 1,48,-1
EndSplineSet
EndChar

StartChar: chi
Encoding: 967 967 181
Width: 400
VWidth: 0
LayerCount: 2
Fore
SplineSet
0 400 m 1,0,-1
 0 480 l 1,1,-1
 80 480 l 1,2,-1
 80 400 l 1,3,-1
 0 400 l 1,0,-1
200 400 m 1,4,-1
 200 480 l 1,5,-1
 280 480 l 1,6,-1
 280 400 l 1,7,-1
 200 400 l 1,4,-1
0 300 m 1,8,-1
 0 380 l 1,9,-1
 80 380 l 1,10,-1
 80 300 l 1,11,-1
 0 300 l 1,8,-1
200 300 m 1,12,-1
 200 380 l 1,13,-1
 280 380 l 1,14,-1
 280 300 l 1,15,-1
 200 300 l 1,12,-1
100 200 m 1,16,-1
 100 280 l 1,17,-1
 180 280 l 1,18,-1
 180 200 l 1,19,-1
 100 200 l 1,16,-1
0 100 m 1,20,-1
 0 180 l 1,21,-1
 80 180 l 1,22,-1
 80 100 l 1,23,-1
 0 100 l 1,20,-1
200 100 m 1,24,-1
 200 180 l 1,25,-1
 280 180 l 1,26,-1
 280 100 l 1,27,-1
 200 100 l 1,24,-1
0 0 m 1,28,-1
 0 80 l 1,29,-1
 80 80 l 1,30,-1
 80 0 l 1,31,-1
 0 0 l 1,28,-1
200 0 m 1,32,-1
 200 80 l 1,33,-1
 280 80 l 1,34,-1
 280 0 l 1,35,-1
 200 0 l 1,32,-1
EndSplineSet
EndChar

StartChar: psi
Encoding: 968 968 182
Width: 600
VWidth: 0
LayerCount: 2
Fore
SplineSet
0 400 m 1,0,-1
 0 480 l 1,1,-1
 80 480 l 1,2,-1
 80 400 l 1,3,-1
 0 400 l 1,0,-1
200 400 m 1,4,-1
 200 480 l 1,5,-1
 280 480 l 1,6,-1
 280 400 l 1,7,-1
 200 400 l 1,4,-1
400 400 m 1,8,-1
 400 480 l 1,9,-1
 480 480 l 1,10,-1
 480 400 l 1,11,-1
 400 400 l 1,8,-1
0 300 m 1,12,-1
 0 380 l 1,13,-1
 80 380 l 1,14,-1
 80 300 l 1,15,-1
 0 300 l 1,12,-1
200 300 m 1,16,-1
 200 380 l 1,17,-1
 280 380 l 1,18,-1
 280 300 l 1,19,-1
 200 300 l 1,16,-1
400 300 m 1,20,-1
 400 380 l 1,21,-1
 480 380 l 1,22,-1
 480 300 l 1,23,-1
 400 300 l 1,20,-1
100 200 m 1,24,-1
 100 280 l 1,25,-1
 180 280 l 1,26,-1
 180 200 l 1,27,-1
 100 200 l 1,24,-1
200 200 m 1,28,-1
 200 280 l 1,29,-1
 280 280 l 1,30,-1
 280 200 l 1,31,-1
 200 200 l 1,28,-1
300 200 m 1,32,-1
 300 280 l 1,33,-1
 380 280 l 1,34,-1
 380 200 l 1,35,-1
 300 200 l 1,32,-1
200 100 m 1,36,-1
 200 180 l 1,37,-1
 280 180 l 1,38,-1
 280 100 l 1,39,-1
 200 100 l 1,36,-1
200 0 m 1,40,-1
 200 80 l 1,41,-1
 280 80 l 1,42,-1
 280 0 l 1,43,-1
 200 0 l 1,40,-1
EndSplineSet
EndChar

StartChar: omega
Encoding: 969 969 183
Width: 600
VWidth: 0
LayerCount: 2
Fore
SplineSet
100 400 m 1,0,-1
 100 480 l 1,1,-1
 180 480 l 1,2,-1
 180 400 l 1,3,-1
 100 400 l 1,0,-1
300 400 m 1,4,-1
 300 480 l 1,5,-1
 380 480 l 1,6,-1
 380 400 l 1,7,-1
 300 400 l 1,4,-1
0 300 m 1,8,-1
 0 380 l 1,9,-1
 80 380 l 1,10,-1
 80 300 l 1,11,-1
 0 300 l 1,8,-1
400 300 m 1,12,-1
 400 380 l 1,13,-1
 480 380 l 1,14,-1
 480 300 l 1,15,-1
 400 300 l 1,12,-1
0 200 m 1,16,-1
 0 280 l 1,17,-1
 80 280 l 1,18,-1
 80 200 l 1,19,-1
 0 200 l 1,16,-1
200 200 m 1,20,-1
 200 280 l 1,21,-1
 280 280 l 1,22,-1
 280 200 l 1,23,-1
 200 200 l 1,20,-1
400 200 m 1,24,-1
 400 280 l 1,25,-1
 480 280 l 1,26,-1
 480 200 l 1,27,-1
 400 200 l 1,24,-1
100 100 m 1,28,-1
 100 180 l 1,29,-1
 180 180 l 1,30,-1
 180 100 l 1,31,-1
 100 100 l 1,28,-1
300 100 m 1,32,-1
 300 180 l 1,33,-1
 380 180 l 1,34,-1
 380 100 l 1,35,-1
 300 100 l 1,32,-1
EndSplineSet
EndChar

StartChar: sub0
Encoding: 8320 8320 184
Width: 400
VWidth: 0
LayerCount: 2
Fore
SplineSet
0 200 m 1,0,-1
 0 280 l 1,1,-1
 80 280 l 1,2,-1
 80 200 l 1,3,-1
 0 200 l 1,0,-1
100 200 m 1,4,-1
 100 280 l 1,5,-1
 180 280 l 1,6,-1
 180 200 l 1,7,-1
 100 200 l 1,4,-1
200 200 m 1,8,-1
 200 280 l 1,9,-1
 280 280 l 1,10,-1
 280 200 l 1,11,-1
 200 200 l 1,8,-1
0 100 m 1,12,-1
 0 180 l 1,13,-1
 80 180 l 1,14,-1
 80 100 l 1,15,-1
 0 100 l 1,12,-1
200 100 m 1,16,-1
 200 180 l 1,17,-1
 280 180 l 1,18,-1
 280 100 l 1,19,-1
 200 100 l 1,16,-1
0 0 m 1,20,-1
 0 80 l 1,21,-1
 80 80 l 1,22,-1
 80 0 l 1,23,-1
 0 0 l 1,20,-1
100 0 m 1,24,-1
 100 80 l 1,25,-1
 180 80 l 1,26,-1
 180 0 l 1,27,-1
 100 0 l 1,24,-1
200 0 m 1,28,-1
 200 80 l 1,29,-1
 280 80 l 1,30,-1
 280 0 l 1,31,-1
 200 0 l 1,28,-1
EndSplineSet
EndChar

StartChar: sub1
Encoding: 8321 8321 185
Width: 300
VWidth: 0
LayerCount: 2
Fore
SplineSet
100 300 m 1,0,-1
 100 380 l 1,1,-1
 180 380 l 1,2,-1
 180 300 l 1,3,-1
 100 300 l 1,0,-1
0 200 m 1,4,-1
 0 280 l 1,5,-1
 80 280 l 1,6,-1
 80 200 l 1,7,-1
 0 200 l 1,4,-1
100 200 m 1,8,-1
 100 280 l 1,9,-1
 180 280 l 1,10,-1
 180 200 l 1,11,-1
 100 200 l 1,8,-1
100 100 m 1,12,-1
 100 180 l 1,13,-1
 180 180 l 1,14,-1
 180 100 l 1,15,-1
 100 100 l 1,12,-1
100 0 m 1,16,-1
 100 80 l 1,17,-1
 180 80 l 1,18,-1
 180 0 l 1,19,-1
 100 0 l 1,16,-1
EndSplineSet
EndChar

StartChar: sub2
Encoding: 8322 8322 186
Width: 300
VWidth: 0
LayerCount: 2
Fore
SplineSet
0 300 m 1,0,-1
 0 380 l 1,1,-1
 80 380 l 1,2,-1
 80 300 l 1,3,-1
 0 300 l 1,0,-1
100 300 m 1,4,-1
 100 380 l 1,5,-1
 180 380 l 1,6,-1
 180 300 l 1,7,-1
 100 300 l 1,4,-1
100 200 m 1,8,-1
 100 280 l 1,9,-1
 180 280 l 1,10,-1
 180 200 l 1,11,-1
 100 200 l 1,8,-1
0 100 m 1,12,-1
 0 180 l 1,13,-1
 80 180 l 1,14,-1
 80 100 l 1,15,-1
 0 100 l 1,12,-1
0 0 m 1,16,-1
 0 80 l 1,17,-1
 80 80 l 1,18,-1
 80 0 l 1,19,-1
 0 0 l 1,16,-1
100 0 m 1,20,-1
 100 80 l 1,21,-1
 180 80 l 1,22,-1
 180 0 l 1,23,-1
 100 0 l 1,20,-1
EndSplineSet
EndChar

StartChar: subc
Encoding: 57365 57365 187
Width: 300
VWidth: 0
LayerCount: 2
Fore
SplineSet
0 200 m 1,0,-1
 0 280 l 1,1,-1
 80 280 l 1,2,-1
 80 200 l 1,3,-1
 0 200 l 1,0,-1
100 200 m 1,4,-1
 100 280 l 1,5,-1
 180 280 l 1,6,-1
 180 200 l 1,7,-1
 100 200 l 1,4,-1
0 100 m 1,8,-1
 0 180 l 1,9,-1
 80 180 l 1,10,-1
 80 100 l 1,11,-1
 0 100 l 1,8,-1
0 0 m 1,12,-1
 0 80 l 1,13,-1
 80 80 l 1,14,-1
 80 0 l 1,15,-1
 0 0 l 1,12,-1
100 0 m 1,16,-1
 100 80 l 1,17,-1
 180 80 l 1,18,-1
 180 0 l 1,19,-1
 100 0 l 1,16,-1
EndSplineSet
EndChar

StartChar: sube
Encoding: 8337 8337 188
Width: 400
VWidth: 0
LayerCount: 2
Fore
SplineSet
100 300 m 1,0,-1
 100 380 l 1,1,-1
 180 380 l 1,2,-1
 180 300 l 1,3,-1
 100 300 l 1,0,-1
200 300 m 1,4,-1
 200 380 l 1,5,-1
 280 380 l 1,6,-1
 280 300 l 1,7,-1
 200 300 l 1,4,-1
0 200 m 1,8,-1
 0 280 l 1,9,-1
 80 280 l 1,10,-1
 80 200 l 1,11,-1
 0 200 l 1,8,-1
200 200 m 1,12,-1
 200 280 l 1,13,-1
 280 280 l 1,14,-1
 280 200 l 1,15,-1
 200 200 l 1,12,-1
0 100 m 1,16,-1
 0 180 l 1,17,-1
 80 180 l 1,18,-1
 80 100 l 1,19,-1
 0 100 l 1,16,-1
100 100 m 1,20,-1
 100 180 l 1,21,-1
 180 180 l 1,22,-1
 180 100 l 1,23,-1
 100 100 l 1,20,-1
100 0 m 1,24,-1
 100 80 l 1,25,-1
 180 80 l 1,26,-1
 180 0 l 1,27,-1
 100 0 l 1,24,-1
200 0 m 1,28,-1
 200 80 l 1,29,-1
 280 80 l 1,30,-1
 280 0 l 1,31,-1
 200 0 l 1,28,-1
EndSplineSet
EndChar

StartChar: subn
Encoding: 8345 8345 189
Width: 400
VWidth: 0
LayerCount: 2
Fore
SplineSet
0 100 m 1,0,-1
 0 180 l 1,1,-1
 80 180 l 1,2,-1
 80 100 l 1,3,-1
 0 100 l 1,0,-1
100 100 m 1,4,-1
 100 180 l 1,5,-1
 180 180 l 1,6,-1
 180 100 l 1,7,-1
 100 100 l 1,4,-1
200 100 m 1,8,-1
 200 180 l 1,9,-1
 280 180 l 1,10,-1
 280 100 l 1,11,-1
 200 100 l 1,8,-1
0 0 m 1,12,-1
 0 80 l 1,13,-1
 80 80 l 1,14,-1
 80 0 l 1,15,-1
 0 0 l 1,12,-1
200 0 m 1,16,-1
 200 80 l 1,17,-1
 280 80 l 1,18,-1
 280 0 l 1,19,-1
 200 0 l 1,16,-1
EndSplineSet
EndChar

StartChar: subp
Encoding: 8346 8346 190
Width: 400
VWidth: 0
LayerCount: 2
Fore
SplineSet
0 200 m 1,0,-1
 0 280 l 1,1,-1
 80 280 l 1,2,-1
 80 200 l 1,3,-1
 0 200 l 1,0,-1
100 200 m 1,4,-1
 100 280 l 1,5,-1
 180 280 l 1,6,-1
 180 200 l 1,7,-1
 100 200 l 1,4,-1
200 200 m 1,8,-1
 200 280 l 1,9,-1
 280 280 l 1,10,-1
 280 200 l 1,11,-1
 200 200 l 1,8,-1
0 100 m 1,12,-1
 0 180 l 1,13,-1
 80 180 l 1,14,-1
 80 100 l 1,15,-1
 0 100 l 1,12,-1
100 100 m 1,16,-1
 100 180 l 1,17,-1
 180 180 l 1,18,-1
 180 100 l 1,19,-1
 100 100 l 1,16,-1
200 100 m 1,20,-1
 200 180 l 1,21,-1
 280 180 l 1,22,-1
 280 100 l 1,23,-1
 200 100 l 1,20,-1
0 0 m 1,24,-1
 0 80 l 1,25,-1
 80 80 l 1,26,-1
 80 0 l 1,27,-1
 0 0 l 1,24,-1
EndSplineSet
EndChar

StartChar: subu
Encoding: 57366 57366 191
Width: 400
VWidth: 0
LayerCount: 2
Fore
SplineSet
0 100 m 1,0,-1
 0 180 l 1,1,-1
 80 180 l 1,2,-1
 80 100 l 1,3,-1
 0 100 l 1,0,-1
200 100 m 1,4,-1
 200 180 l 1,5,-1
 280 180 l 1,6,-1
 280 100 l 1,7,-1
 200 100 l 1,4,-1
0 0 m 1,8,-1
 0 80 l 1,9,-1
 80 80 l 1,10,-1
 80 0 l 1,11,-1
 0 0 l 1,8,-1
100 0 m 1,12,-1
 100 80 l 1,13,-1
 180 80 l 1,14,-1
 180 0 l 1,15,-1
 100 0 l 1,12,-1
200 0 m 1,16,-1
 200 80 l 1,17,-1
 280 80 l 1,18,-1
 280 0 l 1,19,-1
 200 0 l 1,16,-1
EndSplineSet
EndChar

StartChar: Agrave
Encoding: 192 192 192
Width: 400
VWidth: 0
LayerCount: 2
Fore
SplineSet
0 500 m 1,0,-1
 0 580 l 1,1,-1
 80 580 l 1,2,-1
 80 500 l 1,3,-1
 0 500 l 1,0,-1
100 500 m 1,4,-1
 100 580 l 1,5,-1
 180 580 l 1,6,-1
 180 500 l 1,7,-1
 100 500 l 1,4,-1
0 300 m 1,8,-1
 0 380 l 1,9,-1
 80 380 l 1,10,-1
 80 300 l 1,11,-1
 0 300 l 1,8,-1
100 300 m 1,12,-1
 100 380 l 1,13,-1
 180 380 l 1,14,-1
 180 300 l 1,15,-1
 100 300 l 1,12,-1
200 300 m 1,16,-1
 200 380 l 1,17,-1
 280 380 l 1,18,-1
 280 300 l 1,19,-1
 200 300 l 1,16,-1
0 200 m 1,20,-1
 0 280 l 1,21,-1
 80 280 l 1,22,-1
 80 200 l 1,23,-1
 0 200 l 1,20,-1
100 200 m 1,24,-1
 100 280 l 1,25,-1
 180 280 l 1,26,-1
 180 200 l 1,27,-1
 100 200 l 1,24,-1
200 200 m 1,28,-1
 200 280 l 1,29,-1
 280 280 l 1,30,-1
 280 200 l 1,31,-1
 200 200 l 1,28,-1
0 100 m 1,32,-1
 0 180 l 1,33,-1
 80 180 l 1,34,-1
 80 100 l 1,35,-1
 0 100 l 1,32,-1
200 100 m 1,36,-1
 200 180 l 1,37,-1
 280 180 l 1,38,-1
 280 100 l 1,39,-1
 200 100 l 1,36,-1
EndSplineSet
EndChar

StartChar: Aacute
Encoding: 193 193 193
Width: 400
VWidth: 0
LayerCount: 2
Fore
SplineSet
100 500 m 1,0,-1
 100 580 l 1,1,-1
 180 580 l 1,2,-1
 180 500 l 1,3,-1
 100 500 l 1,0,-1
200 500 m 1,4,-1
 200 580 l 1,5,-1
 280 580 l 1,6,-1
 280 500 l 1,7,-1
 200 500 l 1,4,-1
0 300 m 1,8,-1
 0 380 l 1,9,-1
 80 380 l 1,10,-1
 80 300 l 1,11,-1
 0 300 l 1,8,-1
100 300 m 1,12,-1
 100 380 l 1,13,-1
 180 380 l 1,14,-1
 180 300 l 1,15,-1
 100 300 l 1,12,-1
200 300 m 1,16,-1
 200 380 l 1,17,-1
 280 380 l 1,18,-1
 280 300 l 1,19,-1
 200 300 l 1,16,-1
0 200 m 1,20,-1
 0 280 l 1,21,-1
 80 280 l 1,22,-1
 80 200 l 1,23,-1
 0 200 l 1,20,-1
100 200 m 1,24,-1
 100 280 l 1,25,-1
 180 280 l 1,26,-1
 180 200 l 1,27,-1
 100 200 l 1,24,-1
200 200 m 1,28,-1
 200 280 l 1,29,-1
 280 280 l 1,30,-1
 280 200 l 1,31,-1
 200 200 l 1,28,-1
0 100 m 1,32,-1
 0 180 l 1,33,-1
 80 180 l 1,34,-1
 80 100 l 1,35,-1
 0 100 l 1,32,-1
200 100 m 1,36,-1
 200 180 l 1,37,-1
 280 180 l 1,38,-1
 280 100 l 1,39,-1
 200 100 l 1,36,-1
EndSplineSet
EndChar

StartChar: Atilde
Encoding: 195 195 194
Width: 400
VWidth: 0
LayerCount: 2
Fore
SplineSet
0 500 m 1,0,-1
 0 580 l 1,1,-1
 80 580 l 1,2,-1
 80 500 l 1,3,-1
 0 500 l 1,0,-1
100 500 m 1,4,-1
 100 580 l 1,5,-1
 180 580 l 1,6,-1
 180 500 l 1,7,-1
 100 500 l 1,4,-1
200 500 m 1,8,-1
 200 580 l 1,9,-1
 280 580 l 1,10,-1
 280 500 l 1,11,-1
 200 500 l 1,8,-1
0 300 m 1,12,-1
 0 380 l 1,13,-1
 80 380 l 1,14,-1
 80 300 l 1,15,-1
 0 300 l 1,12,-1
100 300 m 1,16,-1
 100 380 l 1,17,-1
 180 380 l 1,18,-1
 180 300 l 1,19,-1
 100 300 l 1,16,-1
200 300 m 1,20,-1
 200 380 l 1,21,-1
 280 380 l 1,22,-1
 280 300 l 1,23,-1
 200 300 l 1,20,-1
0 200 m 1,24,-1
 0 280 l 1,25,-1
 80 280 l 1,26,-1
 80 200 l 1,27,-1
 0 200 l 1,24,-1
100 200 m 1,28,-1
 100 280 l 1,29,-1
 180 280 l 1,30,-1
 180 200 l 1,31,-1
 100 200 l 1,28,-1
200 200 m 1,32,-1
 200 280 l 1,33,-1
 280 280 l 1,34,-1
 280 200 l 1,35,-1
 200 200 l 1,32,-1
0 100 m 1,36,-1
 0 180 l 1,37,-1
 80 180 l 1,38,-1
 80 100 l 1,39,-1
 0 100 l 1,36,-1
200 100 m 1,40,-1
 200 180 l 1,41,-1
 280 180 l 1,42,-1
 280 100 l 1,43,-1
 200 100 l 1,40,-1
EndSplineSet
EndChar

StartChar: Aumlaut
Encoding: 196 196 195
Width: 400
VWidth: 0
LayerCount: 2
Fore
SplineSet
0 500 m 1,0,-1
 0 580 l 1,1,-1
 80 580 l 1,2,-1
 80 500 l 1,3,-1
 0 500 l 1,0,-1
200 500 m 1,4,-1
 200 580 l 1,5,-1
 280 580 l 1,6,-1
 280 500 l 1,7,-1
 200 500 l 1,4,-1
0 300 m 1,8,-1
 0 380 l 1,9,-1
 80 380 l 1,10,-1
 80 300 l 1,11,-1
 0 300 l 1,8,-1
100 300 m 1,12,-1
 100 380 l 1,13,-1
 180 380 l 1,14,-1
 180 300 l 1,15,-1
 100 300 l 1,12,-1
200 300 m 1,16,-1
 200 380 l 1,17,-1
 280 380 l 1,18,-1
 280 300 l 1,19,-1
 200 300 l 1,16,-1
0 200 m 1,20,-1
 0 280 l 1,21,-1
 80 280 l 1,22,-1
 80 200 l 1,23,-1
 0 200 l 1,20,-1
100 200 m 1,24,-1
 100 280 l 1,25,-1
 180 280 l 1,26,-1
 180 200 l 1,27,-1
 100 200 l 1,24,-1
200 200 m 1,28,-1
 200 280 l 1,29,-1
 280 280 l 1,30,-1
 280 200 l 1,31,-1
 200 200 l 1,28,-1
0 100 m 1,32,-1
 0 180 l 1,33,-1
 80 180 l 1,34,-1
 80 100 l 1,35,-1
 0 100 l 1,32,-1
200 100 m 1,36,-1
 200 180 l 1,37,-1
 280 180 l 1,38,-1
 280 100 l 1,39,-1
 200 100 l 1,36,-1
EndSplineSet
EndChar

StartChar: Adot
Encoding: 194 194 196
Width: 400
VWidth: 0
LayerCount: 2
Fore
SplineSet
100 500 m 1,0,-1
 100 580 l 1,1,-1
 180 580 l 1,2,-1
 180 500 l 1,3,-1
 100 500 l 1,0,-1
0 300 m 1,4,-1
 0 380 l 1,5,-1
 80 380 l 1,6,-1
 80 300 l 1,7,-1
 0 300 l 1,4,-1
100 300 m 1,8,-1
 100 380 l 1,9,-1
 180 380 l 1,10,-1
 180 300 l 1,11,-1
 100 300 l 1,8,-1
200 300 m 1,12,-1
 200 380 l 1,13,-1
 280 380 l 1,14,-1
 280 300 l 1,15,-1
 200 300 l 1,12,-1
0 200 m 1,16,-1
 0 280 l 1,17,-1
 80 280 l 1,18,-1
 80 200 l 1,19,-1
 0 200 l 1,16,-1
100 200 m 1,20,-1
 100 280 l 1,21,-1
 180 280 l 1,22,-1
 180 200 l 1,23,-1
 100 200 l 1,20,-1
200 200 m 1,24,-1
 200 280 l 1,25,-1
 280 280 l 1,26,-1
 280 200 l 1,27,-1
 200 200 l 1,24,-1
0 100 m 1,28,-1
 0 180 l 1,29,-1
 80 180 l 1,30,-1
 80 100 l 1,31,-1
 0 100 l 1,28,-1
200 100 m 1,32,-1
 200 180 l 1,33,-1
 280 180 l 1,34,-1
 280 100 l 1,35,-1
 200 100 l 1,32,-1
EndSplineSet
EndChar

StartChar: Cacute
Encoding: 262 262 197
Width: 400
VWidth: 0
LayerCount: 2
Fore
SplineSet
100 500 m 1,0,-1
 100 580 l 1,1,-1
 180 580 l 1,2,-1
 180 500 l 1,3,-1
 100 500 l 1,0,-1
200 500 m 1,4,-1
 200 580 l 1,5,-1
 280 580 l 1,6,-1
 280 500 l 1,7,-1
 200 500 l 1,4,-1
0 300 m 1,8,-1
 0 380 l 1,9,-1
 80 380 l 1,10,-1
 80 300 l 1,11,-1
 0 300 l 1,8,-1
100 300 m 1,12,-1
 100 380 l 1,13,-1
 180 380 l 1,14,-1
 180 300 l 1,15,-1
 100 300 l 1,12,-1
200 300 m 1,16,-1
 200 380 l 1,17,-1
 280 380 l 1,18,-1
 280 300 l 1,19,-1
 200 300 l 1,16,-1
0 200 m 1,20,-1
 0 280 l 1,21,-1
 80 280 l 1,22,-1
 80 200 l 1,23,-1
 0 200 l 1,20,-1
0 100 m 1,24,-1
 0 180 l 1,25,-1
 80 180 l 1,26,-1
 80 100 l 1,27,-1
 0 100 l 1,24,-1
100 100 m 1,28,-1
 100 180 l 1,29,-1
 180 180 l 1,30,-1
 180 100 l 1,31,-1
 100 100 l 1,28,-1
200 100 m 1,32,-1
 200 180 l 1,33,-1
 280 180 l 1,34,-1
 280 100 l 1,35,-1
 200 100 l 1,32,-1
EndSplineSet
EndChar

StartChar: Chook
Encoding: 268 268 198
Width: 400
VWidth: 0
LayerCount: 2
Fore
SplineSet
0 500 m 1,0,-1
 0 580 l 1,1,-1
 80 580 l 1,2,-1
 80 500 l 1,3,-1
 0 500 l 1,0,-1
100 500 m 1,4,-1
 100 580 l 1,5,-1
 180 580 l 1,6,-1
 180 500 l 1,7,-1
 100 500 l 1,4,-1
200 500 m 1,8,-1
 200 580 l 1,9,-1
 280 580 l 1,10,-1
 280 500 l 1,11,-1
 200 500 l 1,8,-1
0 300 m 1,12,-1
 0 380 l 1,13,-1
 80 380 l 1,14,-1
 80 300 l 1,15,-1
 0 300 l 1,12,-1
100 300 m 1,16,-1
 100 380 l 1,17,-1
 180 380 l 1,18,-1
 180 300 l 1,19,-1
 100 300 l 1,16,-1
200 300 m 1,20,-1
 200 380 l 1,21,-1
 280 380 l 1,22,-1
 280 300 l 1,23,-1
 200 300 l 1,20,-1
0 200 m 1,24,-1
 0 280 l 1,25,-1
 80 280 l 1,26,-1
 80 200 l 1,27,-1
 0 200 l 1,24,-1
0 100 m 1,28,-1
 0 180 l 1,29,-1
 80 180 l 1,30,-1
 80 100 l 1,31,-1
 0 100 l 1,28,-1
100 100 m 1,32,-1
 100 180 l 1,33,-1
 180 180 l 1,34,-1
 180 100 l 1,35,-1
 100 100 l 1,32,-1
200 100 m 1,36,-1
 200 180 l 1,37,-1
 280 180 l 1,38,-1
 280 100 l 1,39,-1
 200 100 l 1,36,-1
EndSplineSet
EndChar

StartChar: Ccedilla
Encoding: 199 199 199
Width: 400
VWidth: 0
LayerCount: 2
Fore
SplineSet
100 500 m 1,0,-1
 100 580 l 1,1,-1
 180 580 l 1,2,-1
 180 500 l 1,3,-1
 100 500 l 1,0,-1
200 500 m 1,4,-1
 200 580 l 1,5,-1
 280 580 l 1,6,-1
 280 500 l 1,7,-1
 200 500 l 1,4,-1
0 400 m 1,8,-1
 0 480 l 1,9,-1
 80 480 l 1,10,-1
 80 400 l 1,11,-1
 0 400 l 1,8,-1
0 300 m 1,12,-1
 0 380 l 1,13,-1
 80 380 l 1,14,-1
 80 300 l 1,15,-1
 0 300 l 1,12,-1
0 200 m 1,16,-1
 0 280 l 1,17,-1
 80 280 l 1,18,-1
 80 200 l 1,19,-1
 0 200 l 1,16,-1
100 100 m 1,20,-1
 100 180 l 1,21,-1
 180 180 l 1,22,-1
 180 100 l 1,23,-1
 100 100 l 1,20,-1
200 100 m 1,24,-1
 200 180 l 1,25,-1
 280 180 l 1,26,-1
 280 100 l 1,27,-1
 200 100 l 1,24,-1
0 0 m 1,28,-1
 0 80 l 1,29,-1
 80 80 l 1,30,-1
 80 0 l 1,31,-1
 0 0 l 1,28,-1
100 0 m 1,32,-1
 100 80 l 1,33,-1
 180 80 l 1,34,-1
 180 0 l 1,35,-1
 100 0 l 1,32,-1
EndSplineSet
EndChar

StartChar: Egrave
Encoding: 200 200 200
Width: 400
VWidth: 0
LayerCount: 2
Fore
SplineSet
0 500 m 1,0,-1
 0 580 l 1,1,-1
 80 580 l 1,2,-1
 80 500 l 1,3,-1
 0 500 l 1,0,-1
100 500 m 1,4,-1
 100 580 l 1,5,-1
 180 580 l 1,6,-1
 180 500 l 1,7,-1
 100 500 l 1,4,-1
0 300 m 1,8,-1
 0 380 l 1,9,-1
 80 380 l 1,10,-1
 80 300 l 1,11,-1
 0 300 l 1,8,-1
100 300 m 1,12,-1
 100 380 l 1,13,-1
 180 380 l 1,14,-1
 180 300 l 1,15,-1
 100 300 l 1,12,-1
200 300 m 1,16,-1
 200 380 l 1,17,-1
 280 380 l 1,18,-1
 280 300 l 1,19,-1
 200 300 l 1,16,-1
0 200 m 1,20,-1
 0 280 l 1,21,-1
 80 280 l 1,22,-1
 80 200 l 1,23,-1
 0 200 l 1,20,-1
100 200 m 1,24,-1
 100 280 l 1,25,-1
 180 280 l 1,26,-1
 180 200 l 1,27,-1
 100 200 l 1,24,-1
0 100 m 1,28,-1
 0 180 l 1,29,-1
 80 180 l 1,30,-1
 80 100 l 1,31,-1
 0 100 l 1,28,-1
100 100 m 1,32,-1
 100 180 l 1,33,-1
 180 180 l 1,34,-1
 180 100 l 1,35,-1
 100 100 l 1,32,-1
200 100 m 1,36,-1
 200 180 l 1,37,-1
 280 180 l 1,38,-1
 280 100 l 1,39,-1
 200 100 l 1,36,-1
EndSplineSet
EndChar

StartChar: Eacute
Encoding: 201 201 201
Width: 400
VWidth: 0
LayerCount: 2
Fore
SplineSet
100 500 m 1,0,-1
 100 580 l 1,1,-1
 180 580 l 1,2,-1
 180 500 l 1,3,-1
 100 500 l 1,0,-1
200 500 m 1,4,-1
 200 580 l 1,5,-1
 280 580 l 1,6,-1
 280 500 l 1,7,-1
 200 500 l 1,4,-1
0 300 m 1,8,-1
 0 380 l 1,9,-1
 80 380 l 1,10,-1
 80 300 l 1,11,-1
 0 300 l 1,8,-1
100 300 m 1,12,-1
 100 380 l 1,13,-1
 180 380 l 1,14,-1
 180 300 l 1,15,-1
 100 300 l 1,12,-1
200 300 m 1,16,-1
 200 380 l 1,17,-1
 280 380 l 1,18,-1
 280 300 l 1,19,-1
 200 300 l 1,16,-1
0 200 m 1,20,-1
 0 280 l 1,21,-1
 80 280 l 1,22,-1
 80 200 l 1,23,-1
 0 200 l 1,20,-1
100 200 m 1,24,-1
 100 280 l 1,25,-1
 180 280 l 1,26,-1
 180 200 l 1,27,-1
 100 200 l 1,24,-1
0 100 m 1,28,-1
 0 180 l 1,29,-1
 80 180 l 1,30,-1
 80 100 l 1,31,-1
 0 100 l 1,28,-1
100 100 m 1,32,-1
 100 180 l 1,33,-1
 180 180 l 1,34,-1
 180 100 l 1,35,-1
 100 100 l 1,32,-1
200 100 m 1,36,-1
 200 180 l 1,37,-1
 280 180 l 1,38,-1
 280 100 l 1,39,-1
 200 100 l 1,36,-1
EndSplineSet
EndChar

StartChar: Etilde
Encoding: 274 274 202
Width: 400
VWidth: 0
LayerCount: 2
Fore
SplineSet
0 500 m 1,0,-1
 0 580 l 1,1,-1
 80 580 l 1,2,-1
 80 500 l 1,3,-1
 0 500 l 1,0,-1
100 500 m 1,4,-1
 100 580 l 1,5,-1
 180 580 l 1,6,-1
 180 500 l 1,7,-1
 100 500 l 1,4,-1
200 500 m 1,8,-1
 200 580 l 1,9,-1
 280 580 l 1,10,-1
 280 500 l 1,11,-1
 200 500 l 1,8,-1
0 300 m 1,12,-1
 0 380 l 1,13,-1
 80 380 l 1,14,-1
 80 300 l 1,15,-1
 0 300 l 1,12,-1
100 300 m 1,16,-1
 100 380 l 1,17,-1
 180 380 l 1,18,-1
 180 300 l 1,19,-1
 100 300 l 1,16,-1
200 300 m 1,20,-1
 200 380 l 1,21,-1
 280 380 l 1,22,-1
 280 300 l 1,23,-1
 200 300 l 1,20,-1
0 200 m 1,24,-1
 0 280 l 1,25,-1
 80 280 l 1,26,-1
 80 200 l 1,27,-1
 0 200 l 1,24,-1
100 200 m 1,28,-1
 100 280 l 1,29,-1
 180 280 l 1,30,-1
 180 200 l 1,31,-1
 100 200 l 1,28,-1
0 100 m 1,32,-1
 0 180 l 1,33,-1
 80 180 l 1,34,-1
 80 100 l 1,35,-1
 0 100 l 1,32,-1
100 100 m 1,36,-1
 100 180 l 1,37,-1
 180 180 l 1,38,-1
 180 100 l 1,39,-1
 100 100 l 1,36,-1
200 100 m 1,40,-1
 200 180 l 1,41,-1
 280 180 l 1,42,-1
 280 100 l 1,43,-1
 200 100 l 1,40,-1
EndSplineSet
EndChar

StartChar: Etrema
Encoding: 203 203 203
Width: 400
VWidth: 0
LayerCount: 2
Fore
SplineSet
0 500 m 1,0,-1
 0 580 l 1,1,-1
 80 580 l 1,2,-1
 80 500 l 1,3,-1
 0 500 l 1,0,-1
200 500 m 1,4,-1
 200 580 l 1,5,-1
 280 580 l 1,6,-1
 280 500 l 1,7,-1
 200 500 l 1,4,-1
0 300 m 1,8,-1
 0 380 l 1,9,-1
 80 380 l 1,10,-1
 80 300 l 1,11,-1
 0 300 l 1,8,-1
100 300 m 1,12,-1
 100 380 l 1,13,-1
 180 380 l 1,14,-1
 180 300 l 1,15,-1
 100 300 l 1,12,-1
200 300 m 1,16,-1
 200 380 l 1,17,-1
 280 380 l 1,18,-1
 280 300 l 1,19,-1
 200 300 l 1,16,-1
0 200 m 1,20,-1
 0 280 l 1,21,-1
 80 280 l 1,22,-1
 80 200 l 1,23,-1
 0 200 l 1,20,-1
100 200 m 1,24,-1
 100 280 l 1,25,-1
 180 280 l 1,26,-1
 180 200 l 1,27,-1
 100 200 l 1,24,-1
0 100 m 1,28,-1
 0 180 l 1,29,-1
 80 180 l 1,30,-1
 80 100 l 1,31,-1
 0 100 l 1,28,-1
100 100 m 1,32,-1
 100 180 l 1,33,-1
 180 180 l 1,34,-1
 180 100 l 1,35,-1
 100 100 l 1,32,-1
200 100 m 1,36,-1
 200 180 l 1,37,-1
 280 180 l 1,38,-1
 280 100 l 1,39,-1
 200 100 l 1,36,-1
EndSplineSet
EndChar

StartChar: Igrave
Encoding: 204 204 204
Width: 300
VWidth: 0
LayerCount: 2
Fore
SplineSet
0 500 m 1,0,-1
 0 580 l 1,1,-1
 80 580 l 1,2,-1
 80 500 l 1,3,-1
 0 500 l 1,0,-1
100 500 m 1,4,-1
 100 580 l 1,5,-1
 180 580 l 1,6,-1
 180 500 l 1,7,-1
 100 500 l 1,4,-1
100 300 m 1,8,-1
 100 380 l 1,9,-1
 180 380 l 1,10,-1
 180 300 l 1,11,-1
 100 300 l 1,8,-1
100 200 m 1,12,-1
 100 280 l 1,13,-1
 180 280 l 1,14,-1
 180 200 l 1,15,-1
 100 200 l 1,12,-1
100 100 m 1,16,-1
 100 180 l 1,17,-1
 180 180 l 1,18,-1
 180 100 l 1,19,-1
 100 100 l 1,16,-1
EndSplineSet
EndChar

StartChar: Iacute
Encoding: 205 205 205
Width: 300
VWidth: 0
LayerCount: 2
Fore
SplineSet
0 500 m 1,0,-1
 0 580 l 1,1,-1
 80 580 l 1,2,-1
 80 500 l 1,3,-1
 0 500 l 1,0,-1
100 500 m 1,4,-1
 100 580 l 1,5,-1
 180 580 l 1,6,-1
 180 500 l 1,7,-1
 100 500 l 1,4,-1
0 300 m 1,8,-1
 0 380 l 1,9,-1
 80 380 l 1,10,-1
 80 300 l 1,11,-1
 0 300 l 1,8,-1
0 200 m 1,12,-1
 0 280 l 1,13,-1
 80 280 l 1,14,-1
 80 200 l 1,15,-1
 0 200 l 1,12,-1
0 100 m 1,16,-1
 0 180 l 1,17,-1
 80 180 l 1,18,-1
 80 100 l 1,19,-1
 0 100 l 1,16,-1
EndSplineSet
EndChar

StartChar: Itilde
Encoding: 296 296 206
Width: 400
VWidth: 0
LayerCount: 2
Fore
SplineSet
0 500 m 1,0,-1
 0 580 l 1,1,-1
 80 580 l 1,2,-1
 80 500 l 1,3,-1
 0 500 l 1,0,-1
100 500 m 1,4,-1
 100 580 l 1,5,-1
 180 580 l 1,6,-1
 180 500 l 1,7,-1
 100 500 l 1,4,-1
200 500 m 1,8,-1
 200 580 l 1,9,-1
 280 580 l 1,10,-1
 280 500 l 1,11,-1
 200 500 l 1,8,-1
100 300 m 1,12,-1
 100 380 l 1,13,-1
 180 380 l 1,14,-1
 180 300 l 1,15,-1
 100 300 l 1,12,-1
100 200 m 1,16,-1
 100 280 l 1,17,-1
 180 280 l 1,18,-1
 180 200 l 1,19,-1
 100 200 l 1,16,-1
100 100 m 1,20,-1
 100 180 l 1,21,-1
 180 180 l 1,22,-1
 180 100 l 1,23,-1
 100 100 l 1,20,-1
EndSplineSet
EndChar

StartChar: Itrema
Encoding: 207 207 207
Width: 400
VWidth: 0
LayerCount: 2
Fore
SplineSet
0 500 m 1,0,-1
 0 580 l 1,1,-1
 80 580 l 1,2,-1
 80 500 l 1,3,-1
 0 500 l 1,0,-1
200 500 m 1,4,-1
 200 580 l 1,5,-1
 280 580 l 1,6,-1
 280 500 l 1,7,-1
 200 500 l 1,4,-1
100 300 m 1,8,-1
 100 380 l 1,9,-1
 180 380 l 1,10,-1
 180 300 l 1,11,-1
 100 300 l 1,8,-1
100 200 m 1,12,-1
 100 280 l 1,13,-1
 180 280 l 1,14,-1
 180 200 l 1,15,-1
 100 200 l 1,12,-1
100 100 m 1,16,-1
 100 180 l 1,17,-1
 180 180 l 1,18,-1
 180 100 l 1,19,-1
 100 100 l 1,16,-1
EndSplineSet
EndChar

StartChar: Ntilde
Encoding: 209 209 208
Width: 500
VWidth: 0
LayerCount: 2
Fore
SplineSet
0 500 m 1,0,-1
 0 580 l 1,1,-1
 80 580 l 1,2,-1
 80 500 l 1,3,-1
 0 500 l 1,0,-1
100 500 m 1,4,-1
 100 580 l 1,5,-1
 180 580 l 1,6,-1
 180 500 l 1,7,-1
 100 500 l 1,4,-1
200 500 m 1,8,-1
 200 580 l 1,9,-1
 280 580 l 1,10,-1
 280 500 l 1,11,-1
 200 500 l 1,8,-1
300 500 m 1,12,-1
 300 580 l 1,13,-1
 380 580 l 1,14,-1
 380 500 l 1,15,-1
 300 500 l 1,12,-1
0 300 m 1,16,-1
 0 380 l 1,17,-1
 80 380 l 1,18,-1
 80 300 l 1,19,-1
 0 300 l 1,16,-1
100 300 m 1,20,-1
 100 380 l 1,21,-1
 180 380 l 1,22,-1
 180 300 l 1,23,-1
 100 300 l 1,20,-1
300 300 m 1,24,-1
 300 380 l 1,25,-1
 380 380 l 1,26,-1
 380 300 l 1,27,-1
 300 300 l 1,24,-1
0 200 m 1,28,-1
 0 280 l 1,29,-1
 80 280 l 1,30,-1
 80 200 l 1,31,-1
 0 200 l 1,28,-1
200 200 m 1,32,-1
 200 280 l 1,33,-1
 280 280 l 1,34,-1
 280 200 l 1,35,-1
 200 200 l 1,32,-1
300 200 m 1,36,-1
 300 280 l 1,37,-1
 380 280 l 1,38,-1
 380 200 l 1,39,-1
 300 200 l 1,36,-1
0 100 m 1,40,-1
 0 180 l 1,41,-1
 80 180 l 1,42,-1
 80 100 l 1,43,-1
 0 100 l 1,40,-1
300 100 m 1,44,-1
 300 180 l 1,45,-1
 380 180 l 1,46,-1
 380 100 l 1,47,-1
 300 100 l 1,44,-1
EndSplineSet
EndChar

StartChar: Ograve
Encoding: 210 210 209
Width: 400
VWidth: 0
LayerCount: 2
Fore
SplineSet
0 500 m 1,0,-1
 0 580 l 1,1,-1
 80 580 l 1,2,-1
 80 500 l 1,3,-1
 0 500 l 1,0,-1
100 500 m 1,4,-1
 100 580 l 1,5,-1
 180 580 l 1,6,-1
 180 500 l 1,7,-1
 100 500 l 1,4,-1
0 300 m 1,8,-1
 0 380 l 1,9,-1
 80 380 l 1,10,-1
 80 300 l 1,11,-1
 0 300 l 1,8,-1
100 300 m 1,12,-1
 100 380 l 1,13,-1
 180 380 l 1,14,-1
 180 300 l 1,15,-1
 100 300 l 1,12,-1
200 300 m 1,16,-1
 200 380 l 1,17,-1
 280 380 l 1,18,-1
 280 300 l 1,19,-1
 200 300 l 1,16,-1
0 200 m 1,20,-1
 0 280 l 1,21,-1
 80 280 l 1,22,-1
 80 200 l 1,23,-1
 0 200 l 1,20,-1
200 200 m 1,24,-1
 200 280 l 1,25,-1
 280 280 l 1,26,-1
 280 200 l 1,27,-1
 200 200 l 1,24,-1
0 100 m 1,28,-1
 0 180 l 1,29,-1
 80 180 l 1,30,-1
 80 100 l 1,31,-1
 0 100 l 1,28,-1
100 100 m 1,32,-1
 100 180 l 1,33,-1
 180 180 l 1,34,-1
 180 100 l 1,35,-1
 100 100 l 1,32,-1
200 100 m 1,36,-1
 200 180 l 1,37,-1
 280 180 l 1,38,-1
 280 100 l 1,39,-1
 200 100 l 1,36,-1
EndSplineSet
EndChar

StartChar: Oacute
Encoding: 211 211 210
Width: 400
VWidth: 0
LayerCount: 2
Fore
SplineSet
100 500 m 1,0,-1
 100 580 l 1,1,-1
 180 580 l 1,2,-1
 180 500 l 1,3,-1
 100 500 l 1,0,-1
200 500 m 1,4,-1
 200 580 l 1,5,-1
 280 580 l 1,6,-1
 280 500 l 1,7,-1
 200 500 l 1,4,-1
0 300 m 1,8,-1
 0 380 l 1,9,-1
 80 380 l 1,10,-1
 80 300 l 1,11,-1
 0 300 l 1,8,-1
100 300 m 1,12,-1
 100 380 l 1,13,-1
 180 380 l 1,14,-1
 180 300 l 1,15,-1
 100 300 l 1,12,-1
200 300 m 1,16,-1
 200 380 l 1,17,-1
 280 380 l 1,18,-1
 280 300 l 1,19,-1
 200 300 l 1,16,-1
0 200 m 1,20,-1
 0 280 l 1,21,-1
 80 280 l 1,22,-1
 80 200 l 1,23,-1
 0 200 l 1,20,-1
200 200 m 1,24,-1
 200 280 l 1,25,-1
 280 280 l 1,26,-1
 280 200 l 1,27,-1
 200 200 l 1,24,-1
0 100 m 1,28,-1
 0 180 l 1,29,-1
 80 180 l 1,30,-1
 80 100 l 1,31,-1
 0 100 l 1,28,-1
100 100 m 1,32,-1
 100 180 l 1,33,-1
 180 180 l 1,34,-1
 180 100 l 1,35,-1
 100 100 l 1,32,-1
200 100 m 1,36,-1
 200 180 l 1,37,-1
 280 180 l 1,38,-1
 280 100 l 1,39,-1
 200 100 l 1,36,-1
EndSplineSet
EndChar

StartChar: Otilde
Encoding: 213 213 211
Width: 400
VWidth: 0
LayerCount: 2
Fore
SplineSet
0 500 m 1,0,-1
 0 580 l 1,1,-1
 80 580 l 1,2,-1
 80 500 l 1,3,-1
 0 500 l 1,0,-1
100 500 m 1,4,-1
 100 580 l 1,5,-1
 180 580 l 1,6,-1
 180 500 l 1,7,-1
 100 500 l 1,4,-1
200 500 m 1,8,-1
 200 580 l 1,9,-1
 280 580 l 1,10,-1
 280 500 l 1,11,-1
 200 500 l 1,8,-1
0 300 m 1,12,-1
 0 380 l 1,13,-1
 80 380 l 1,14,-1
 80 300 l 1,15,-1
 0 300 l 1,12,-1
100 300 m 1,16,-1
 100 380 l 1,17,-1
 180 380 l 1,18,-1
 180 300 l 1,19,-1
 100 300 l 1,16,-1
200 300 m 1,20,-1
 200 380 l 1,21,-1
 280 380 l 1,22,-1
 280 300 l 1,23,-1
 200 300 l 1,20,-1
0 200 m 1,24,-1
 0 280 l 1,25,-1
 80 280 l 1,26,-1
 80 200 l 1,27,-1
 0 200 l 1,24,-1
200 200 m 1,28,-1
 200 280 l 1,29,-1
 280 280 l 1,30,-1
 280 200 l 1,31,-1
 200 200 l 1,28,-1
0 100 m 1,32,-1
 0 180 l 1,33,-1
 80 180 l 1,34,-1
 80 100 l 1,35,-1
 0 100 l 1,32,-1
100 100 m 1,36,-1
 100 180 l 1,37,-1
 180 180 l 1,38,-1
 180 100 l 1,39,-1
 100 100 l 1,36,-1
200 100 m 1,40,-1
 200 180 l 1,41,-1
 280 180 l 1,42,-1
 280 100 l 1,43,-1
 200 100 l 1,40,-1
EndSplineSet
EndChar

StartChar: Oumlaut
Encoding: 214 214 212
Width: 400
VWidth: 0
LayerCount: 2
Fore
SplineSet
0 500 m 1,0,-1
 0 580 l 1,1,-1
 80 580 l 1,2,-1
 80 500 l 1,3,-1
 0 500 l 1,0,-1
200 500 m 1,4,-1
 200 580 l 1,5,-1
 280 580 l 1,6,-1
 280 500 l 1,7,-1
 200 500 l 1,4,-1
0 300 m 1,8,-1
 0 380 l 1,9,-1
 80 380 l 1,10,-1
 80 300 l 1,11,-1
 0 300 l 1,8,-1
100 300 m 1,12,-1
 100 380 l 1,13,-1
 180 380 l 1,14,-1
 180 300 l 1,15,-1
 100 300 l 1,12,-1
200 300 m 1,16,-1
 200 380 l 1,17,-1
 280 380 l 1,18,-1
 280 300 l 1,19,-1
 200 300 l 1,16,-1
0 200 m 1,20,-1
 0 280 l 1,21,-1
 80 280 l 1,22,-1
 80 200 l 1,23,-1
 0 200 l 1,20,-1
200 200 m 1,24,-1
 200 280 l 1,25,-1
 280 280 l 1,26,-1
 280 200 l 1,27,-1
 200 200 l 1,24,-1
0 100 m 1,28,-1
 0 180 l 1,29,-1
 80 180 l 1,30,-1
 80 100 l 1,31,-1
 0 100 l 1,28,-1
100 100 m 1,32,-1
 100 180 l 1,33,-1
 180 180 l 1,34,-1
 180 100 l 1,35,-1
 100 100 l 1,32,-1
200 100 m 1,36,-1
 200 180 l 1,37,-1
 280 180 l 1,38,-1
 280 100 l 1,39,-1
 200 100 l 1,36,-1
EndSplineSet
EndChar

StartChar: Rhook
Encoding: 344 344 213
Width: 400
VWidth: 0
LayerCount: 2
Fore
SplineSet
0 500 m 1,0,-1
 0 580 l 1,1,-1
 80 580 l 1,2,-1
 80 500 l 1,3,-1
 0 500 l 1,0,-1
100 500 m 1,4,-1
 100 580 l 1,5,-1
 180 580 l 1,6,-1
 180 500 l 1,7,-1
 100 500 l 1,4,-1
200 500 m 1,8,-1
 200 580 l 1,9,-1
 280 580 l 1,10,-1
 280 500 l 1,11,-1
 200 500 l 1,8,-1
0 300 m 1,12,-1
 0 380 l 1,13,-1
 80 380 l 1,14,-1
 80 300 l 1,15,-1
 0 300 l 1,12,-1
100 300 m 1,16,-1
 100 380 l 1,17,-1
 180 380 l 1,18,-1
 180 300 l 1,19,-1
 100 300 l 1,16,-1
0 200 m 1,20,-1
 0 280 l 1,21,-1
 80 280 l 1,22,-1
 80 200 l 1,23,-1
 0 200 l 1,20,-1
100 200 m 1,24,-1
 100 280 l 1,25,-1
 180 280 l 1,26,-1
 180 200 l 1,27,-1
 100 200 l 1,24,-1
0 100 m 1,28,-1
 0 180 l 1,29,-1
 80 180 l 1,30,-1
 80 100 l 1,31,-1
 0 100 l 1,28,-1
200 100 m 1,32,-1
 200 180 l 1,33,-1
 280 180 l 1,34,-1
 280 100 l 1,35,-1
 200 100 l 1,32,-1
EndSplineSet
EndChar

StartChar: Shook
Encoding: 352 352 214
Width: 400
VWidth: 0
LayerCount: 2
Fore
SplineSet
0 500 m 1,0,-1
 0 580 l 1,1,-1
 80 580 l 1,2,-1
 80 500 l 1,3,-1
 0 500 l 1,0,-1
100 500 m 1,4,-1
 100 580 l 1,5,-1
 180 580 l 1,6,-1
 180 500 l 1,7,-1
 100 500 l 1,4,-1
200 500 m 1,8,-1
 200 580 l 1,9,-1
 280 580 l 1,10,-1
 280 500 l 1,11,-1
 200 500 l 1,8,-1
100 300 m 1,12,-1
 100 380 l 1,13,-1
 180 380 l 1,14,-1
 180 300 l 1,15,-1
 100 300 l 1,12,-1
200 300 m 1,16,-1
 200 380 l 1,17,-1
 280 380 l 1,18,-1
 280 300 l 1,19,-1
 200 300 l 1,16,-1
100 200 m 1,20,-1
 100 280 l 1,21,-1
 180 280 l 1,22,-1
 180 200 l 1,23,-1
 100 200 l 1,20,-1
0 100 m 1,24,-1
 0 180 l 1,25,-1
 80 180 l 1,26,-1
 80 100 l 1,27,-1
 0 100 l 1,24,-1
100 100 m 1,28,-1
 100 180 l 1,29,-1
 180 180 l 1,30,-1
 180 100 l 1,31,-1
 100 100 l 1,28,-1
EndSplineSet
EndChar

StartChar: subA
Encoding: 8336 8336 215
Width: 400
VWidth: 0
LayerCount: 2
Fore
SplineSet
0 200 m 1,0,-1
 0 280 l 1,1,-1
 80 280 l 1,2,-1
 80 200 l 1,3,-1
 0 200 l 1,0,-1
100 200 m 1,4,-1
 100 280 l 1,5,-1
 180 280 l 1,6,-1
 180 200 l 1,7,-1
 100 200 l 1,4,-1
200 200 m 1,8,-1
 200 280 l 1,9,-1
 280 280 l 1,10,-1
 280 200 l 1,11,-1
 200 200 l 1,8,-1
0 100 m 1,12,-1
 0 180 l 1,13,-1
 80 180 l 1,14,-1
 80 100 l 1,15,-1
 0 100 l 1,12,-1
100 100 m 1,16,-1
 100 180 l 1,17,-1
 180 180 l 1,18,-1
 180 100 l 1,19,-1
 100 100 l 1,16,-1
200 100 m 1,20,-1
 200 180 l 1,21,-1
 280 180 l 1,22,-1
 280 100 l 1,23,-1
 200 100 l 1,20,-1
0 0 m 1,24,-1
 0 80 l 1,25,-1
 80 80 l 1,26,-1
 80 0 l 1,27,-1
 0 0 l 1,24,-1
200 0 m 1,28,-1
 200 80 l 1,29,-1
 280 80 l 1,30,-1
 280 0 l 1,31,-1
 200 0 l 1,28,-1
EndSplineSet
EndChar

StartChar: Ugrave
Encoding: 217 217 216
Width: 400
VWidth: 0
LayerCount: 2
Fore
SplineSet
0 500 m 1,0,-1
 0 580 l 1,1,-1
 80 580 l 1,2,-1
 80 500 l 1,3,-1
 0 500 l 1,0,-1
100 500 m 1,4,-1
 100 580 l 1,5,-1
 180 580 l 1,6,-1
 180 500 l 1,7,-1
 100 500 l 1,4,-1
0 300 m 1,8,-1
 0 380 l 1,9,-1
 80 380 l 1,10,-1
 80 300 l 1,11,-1
 0 300 l 1,8,-1
200 300 m 1,12,-1
 200 380 l 1,13,-1
 280 380 l 1,14,-1
 280 300 l 1,15,-1
 200 300 l 1,12,-1
0 200 m 1,16,-1
 0 280 l 1,17,-1
 80 280 l 1,18,-1
 80 200 l 1,19,-1
 0 200 l 1,16,-1
200 200 m 1,20,-1
 200 280 l 1,21,-1
 280 280 l 1,22,-1
 280 200 l 1,23,-1
 200 200 l 1,20,-1
0 100 m 1,24,-1
 0 180 l 1,25,-1
 80 180 l 1,26,-1
 80 100 l 1,27,-1
 0 100 l 1,24,-1
100 100 m 1,28,-1
 100 180 l 1,29,-1
 180 180 l 1,30,-1
 180 100 l 1,31,-1
 100 100 l 1,28,-1
200 100 m 1,32,-1
 200 180 l 1,33,-1
 280 180 l 1,34,-1
 280 100 l 1,35,-1
 200 100 l 1,32,-1
EndSplineSet
EndChar

StartChar: Uacute
Encoding: 218 218 217
Width: 400
VWidth: 0
LayerCount: 2
Fore
SplineSet
100 500 m 1,0,-1
 100 580 l 1,1,-1
 180 580 l 1,2,-1
 180 500 l 1,3,-1
 100 500 l 1,0,-1
200 500 m 1,4,-1
 200 580 l 1,5,-1
 280 580 l 1,6,-1
 280 500 l 1,7,-1
 200 500 l 1,4,-1
0 300 m 1,8,-1
 0 380 l 1,9,-1
 80 380 l 1,10,-1
 80 300 l 1,11,-1
 0 300 l 1,8,-1
200 300 m 1,12,-1
 200 380 l 1,13,-1
 280 380 l 1,14,-1
 280 300 l 1,15,-1
 200 300 l 1,12,-1
0 200 m 1,16,-1
 0 280 l 1,17,-1
 80 280 l 1,18,-1
 80 200 l 1,19,-1
 0 200 l 1,16,-1
200 200 m 1,20,-1
 200 280 l 1,21,-1
 280 280 l 1,22,-1
 280 200 l 1,23,-1
 200 200 l 1,20,-1
0 100 m 1,24,-1
 0 180 l 1,25,-1
 80 180 l 1,26,-1
 80 100 l 1,27,-1
 0 100 l 1,24,-1
100 100 m 1,28,-1
 100 180 l 1,29,-1
 180 180 l 1,30,-1
 180 100 l 1,31,-1
 100 100 l 1,28,-1
200 100 m 1,32,-1
 200 180 l 1,33,-1
 280 180 l 1,34,-1
 280 100 l 1,35,-1
 200 100 l 1,32,-1
EndSplineSet
EndChar

StartChar: Utilde
Encoding: 360 360 218
Width: 400
VWidth: 0
LayerCount: 2
Fore
SplineSet
0 500 m 1,0,-1
 0 580 l 1,1,-1
 80 580 l 1,2,-1
 80 500 l 1,3,-1
 0 500 l 1,0,-1
100 500 m 1,4,-1
 100 580 l 1,5,-1
 180 580 l 1,6,-1
 180 500 l 1,7,-1
 100 500 l 1,4,-1
200 500 m 1,8,-1
 200 580 l 1,9,-1
 280 580 l 1,10,-1
 280 500 l 1,11,-1
 200 500 l 1,8,-1
0 300 m 1,12,-1
 0 380 l 1,13,-1
 80 380 l 1,14,-1
 80 300 l 1,15,-1
 0 300 l 1,12,-1
200 300 m 1,16,-1
 200 380 l 1,17,-1
 280 380 l 1,18,-1
 280 300 l 1,19,-1
 200 300 l 1,16,-1
0 200 m 1,20,-1
 0 280 l 1,21,-1
 80 280 l 1,22,-1
 80 200 l 1,23,-1
 0 200 l 1,20,-1
200 200 m 1,24,-1
 200 280 l 1,25,-1
 280 280 l 1,26,-1
 280 200 l 1,27,-1
 200 200 l 1,24,-1
0 100 m 1,28,-1
 0 180 l 1,29,-1
 80 180 l 1,30,-1
 80 100 l 1,31,-1
 0 100 l 1,28,-1
100 100 m 1,32,-1
 100 180 l 1,33,-1
 180 180 l 1,34,-1
 180 100 l 1,35,-1
 100 100 l 1,32,-1
200 100 m 1,36,-1
 200 180 l 1,37,-1
 280 180 l 1,38,-1
 280 100 l 1,39,-1
 200 100 l 1,36,-1
EndSplineSet
EndChar

StartChar: Uumlaut
Encoding: 220 220 219
Width: 400
VWidth: 0
LayerCount: 2
Fore
SplineSet
0 500 m 1,0,-1
 0 580 l 1,1,-1
 80 580 l 1,2,-1
 80 500 l 1,3,-1
 0 500 l 1,0,-1
200 500 m 1,4,-1
 200 580 l 1,5,-1
 280 580 l 1,6,-1
 280 500 l 1,7,-1
 200 500 l 1,4,-1
0 300 m 1,8,-1
 0 380 l 1,9,-1
 80 380 l 1,10,-1
 80 300 l 1,11,-1
 0 300 l 1,8,-1
200 300 m 1,12,-1
 200 380 l 1,13,-1
 280 380 l 1,14,-1
 280 300 l 1,15,-1
 200 300 l 1,12,-1
0 200 m 1,16,-1
 0 280 l 1,17,-1
 80 280 l 1,18,-1
 80 200 l 1,19,-1
 0 200 l 1,16,-1
200 200 m 1,20,-1
 200 280 l 1,21,-1
 280 280 l 1,22,-1
 280 200 l 1,23,-1
 200 200 l 1,20,-1
0 100 m 1,24,-1
 0 180 l 1,25,-1
 80 180 l 1,26,-1
 80 100 l 1,27,-1
 0 100 l 1,24,-1
100 100 m 1,28,-1
 100 180 l 1,29,-1
 180 180 l 1,30,-1
 180 100 l 1,31,-1
 100 100 l 1,28,-1
200 100 m 1,32,-1
 200 180 l 1,33,-1
 280 180 l 1,34,-1
 280 100 l 1,35,-1
 200 100 l 1,32,-1
EndSplineSet
EndChar

StartChar: Udot
Encoding: 219 219 220
Width: 400
VWidth: 0
LayerCount: 2
Fore
SplineSet
100 500 m 1,0,-1
 100 580 l 1,1,-1
 180 580 l 1,2,-1
 180 500 l 1,3,-1
 100 500 l 1,0,-1
0 300 m 1,4,-1
 0 380 l 1,5,-1
 80 380 l 1,6,-1
 80 300 l 1,7,-1
 0 300 l 1,4,-1
200 300 m 1,8,-1
 200 380 l 1,9,-1
 280 380 l 1,10,-1
 280 300 l 1,11,-1
 200 300 l 1,8,-1
0 200 m 1,12,-1
 0 280 l 1,13,-1
 80 280 l 1,14,-1
 80 200 l 1,15,-1
 0 200 l 1,12,-1
200 200 m 1,16,-1
 200 280 l 1,17,-1
 280 280 l 1,18,-1
 280 200 l 1,19,-1
 200 200 l 1,16,-1
0 100 m 1,20,-1
 0 180 l 1,21,-1
 80 180 l 1,22,-1
 80 100 l 1,23,-1
 0 100 l 1,20,-1
100 100 m 1,24,-1
 100 180 l 1,25,-1
 180 180 l 1,26,-1
 180 100 l 1,27,-1
 100 100 l 1,24,-1
200 100 m 1,28,-1
 200 180 l 1,29,-1
 280 180 l 1,30,-1
 280 100 l 1,31,-1
 200 100 l 1,28,-1
EndSplineSet
EndChar

StartChar: Yacute
Encoding: 221 221 221
Width: 400
VWidth: 0
LayerCount: 2
Fore
SplineSet
100 500 m 1,0,-1
 100 580 l 1,1,-1
 180 580 l 1,2,-1
 180 500 l 1,3,-1
 100 500 l 1,0,-1
200 500 m 1,4,-1
 200 580 l 1,5,-1
 280 580 l 1,6,-1
 280 500 l 1,7,-1
 200 500 l 1,4,-1
0 300 m 1,8,-1
 0 380 l 1,9,-1
 80 380 l 1,10,-1
 80 300 l 1,11,-1
 0 300 l 1,8,-1
200 300 m 1,12,-1
 200 380 l 1,13,-1
 280 380 l 1,14,-1
 280 300 l 1,15,-1
 200 300 l 1,12,-1
100 200 m 1,16,-1
 100 280 l 1,17,-1
 180 280 l 1,18,-1
 180 200 l 1,19,-1
 100 200 l 1,16,-1
100 100 m 1,20,-1
 100 180 l 1,21,-1
 180 180 l 1,22,-1
 180 100 l 1,23,-1
 100 100 l 1,20,-1
EndSplineSet
EndChar

StartChar: Ytrema
Encoding: 376 376 222
Width: 400
VWidth: 0
LayerCount: 2
Fore
SplineSet
0 500 m 1,0,-1
 0 580 l 1,1,-1
 80 580 l 1,2,-1
 80 500 l 1,3,-1
 0 500 l 1,0,-1
200 500 m 1,4,-1
 200 580 l 1,5,-1
 280 580 l 1,6,-1
 280 500 l 1,7,-1
 200 500 l 1,4,-1
0 300 m 1,8,-1
 0 380 l 1,9,-1
 80 380 l 1,10,-1
 80 300 l 1,11,-1
 0 300 l 1,8,-1
200 300 m 1,12,-1
 200 380 l 1,13,-1
 280 380 l 1,14,-1
 280 300 l 1,15,-1
 200 300 l 1,12,-1
100 200 m 1,16,-1
 100 280 l 1,17,-1
 180 280 l 1,18,-1
 180 200 l 1,19,-1
 100 200 l 1,16,-1
100 100 m 1,20,-1
 100 180 l 1,21,-1
 180 180 l 1,22,-1
 180 100 l 1,23,-1
 100 100 l 1,20,-1
EndSplineSet
EndChar

StartChar: Zhook
Encoding: 381 381 223
Width: 400
VWidth: 0
LayerCount: 2
Fore
SplineSet
0 500 m 1,0,-1
 0 580 l 1,1,-1
 80 580 l 1,2,-1
 80 500 l 1,3,-1
 0 500 l 1,0,-1
100 500 m 1,4,-1
 100 580 l 1,5,-1
 180 580 l 1,6,-1
 180 500 l 1,7,-1
 100 500 l 1,4,-1
200 500 m 1,8,-1
 200 580 l 1,9,-1
 280 580 l 1,10,-1
 280 500 l 1,11,-1
 200 500 l 1,8,-1
0 300 m 1,12,-1
 0 380 l 1,13,-1
 80 380 l 1,14,-1
 80 300 l 1,15,-1
 0 300 l 1,12,-1
100 300 m 1,16,-1
 100 380 l 1,17,-1
 180 380 l 1,18,-1
 180 300 l 1,19,-1
 100 300 l 1,16,-1
100 200 m 1,20,-1
 100 280 l 1,21,-1
 180 280 l 1,22,-1
 180 200 l 1,23,-1
 100 200 l 1,20,-1
100 100 m 1,24,-1
 100 180 l 1,25,-1
 180 180 l 1,26,-1
 180 100 l 1,27,-1
 100 100 l 1,24,-1
200 100 m 1,28,-1
 200 180 l 1,29,-1
 280 180 l 1,30,-1
 280 100 l 1,31,-1
 200 100 l 1,28,-1
EndSplineSet
EndChar

StartChar: agrave
Encoding: 224 224 224
Width: 400
VWidth: 0
LayerCount: 2
Fore
SplineSet
0 500 m 1,0,-1
 0 580 l 1,1,-1
 80 580 l 1,2,-1
 80 500 l 1,3,-1
 0 500 l 1,0,-1
100 500 m 1,4,-1
 100 580 l 1,5,-1
 180 580 l 1,6,-1
 180 500 l 1,7,-1
 100 500 l 1,4,-1
100 300 m 1,8,-1
 100 380 l 1,9,-1
 180 380 l 1,10,-1
 180 300 l 1,11,-1
 100 300 l 1,8,-1
200 300 m 1,12,-1
 200 380 l 1,13,-1
 280 380 l 1,14,-1
 280 300 l 1,15,-1
 200 300 l 1,12,-1
0 200 m 1,16,-1
 0 280 l 1,17,-1
 80 280 l 1,18,-1
 80 200 l 1,19,-1
 0 200 l 1,16,-1
200 200 m 1,20,-1
 200 280 l 1,21,-1
 280 280 l 1,22,-1
 280 200 l 1,23,-1
 200 200 l 1,20,-1
100 100 m 1,24,-1
 100 180 l 1,25,-1
 180 180 l 1,26,-1
 180 100 l 1,27,-1
 100 100 l 1,24,-1
200 100 m 1,28,-1
 200 180 l 1,29,-1
 280 180 l 1,30,-1
 280 100 l 1,31,-1
 200 100 l 1,28,-1
EndSplineSet
EndChar

StartChar: aacute
Encoding: 225 225 225
Width: 400
VWidth: 0
LayerCount: 2
Fore
SplineSet
100 500 m 1,0,-1
 100 580 l 1,1,-1
 180 580 l 1,2,-1
 180 500 l 1,3,-1
 100 500 l 1,0,-1
200 500 m 1,4,-1
 200 580 l 1,5,-1
 280 580 l 1,6,-1
 280 500 l 1,7,-1
 200 500 l 1,4,-1
100 300 m 1,8,-1
 100 380 l 1,9,-1
 180 380 l 1,10,-1
 180 300 l 1,11,-1
 100 300 l 1,8,-1
200 300 m 1,12,-1
 200 380 l 1,13,-1
 280 380 l 1,14,-1
 280 300 l 1,15,-1
 200 300 l 1,12,-1
0 200 m 1,16,-1
 0 280 l 1,17,-1
 80 280 l 1,18,-1
 80 200 l 1,19,-1
 0 200 l 1,16,-1
200 200 m 1,20,-1
 200 280 l 1,21,-1
 280 280 l 1,22,-1
 280 200 l 1,23,-1
 200 200 l 1,20,-1
100 100 m 1,24,-1
 100 180 l 1,25,-1
 180 180 l 1,26,-1
 180 100 l 1,27,-1
 100 100 l 1,24,-1
200 100 m 1,28,-1
 200 180 l 1,29,-1
 280 180 l 1,30,-1
 280 100 l 1,31,-1
 200 100 l 1,28,-1
EndSplineSet
EndChar

StartChar: atilde
Encoding: 227 227 226
Width: 400
VWidth: 0
LayerCount: 2
Fore
SplineSet
0 500 m 1,0,-1
 0 580 l 1,1,-1
 80 580 l 1,2,-1
 80 500 l 1,3,-1
 0 500 l 1,0,-1
100 500 m 1,4,-1
 100 580 l 1,5,-1
 180 580 l 1,6,-1
 180 500 l 1,7,-1
 100 500 l 1,4,-1
200 500 m 1,8,-1
 200 580 l 1,9,-1
 280 580 l 1,10,-1
 280 500 l 1,11,-1
 200 500 l 1,8,-1
100 300 m 1,12,-1
 100 380 l 1,13,-1
 180 380 l 1,14,-1
 180 300 l 1,15,-1
 100 300 l 1,12,-1
200 300 m 1,16,-1
 200 380 l 1,17,-1
 280 380 l 1,18,-1
 280 300 l 1,19,-1
 200 300 l 1,16,-1
0 200 m 1,20,-1
 0 280 l 1,21,-1
 80 280 l 1,22,-1
 80 200 l 1,23,-1
 0 200 l 1,20,-1
200 200 m 1,24,-1
 200 280 l 1,25,-1
 280 280 l 1,26,-1
 280 200 l 1,27,-1
 200 200 l 1,24,-1
100 100 m 1,28,-1
 100 180 l 1,29,-1
 180 180 l 1,30,-1
 180 100 l 1,31,-1
 100 100 l 1,28,-1
200 100 m 1,32,-1
 200 180 l 1,33,-1
 280 180 l 1,34,-1
 280 100 l 1,35,-1
 200 100 l 1,32,-1
EndSplineSet
EndChar

StartChar: aumlaut
Encoding: 228 228 227
Width: 400
VWidth: 0
LayerCount: 2
Fore
SplineSet
0 500 m 1,0,-1
 0 580 l 1,1,-1
 80 580 l 1,2,-1
 80 500 l 1,3,-1
 0 500 l 1,0,-1
200 500 m 1,4,-1
 200 580 l 1,5,-1
 280 580 l 1,6,-1
 280 500 l 1,7,-1
 200 500 l 1,4,-1
100 300 m 1,8,-1
 100 380 l 1,9,-1
 180 380 l 1,10,-1
 180 300 l 1,11,-1
 100 300 l 1,8,-1
200 300 m 1,12,-1
 200 380 l 1,13,-1
 280 380 l 1,14,-1
 280 300 l 1,15,-1
 200 300 l 1,12,-1
0 200 m 1,16,-1
 0 280 l 1,17,-1
 80 280 l 1,18,-1
 80 200 l 1,19,-1
 0 200 l 1,16,-1
200 200 m 1,20,-1
 200 280 l 1,21,-1
 280 280 l 1,22,-1
 280 200 l 1,23,-1
 200 200 l 1,20,-1
100 100 m 1,24,-1
 100 180 l 1,25,-1
 180 180 l 1,26,-1
 180 100 l 1,27,-1
 100 100 l 1,24,-1
200 100 m 1,28,-1
 200 180 l 1,29,-1
 280 180 l 1,30,-1
 280 100 l 1,31,-1
 200 100 l 1,28,-1
EndSplineSet
EndChar

StartChar: adot
Encoding: 226 226 228
Width: 400
VWidth: 0
LayerCount: 2
Fore
SplineSet
100 500 m 1,0,-1
 100 580 l 1,1,-1
 180 580 l 1,2,-1
 180 500 l 1,3,-1
 100 500 l 1,0,-1
100 300 m 1,4,-1
 100 380 l 1,5,-1
 180 380 l 1,6,-1
 180 300 l 1,7,-1
 100 300 l 1,4,-1
200 300 m 1,8,-1
 200 380 l 1,9,-1
 280 380 l 1,10,-1
 280 300 l 1,11,-1
 200 300 l 1,8,-1
0 200 m 1,12,-1
 0 280 l 1,13,-1
 80 280 l 1,14,-1
 80 200 l 1,15,-1
 0 200 l 1,12,-1
200 200 m 1,16,-1
 200 280 l 1,17,-1
 280 280 l 1,18,-1
 280 200 l 1,19,-1
 200 200 l 1,16,-1
100 100 m 1,20,-1
 100 180 l 1,21,-1
 180 180 l 1,22,-1
 180 100 l 1,23,-1
 100 100 l 1,20,-1
200 100 m 1,24,-1
 200 180 l 1,25,-1
 280 180 l 1,26,-1
 280 100 l 1,27,-1
 200 100 l 1,24,-1
EndSplineSet
EndChar

StartChar: cacute
Encoding: 263 263 229
Width: 400
VWidth: 0
LayerCount: 2
Fore
SplineSet
100 500 m 1,0,-1
 100 580 l 1,1,-1
 180 580 l 1,2,-1
 180 500 l 1,3,-1
 100 500 l 1,0,-1
200 500 m 1,4,-1
 200 580 l 1,5,-1
 280 580 l 1,6,-1
 280 500 l 1,7,-1
 200 500 l 1,4,-1
0 300 m 1,8,-1
 0 380 l 1,9,-1
 80 380 l 1,10,-1
 80 300 l 1,11,-1
 0 300 l 1,8,-1
100 300 m 1,12,-1
 100 380 l 1,13,-1
 180 380 l 1,14,-1
 180 300 l 1,15,-1
 100 300 l 1,12,-1
200 300 m 1,16,-1
 200 380 l 1,17,-1
 280 380 l 1,18,-1
 280 300 l 1,19,-1
 200 300 l 1,16,-1
0 200 m 1,20,-1
 0 280 l 1,21,-1
 80 280 l 1,22,-1
 80 200 l 1,23,-1
 0 200 l 1,20,-1
100 100 m 1,24,-1
 100 180 l 1,25,-1
 180 180 l 1,26,-1
 180 100 l 1,27,-1
 100 100 l 1,24,-1
200 100 m 1,28,-1
 200 180 l 1,29,-1
 280 180 l 1,30,-1
 280 100 l 1,31,-1
 200 100 l 1,28,-1
EndSplineSet
EndChar

StartChar: chook
Encoding: 269 269 230
Width: 400
VWidth: 0
LayerCount: 2
Fore
SplineSet
0 500 m 1,0,-1
 0 580 l 1,1,-1
 80 580 l 1,2,-1
 80 500 l 1,3,-1
 0 500 l 1,0,-1
100 500 m 1,4,-1
 100 580 l 1,5,-1
 180 580 l 1,6,-1
 180 500 l 1,7,-1
 100 500 l 1,4,-1
200 500 m 1,8,-1
 200 580 l 1,9,-1
 280 580 l 1,10,-1
 280 500 l 1,11,-1
 200 500 l 1,8,-1
0 300 m 1,12,-1
 0 380 l 1,13,-1
 80 380 l 1,14,-1
 80 300 l 1,15,-1
 0 300 l 1,12,-1
100 300 m 1,16,-1
 100 380 l 1,17,-1
 180 380 l 1,18,-1
 180 300 l 1,19,-1
 100 300 l 1,16,-1
200 300 m 1,20,-1
 200 380 l 1,21,-1
 280 380 l 1,22,-1
 280 300 l 1,23,-1
 200 300 l 1,20,-1
0 200 m 1,24,-1
 0 280 l 1,25,-1
 80 280 l 1,26,-1
 80 200 l 1,27,-1
 0 200 l 1,24,-1
100 100 m 1,28,-1
 100 180 l 1,29,-1
 180 180 l 1,30,-1
 180 100 l 1,31,-1
 100 100 l 1,28,-1
200 100 m 1,32,-1
 200 180 l 1,33,-1
 280 180 l 1,34,-1
 280 100 l 1,35,-1
 200 100 l 1,32,-1
EndSplineSet
EndChar

StartChar: ccedilla
Encoding: 231 231 231
Width: 400
VWidth: 0
LayerCount: 2
Fore
SplineSet
100 400 m 1,0,-1
 100 480 l 1,1,-1
 180 480 l 1,2,-1
 180 400 l 1,3,-1
 100 400 l 1,0,-1
200 400 m 1,4,-1
 200 480 l 1,5,-1
 280 480 l 1,6,-1
 280 400 l 1,7,-1
 200 400 l 1,4,-1
0 300 m 1,8,-1
 0 380 l 1,9,-1
 80 380 l 1,10,-1
 80 300 l 1,11,-1
 0 300 l 1,8,-1
0 200 m 1,12,-1
 0 280 l 1,13,-1
 80 280 l 1,14,-1
 80 200 l 1,15,-1
 0 200 l 1,12,-1
100 100 m 1,16,-1
 100 180 l 1,17,-1
 180 180 l 1,18,-1
 180 100 l 1,19,-1
 100 100 l 1,16,-1
200 100 m 1,20,-1
 200 180 l 1,21,-1
 280 180 l 1,22,-1
 280 100 l 1,23,-1
 200 100 l 1,20,-1
0 0 m 1,24,-1
 0 80 l 1,25,-1
 80 80 l 1,26,-1
 80 0 l 1,27,-1
 0 0 l 1,24,-1
100 0 m 1,28,-1
 100 80 l 1,29,-1
 180 80 l 1,30,-1
 180 0 l 1,31,-1
 100 0 l 1,28,-1
EndSplineSet
EndChar

StartChar: egrave
Encoding: 232 232 232
Width: 400
VWidth: 0
LayerCount: 2
Fore
SplineSet
0 500 m 1,0,-1
 0 580 l 1,1,-1
 80 580 l 1,2,-1
 80 500 l 1,3,-1
 0 500 l 1,0,-1
100 500 m 1,4,-1
 100 580 l 1,5,-1
 180 580 l 1,6,-1
 180 500 l 1,7,-1
 100 500 l 1,4,-1
0 300 m 1,8,-1
 0 380 l 1,9,-1
 80 380 l 1,10,-1
 80 300 l 1,11,-1
 0 300 l 1,8,-1
100 300 m 1,12,-1
 100 380 l 1,13,-1
 180 380 l 1,14,-1
 180 300 l 1,15,-1
 100 300 l 1,12,-1
200 300 m 1,16,-1
 200 380 l 1,17,-1
 280 380 l 1,18,-1
 280 300 l 1,19,-1
 200 300 l 1,16,-1
0 200 m 1,20,-1
 0 280 l 1,21,-1
 80 280 l 1,22,-1
 80 200 l 1,23,-1
 0 200 l 1,20,-1
100 200 m 1,24,-1
 100 280 l 1,25,-1
 180 280 l 1,26,-1
 180 200 l 1,27,-1
 100 200 l 1,24,-1
100 100 m 1,28,-1
 100 180 l 1,29,-1
 180 180 l 1,30,-1
 180 100 l 1,31,-1
 100 100 l 1,28,-1
200 100 m 1,32,-1
 200 180 l 1,33,-1
 280 180 l 1,34,-1
 280 100 l 1,35,-1
 200 100 l 1,32,-1
EndSplineSet
EndChar

StartChar: eacute
Encoding: 233 233 233
Width: 400
VWidth: 0
LayerCount: 2
Fore
SplineSet
100 500 m 1,0,-1
 100 580 l 1,1,-1
 180 580 l 1,2,-1
 180 500 l 1,3,-1
 100 500 l 1,0,-1
200 500 m 1,4,-1
 200 580 l 1,5,-1
 280 580 l 1,6,-1
 280 500 l 1,7,-1
 200 500 l 1,4,-1
0 300 m 1,8,-1
 0 380 l 1,9,-1
 80 380 l 1,10,-1
 80 300 l 1,11,-1
 0 300 l 1,8,-1
100 300 m 1,12,-1
 100 380 l 1,13,-1
 180 380 l 1,14,-1
 180 300 l 1,15,-1
 100 300 l 1,12,-1
200 300 m 1,16,-1
 200 380 l 1,17,-1
 280 380 l 1,18,-1
 280 300 l 1,19,-1
 200 300 l 1,16,-1
0 200 m 1,20,-1
 0 280 l 1,21,-1
 80 280 l 1,22,-1
 80 200 l 1,23,-1
 0 200 l 1,20,-1
100 200 m 1,24,-1
 100 280 l 1,25,-1
 180 280 l 1,26,-1
 180 200 l 1,27,-1
 100 200 l 1,24,-1
100 100 m 1,28,-1
 100 180 l 1,29,-1
 180 180 l 1,30,-1
 180 100 l 1,31,-1
 100 100 l 1,28,-1
200 100 m 1,32,-1
 200 180 l 1,33,-1
 280 180 l 1,34,-1
 280 100 l 1,35,-1
 200 100 l 1,32,-1
EndSplineSet
EndChar

StartChar: etilde
Encoding: 275 275 234
Width: 400
VWidth: 0
LayerCount: 2
Fore
SplineSet
0 500 m 1,0,-1
 0 580 l 1,1,-1
 80 580 l 1,2,-1
 80 500 l 1,3,-1
 0 500 l 1,0,-1
100 500 m 1,4,-1
 100 580 l 1,5,-1
 180 580 l 1,6,-1
 180 500 l 1,7,-1
 100 500 l 1,4,-1
200 500 m 1,8,-1
 200 580 l 1,9,-1
 280 580 l 1,10,-1
 280 500 l 1,11,-1
 200 500 l 1,8,-1
0 300 m 1,12,-1
 0 380 l 1,13,-1
 80 380 l 1,14,-1
 80 300 l 1,15,-1
 0 300 l 1,12,-1
100 300 m 1,16,-1
 100 380 l 1,17,-1
 180 380 l 1,18,-1
 180 300 l 1,19,-1
 100 300 l 1,16,-1
200 300 m 1,20,-1
 200 380 l 1,21,-1
 280 380 l 1,22,-1
 280 300 l 1,23,-1
 200 300 l 1,20,-1
0 200 m 1,24,-1
 0 280 l 1,25,-1
 80 280 l 1,26,-1
 80 200 l 1,27,-1
 0 200 l 1,24,-1
100 200 m 1,28,-1
 100 280 l 1,29,-1
 180 280 l 1,30,-1
 180 200 l 1,31,-1
 100 200 l 1,28,-1
100 100 m 1,32,-1
 100 180 l 1,33,-1
 180 180 l 1,34,-1
 180 100 l 1,35,-1
 100 100 l 1,32,-1
200 100 m 1,36,-1
 200 180 l 1,37,-1
 280 180 l 1,38,-1
 280 100 l 1,39,-1
 200 100 l 1,36,-1
EndSplineSet
EndChar

StartChar: etrema
Encoding: 235 235 235
Width: 400
VWidth: 0
LayerCount: 2
Fore
SplineSet
0 500 m 1,0,-1
 0 580 l 1,1,-1
 80 580 l 1,2,-1
 80 500 l 1,3,-1
 0 500 l 1,0,-1
200 500 m 1,4,-1
 200 580 l 1,5,-1
 280 580 l 1,6,-1
 280 500 l 1,7,-1
 200 500 l 1,4,-1
0 300 m 1,8,-1
 0 380 l 1,9,-1
 80 380 l 1,10,-1
 80 300 l 1,11,-1
 0 300 l 1,8,-1
100 300 m 1,12,-1
 100 380 l 1,13,-1
 180 380 l 1,14,-1
 180 300 l 1,15,-1
 100 300 l 1,12,-1
200 300 m 1,16,-1
 200 380 l 1,17,-1
 280 380 l 1,18,-1
 280 300 l 1,19,-1
 200 300 l 1,16,-1
0 200 m 1,20,-1
 0 280 l 1,21,-1
 80 280 l 1,22,-1
 80 200 l 1,23,-1
 0 200 l 1,20,-1
100 200 m 1,24,-1
 100 280 l 1,25,-1
 180 280 l 1,26,-1
 180 200 l 1,27,-1
 100 200 l 1,24,-1
100 100 m 1,28,-1
 100 180 l 1,29,-1
 180 180 l 1,30,-1
 180 100 l 1,31,-1
 100 100 l 1,28,-1
200 100 m 1,32,-1
 200 180 l 1,33,-1
 280 180 l 1,34,-1
 280 100 l 1,35,-1
 200 100 l 1,32,-1
EndSplineSet
EndChar

StartChar: igrave
Encoding: 236 236 236
Width: 400
VWidth: 0
LayerCount: 2
Fore
SplineSet
0 500 m 1,0,-1
 0 580 l 1,1,-1
 80 580 l 1,2,-1
 80 500 l 1,3,-1
 0 500 l 1,0,-1
100 500 m 1,4,-1
 100 580 l 1,5,-1
 180 580 l 1,6,-1
 180 500 l 1,7,-1
 100 500 l 1,4,-1
100 300 m 1,8,-1
 100 380 l 1,9,-1
 180 380 l 1,10,-1
 180 300 l 1,11,-1
 100 300 l 1,8,-1
100 200 m 1,12,-1
 100 280 l 1,13,-1
 180 280 l 1,14,-1
 180 200 l 1,15,-1
 100 200 l 1,12,-1
100 100 m 1,16,-1
 100 180 l 1,17,-1
 180 180 l 1,18,-1
 180 100 l 1,19,-1
 100 100 l 1,16,-1
200 100 m 1,20,-1
 200 180 l 1,21,-1
 280 180 l 1,22,-1
 280 100 l 1,23,-1
 200 100 l 1,20,-1
EndSplineSet
EndChar

StartChar: iacute
Encoding: 237 237 237
Width: 300
VWidth: 0
LayerCount: 2
Fore
SplineSet
0 500 m 1,0,-1
 0 580 l 1,1,-1
 80 580 l 1,2,-1
 80 500 l 1,3,-1
 0 500 l 1,0,-1
100 500 m 1,4,-1
 100 580 l 1,5,-1
 180 580 l 1,6,-1
 180 500 l 1,7,-1
 100 500 l 1,4,-1
0 300 m 1,8,-1
 0 380 l 1,9,-1
 80 380 l 1,10,-1
 80 300 l 1,11,-1
 0 300 l 1,8,-1
0 200 m 1,12,-1
 0 280 l 1,13,-1
 80 280 l 1,14,-1
 80 200 l 1,15,-1
 0 200 l 1,12,-1
0 100 m 1,16,-1
 0 180 l 1,17,-1
 80 180 l 1,18,-1
 80 100 l 1,19,-1
 0 100 l 1,16,-1
100 100 m 1,20,-1
 100 180 l 1,21,-1
 180 180 l 1,22,-1
 180 100 l 1,23,-1
 100 100 l 1,20,-1
EndSplineSet
EndChar

